%TF.GenerationSoftware,KiCad,Pcbnew,10.0.4*%
%TF.CreationDate,2026-08-18T22:25:36+02:00*%
%TF.ProjectId,cistern-level-interface,63697374-6572-46e2-9d6c-6576656c2d69,rev?*%
%TF.SameCoordinates,Original*%
%TF.FileFunction,AssemblyDrawing,Top*%
%FSLAX46Y46*%
G04 Gerber Fmt 4.6, Leading zero omitted, Abs format (unit mm)*
G04 Created by KiCad (PCBNEW 10.0.4) date 2026-08-18 22:25:36*
%MOMM*%
%LPD*%
G01*
G04 APERTURE LIST*
%ADD10C,0.158750*%
%ADD11C,0.150000*%
%ADD12C,0.040000*%
%ADD13C,0.080000*%
%ADD14C,0.100000*%
G04 APERTURE END LIST*
D10*
X98922141Y-100879271D02*
X98922141Y-99609271D01*
X98922141Y-99609271D02*
X99345475Y-100516414D01*
X99345475Y-100516414D02*
X99768808Y-99609271D01*
X99768808Y-99609271D02*
X99768808Y-100879271D01*
X100554999Y-100879271D02*
X100434047Y-100818795D01*
X100434047Y-100818795D02*
X100373570Y-100758318D01*
X100373570Y-100758318D02*
X100313094Y-100637366D01*
X100313094Y-100637366D02*
X100313094Y-100274509D01*
X100313094Y-100274509D02*
X100373570Y-100153556D01*
X100373570Y-100153556D02*
X100434047Y-100093080D01*
X100434047Y-100093080D02*
X100554999Y-100032604D01*
X100554999Y-100032604D02*
X100736428Y-100032604D01*
X100736428Y-100032604D02*
X100857380Y-100093080D01*
X100857380Y-100093080D02*
X100917856Y-100153556D01*
X100917856Y-100153556D02*
X100978332Y-100274509D01*
X100978332Y-100274509D02*
X100978332Y-100637366D01*
X100978332Y-100637366D02*
X100917856Y-100758318D01*
X100917856Y-100758318D02*
X100857380Y-100818795D01*
X100857380Y-100818795D02*
X100736428Y-100879271D01*
X100736428Y-100879271D02*
X100554999Y-100879271D01*
X102066904Y-100032604D02*
X102066904Y-100879271D01*
X101522618Y-100032604D02*
X101522618Y-100697842D01*
X101522618Y-100697842D02*
X101583095Y-100818795D01*
X101583095Y-100818795D02*
X101704047Y-100879271D01*
X101704047Y-100879271D02*
X101885476Y-100879271D01*
X101885476Y-100879271D02*
X102006428Y-100818795D01*
X102006428Y-100818795D02*
X102066904Y-100758318D01*
X102671666Y-100032604D02*
X102671666Y-100879271D01*
X102671666Y-100153556D02*
X102732143Y-100093080D01*
X102732143Y-100093080D02*
X102853095Y-100032604D01*
X102853095Y-100032604D02*
X103034524Y-100032604D01*
X103034524Y-100032604D02*
X103155476Y-100093080D01*
X103155476Y-100093080D02*
X103215952Y-100214033D01*
X103215952Y-100214033D02*
X103215952Y-100879271D01*
X103639286Y-100032604D02*
X104123095Y-100032604D01*
X103820714Y-99609271D02*
X103820714Y-100697842D01*
X103820714Y-100697842D02*
X103881191Y-100818795D01*
X103881191Y-100818795D02*
X104002143Y-100879271D01*
X104002143Y-100879271D02*
X104123095Y-100879271D01*
X104546428Y-100879271D02*
X104546428Y-100032604D01*
X104546428Y-99609271D02*
X104485952Y-99669747D01*
X104485952Y-99669747D02*
X104546428Y-99730223D01*
X104546428Y-99730223D02*
X104606905Y-99669747D01*
X104606905Y-99669747D02*
X104546428Y-99609271D01*
X104546428Y-99609271D02*
X104546428Y-99730223D01*
X105151190Y-100032604D02*
X105151190Y-100879271D01*
X105151190Y-100153556D02*
X105211667Y-100093080D01*
X105211667Y-100093080D02*
X105332619Y-100032604D01*
X105332619Y-100032604D02*
X105514048Y-100032604D01*
X105514048Y-100032604D02*
X105635000Y-100093080D01*
X105635000Y-100093080D02*
X105695476Y-100214033D01*
X105695476Y-100214033D02*
X105695476Y-100879271D01*
X106844524Y-100032604D02*
X106844524Y-101060699D01*
X106844524Y-101060699D02*
X106784048Y-101181652D01*
X106784048Y-101181652D02*
X106723572Y-101242128D01*
X106723572Y-101242128D02*
X106602619Y-101302604D01*
X106602619Y-101302604D02*
X106421191Y-101302604D01*
X106421191Y-101302604D02*
X106300238Y-101242128D01*
X106844524Y-100818795D02*
X106723572Y-100879271D01*
X106723572Y-100879271D02*
X106481667Y-100879271D01*
X106481667Y-100879271D02*
X106360715Y-100818795D01*
X106360715Y-100818795D02*
X106300238Y-100758318D01*
X106300238Y-100758318D02*
X106239762Y-100637366D01*
X106239762Y-100637366D02*
X106239762Y-100274509D01*
X106239762Y-100274509D02*
X106300238Y-100153556D01*
X106300238Y-100153556D02*
X106360715Y-100093080D01*
X106360715Y-100093080D02*
X106481667Y-100032604D01*
X106481667Y-100032604D02*
X106723572Y-100032604D01*
X106723572Y-100032604D02*
X106844524Y-100093080D01*
X107449286Y-100879271D02*
X107449286Y-99609271D01*
X107449286Y-100214033D02*
X108175001Y-100214033D01*
X108175001Y-100879271D02*
X108175001Y-99609271D01*
X108961191Y-100879271D02*
X108840239Y-100818795D01*
X108840239Y-100818795D02*
X108779762Y-100758318D01*
X108779762Y-100758318D02*
X108719286Y-100637366D01*
X108719286Y-100637366D02*
X108719286Y-100274509D01*
X108719286Y-100274509D02*
X108779762Y-100153556D01*
X108779762Y-100153556D02*
X108840239Y-100093080D01*
X108840239Y-100093080D02*
X108961191Y-100032604D01*
X108961191Y-100032604D02*
X109142620Y-100032604D01*
X109142620Y-100032604D02*
X109263572Y-100093080D01*
X109263572Y-100093080D02*
X109324048Y-100153556D01*
X109324048Y-100153556D02*
X109384524Y-100274509D01*
X109384524Y-100274509D02*
X109384524Y-100637366D01*
X109384524Y-100637366D02*
X109324048Y-100758318D01*
X109324048Y-100758318D02*
X109263572Y-100818795D01*
X109263572Y-100818795D02*
X109142620Y-100879271D01*
X109142620Y-100879271D02*
X108961191Y-100879271D01*
X110110239Y-100879271D02*
X109989287Y-100818795D01*
X109989287Y-100818795D02*
X109928810Y-100697842D01*
X109928810Y-100697842D02*
X109928810Y-99609271D01*
X111077858Y-100818795D02*
X110956906Y-100879271D01*
X110956906Y-100879271D02*
X110715001Y-100879271D01*
X110715001Y-100879271D02*
X110594048Y-100818795D01*
X110594048Y-100818795D02*
X110533572Y-100697842D01*
X110533572Y-100697842D02*
X110533572Y-100214033D01*
X110533572Y-100214033D02*
X110594048Y-100093080D01*
X110594048Y-100093080D02*
X110715001Y-100032604D01*
X110715001Y-100032604D02*
X110956906Y-100032604D01*
X110956906Y-100032604D02*
X111077858Y-100093080D01*
X111077858Y-100093080D02*
X111138334Y-100214033D01*
X111138334Y-100214033D02*
X111138334Y-100334985D01*
X111138334Y-100334985D02*
X110533572Y-100455937D01*
D11*
X124389523Y-99824819D02*
X124056190Y-99348628D01*
X123818095Y-99824819D02*
X123818095Y-98824819D01*
X123818095Y-98824819D02*
X124199047Y-98824819D01*
X124199047Y-98824819D02*
X124294285Y-98872438D01*
X124294285Y-98872438D02*
X124341904Y-98920057D01*
X124341904Y-98920057D02*
X124389523Y-99015295D01*
X124389523Y-99015295D02*
X124389523Y-99158152D01*
X124389523Y-99158152D02*
X124341904Y-99253390D01*
X124341904Y-99253390D02*
X124294285Y-99301009D01*
X124294285Y-99301009D02*
X124199047Y-99348628D01*
X124199047Y-99348628D02*
X123818095Y-99348628D01*
X124580000Y-99920057D02*
X125341904Y-99920057D01*
X125532381Y-99539104D02*
X126008571Y-99539104D01*
X125437143Y-99824819D02*
X125770476Y-98824819D01*
X125770476Y-98824819D02*
X126103809Y-99824819D01*
X126341905Y-99824819D02*
X126865714Y-99158152D01*
X126341905Y-99158152D02*
X126865714Y-99824819D01*
X127246667Y-99824819D02*
X127246667Y-99158152D01*
X127246667Y-98824819D02*
X127199048Y-98872438D01*
X127199048Y-98872438D02*
X127246667Y-98920057D01*
X127246667Y-98920057D02*
X127294286Y-98872438D01*
X127294286Y-98872438D02*
X127246667Y-98824819D01*
X127246667Y-98824819D02*
X127246667Y-98920057D01*
X128151428Y-99824819D02*
X128151428Y-99301009D01*
X128151428Y-99301009D02*
X128103809Y-99205771D01*
X128103809Y-99205771D02*
X128008571Y-99158152D01*
X128008571Y-99158152D02*
X127818095Y-99158152D01*
X127818095Y-99158152D02*
X127722857Y-99205771D01*
X128151428Y-99777200D02*
X128056190Y-99824819D01*
X128056190Y-99824819D02*
X127818095Y-99824819D01*
X127818095Y-99824819D02*
X127722857Y-99777200D01*
X127722857Y-99777200D02*
X127675238Y-99681961D01*
X127675238Y-99681961D02*
X127675238Y-99586723D01*
X127675238Y-99586723D02*
X127722857Y-99491485D01*
X127722857Y-99491485D02*
X127818095Y-99443866D01*
X127818095Y-99443866D02*
X128056190Y-99443866D01*
X128056190Y-99443866D02*
X128151428Y-99396247D01*
X128770476Y-99824819D02*
X128675238Y-99777200D01*
X128675238Y-99777200D02*
X128627619Y-99681961D01*
X128627619Y-99681961D02*
X128627619Y-98824819D01*
X128913334Y-99920057D02*
X129675238Y-99920057D01*
X129913334Y-99824819D02*
X129913334Y-98824819D01*
X129913334Y-98824819D02*
X130151429Y-98824819D01*
X130151429Y-98824819D02*
X130294286Y-98872438D01*
X130294286Y-98872438D02*
X130389524Y-98967676D01*
X130389524Y-98967676D02*
X130437143Y-99062914D01*
X130437143Y-99062914D02*
X130484762Y-99253390D01*
X130484762Y-99253390D02*
X130484762Y-99396247D01*
X130484762Y-99396247D02*
X130437143Y-99586723D01*
X130437143Y-99586723D02*
X130389524Y-99681961D01*
X130389524Y-99681961D02*
X130294286Y-99777200D01*
X130294286Y-99777200D02*
X130151429Y-99824819D01*
X130151429Y-99824819D02*
X129913334Y-99824819D01*
X130913334Y-99824819D02*
X130913334Y-98824819D01*
X131389524Y-99824819D02*
X131389524Y-98824819D01*
X131389524Y-98824819D02*
X131960952Y-99824819D01*
X131960952Y-99824819D02*
X131960952Y-98824819D01*
X132627619Y-98824819D02*
X132722857Y-98824819D01*
X132722857Y-98824819D02*
X132818095Y-98872438D01*
X132818095Y-98872438D02*
X132865714Y-98920057D01*
X132865714Y-98920057D02*
X132913333Y-99015295D01*
X132913333Y-99015295D02*
X132960952Y-99205771D01*
X132960952Y-99205771D02*
X132960952Y-99443866D01*
X132960952Y-99443866D02*
X132913333Y-99634342D01*
X132913333Y-99634342D02*
X132865714Y-99729580D01*
X132865714Y-99729580D02*
X132818095Y-99777200D01*
X132818095Y-99777200D02*
X132722857Y-99824819D01*
X132722857Y-99824819D02*
X132627619Y-99824819D01*
X132627619Y-99824819D02*
X132532381Y-99777200D01*
X132532381Y-99777200D02*
X132484762Y-99729580D01*
X132484762Y-99729580D02*
X132437143Y-99634342D01*
X132437143Y-99634342D02*
X132389524Y-99443866D01*
X132389524Y-99443866D02*
X132389524Y-99205771D01*
X132389524Y-99205771D02*
X132437143Y-99015295D01*
X132437143Y-99015295D02*
X132484762Y-98920057D01*
X132484762Y-98920057D02*
X132532381Y-98872438D01*
X132532381Y-98872438D02*
X132627619Y-98824819D01*
X133341905Y-98920057D02*
X133389524Y-98872438D01*
X133389524Y-98872438D02*
X133484762Y-98824819D01*
X133484762Y-98824819D02*
X133722857Y-98824819D01*
X133722857Y-98824819D02*
X133818095Y-98872438D01*
X133818095Y-98872438D02*
X133865714Y-98920057D01*
X133865714Y-98920057D02*
X133913333Y-99015295D01*
X133913333Y-99015295D02*
X133913333Y-99110533D01*
X133913333Y-99110533D02*
X133865714Y-99253390D01*
X133865714Y-99253390D02*
X133294286Y-99824819D01*
X133294286Y-99824819D02*
X133913333Y-99824819D01*
X134532381Y-98824819D02*
X134627619Y-98824819D01*
X134627619Y-98824819D02*
X134722857Y-98872438D01*
X134722857Y-98872438D02*
X134770476Y-98920057D01*
X134770476Y-98920057D02*
X134818095Y-99015295D01*
X134818095Y-99015295D02*
X134865714Y-99205771D01*
X134865714Y-99205771D02*
X134865714Y-99443866D01*
X134865714Y-99443866D02*
X134818095Y-99634342D01*
X134818095Y-99634342D02*
X134770476Y-99729580D01*
X134770476Y-99729580D02*
X134722857Y-99777200D01*
X134722857Y-99777200D02*
X134627619Y-99824819D01*
X134627619Y-99824819D02*
X134532381Y-99824819D01*
X134532381Y-99824819D02*
X134437143Y-99777200D01*
X134437143Y-99777200D02*
X134389524Y-99729580D01*
X134389524Y-99729580D02*
X134341905Y-99634342D01*
X134341905Y-99634342D02*
X134294286Y-99443866D01*
X134294286Y-99443866D02*
X134294286Y-99205771D01*
X134294286Y-99205771D02*
X134341905Y-99015295D01*
X134341905Y-99015295D02*
X134389524Y-98920057D01*
X134389524Y-98920057D02*
X134437143Y-98872438D01*
X134437143Y-98872438D02*
X134532381Y-98824819D01*
X135199048Y-98824819D02*
X135865714Y-98824819D01*
X135865714Y-98824819D02*
X135437143Y-99824819D01*
X136008572Y-99920057D02*
X136770476Y-99920057D01*
X137484762Y-99824819D02*
X137008572Y-99824819D01*
X137008572Y-99824819D02*
X137008572Y-98824819D01*
X138246667Y-98824819D02*
X138056191Y-98824819D01*
X138056191Y-98824819D02*
X137960953Y-98872438D01*
X137960953Y-98872438D02*
X137913334Y-98920057D01*
X137913334Y-98920057D02*
X137818096Y-99062914D01*
X137818096Y-99062914D02*
X137770477Y-99253390D01*
X137770477Y-99253390D02*
X137770477Y-99634342D01*
X137770477Y-99634342D02*
X137818096Y-99729580D01*
X137818096Y-99729580D02*
X137865715Y-99777200D01*
X137865715Y-99777200D02*
X137960953Y-99824819D01*
X137960953Y-99824819D02*
X138151429Y-99824819D01*
X138151429Y-99824819D02*
X138246667Y-99777200D01*
X138246667Y-99777200D02*
X138294286Y-99729580D01*
X138294286Y-99729580D02*
X138341905Y-99634342D01*
X138341905Y-99634342D02*
X138341905Y-99396247D01*
X138341905Y-99396247D02*
X138294286Y-99301009D01*
X138294286Y-99301009D02*
X138246667Y-99253390D01*
X138246667Y-99253390D02*
X138151429Y-99205771D01*
X138151429Y-99205771D02*
X137960953Y-99205771D01*
X137960953Y-99205771D02*
X137865715Y-99253390D01*
X137865715Y-99253390D02*
X137818096Y-99301009D01*
X137818096Y-99301009D02*
X137770477Y-99396247D01*
X138770477Y-99729580D02*
X138818096Y-99777200D01*
X138818096Y-99777200D02*
X138770477Y-99824819D01*
X138770477Y-99824819D02*
X138722858Y-99777200D01*
X138722858Y-99777200D02*
X138770477Y-99729580D01*
X138770477Y-99729580D02*
X138770477Y-99824819D01*
X139151429Y-98824819D02*
X139770476Y-98824819D01*
X139770476Y-98824819D02*
X139437143Y-99205771D01*
X139437143Y-99205771D02*
X139580000Y-99205771D01*
X139580000Y-99205771D02*
X139675238Y-99253390D01*
X139675238Y-99253390D02*
X139722857Y-99301009D01*
X139722857Y-99301009D02*
X139770476Y-99396247D01*
X139770476Y-99396247D02*
X139770476Y-99634342D01*
X139770476Y-99634342D02*
X139722857Y-99729580D01*
X139722857Y-99729580D02*
X139675238Y-99777200D01*
X139675238Y-99777200D02*
X139580000Y-99824819D01*
X139580000Y-99824819D02*
X139294286Y-99824819D01*
X139294286Y-99824819D02*
X139199048Y-99777200D01*
X139199048Y-99777200D02*
X139151429Y-99729580D01*
X140199048Y-99824819D02*
X140199048Y-99158152D01*
X140199048Y-99253390D02*
X140246667Y-99205771D01*
X140246667Y-99205771D02*
X140341905Y-99158152D01*
X140341905Y-99158152D02*
X140484762Y-99158152D01*
X140484762Y-99158152D02*
X140580000Y-99205771D01*
X140580000Y-99205771D02*
X140627619Y-99301009D01*
X140627619Y-99301009D02*
X140627619Y-99824819D01*
X140627619Y-99301009D02*
X140675238Y-99205771D01*
X140675238Y-99205771D02*
X140770476Y-99158152D01*
X140770476Y-99158152D02*
X140913333Y-99158152D01*
X140913333Y-99158152D02*
X141008572Y-99205771D01*
X141008572Y-99205771D02*
X141056191Y-99301009D01*
X141056191Y-99301009D02*
X141056191Y-99824819D01*
X141532381Y-99824819D02*
X141532381Y-99158152D01*
X141532381Y-99253390D02*
X141580000Y-99205771D01*
X141580000Y-99205771D02*
X141675238Y-99158152D01*
X141675238Y-99158152D02*
X141818095Y-99158152D01*
X141818095Y-99158152D02*
X141913333Y-99205771D01*
X141913333Y-99205771D02*
X141960952Y-99301009D01*
X141960952Y-99301009D02*
X141960952Y-99824819D01*
X141960952Y-99301009D02*
X142008571Y-99205771D01*
X142008571Y-99205771D02*
X142103809Y-99158152D01*
X142103809Y-99158152D02*
X142246666Y-99158152D01*
X142246666Y-99158152D02*
X142341905Y-99205771D01*
X142341905Y-99205771D02*
X142389524Y-99301009D01*
X142389524Y-99301009D02*
X142389524Y-99824819D01*
X142627619Y-99920057D02*
X143389523Y-99920057D01*
X143627619Y-99824819D02*
X143627619Y-98824819D01*
X143627619Y-98824819D02*
X143865714Y-98824819D01*
X143865714Y-98824819D02*
X144008571Y-98872438D01*
X144008571Y-98872438D02*
X144103809Y-98967676D01*
X144103809Y-98967676D02*
X144151428Y-99062914D01*
X144151428Y-99062914D02*
X144199047Y-99253390D01*
X144199047Y-99253390D02*
X144199047Y-99396247D01*
X144199047Y-99396247D02*
X144151428Y-99586723D01*
X144151428Y-99586723D02*
X144103809Y-99681961D01*
X144103809Y-99681961D02*
X144008571Y-99777200D01*
X144008571Y-99777200D02*
X143865714Y-99824819D01*
X143865714Y-99824819D02*
X143627619Y-99824819D01*
X144580000Y-98920057D02*
X144627619Y-98872438D01*
X144627619Y-98872438D02*
X144722857Y-98824819D01*
X144722857Y-98824819D02*
X144960952Y-98824819D01*
X144960952Y-98824819D02*
X145056190Y-98872438D01*
X145056190Y-98872438D02*
X145103809Y-98920057D01*
X145103809Y-98920057D02*
X145151428Y-99015295D01*
X145151428Y-99015295D02*
X145151428Y-99110533D01*
X145151428Y-99110533D02*
X145103809Y-99253390D01*
X145103809Y-99253390D02*
X144532381Y-99824819D01*
X144532381Y-99824819D02*
X145151428Y-99824819D01*
X145580000Y-99729580D02*
X145627619Y-99777200D01*
X145627619Y-99777200D02*
X145580000Y-99824819D01*
X145580000Y-99824819D02*
X145532381Y-99777200D01*
X145532381Y-99777200D02*
X145580000Y-99729580D01*
X145580000Y-99729580D02*
X145580000Y-99824819D01*
X146532380Y-98824819D02*
X146056190Y-98824819D01*
X146056190Y-98824819D02*
X146008571Y-99301009D01*
X146008571Y-99301009D02*
X146056190Y-99253390D01*
X146056190Y-99253390D02*
X146151428Y-99205771D01*
X146151428Y-99205771D02*
X146389523Y-99205771D01*
X146389523Y-99205771D02*
X146484761Y-99253390D01*
X146484761Y-99253390D02*
X146532380Y-99301009D01*
X146532380Y-99301009D02*
X146579999Y-99396247D01*
X146579999Y-99396247D02*
X146579999Y-99634342D01*
X146579999Y-99634342D02*
X146532380Y-99729580D01*
X146532380Y-99729580D02*
X146484761Y-99777200D01*
X146484761Y-99777200D02*
X146389523Y-99824819D01*
X146389523Y-99824819D02*
X146151428Y-99824819D01*
X146151428Y-99824819D02*
X146056190Y-99777200D01*
X146056190Y-99777200D02*
X146008571Y-99729580D01*
X147008571Y-99824819D02*
X147008571Y-99158152D01*
X147008571Y-99253390D02*
X147056190Y-99205771D01*
X147056190Y-99205771D02*
X147151428Y-99158152D01*
X147151428Y-99158152D02*
X147294285Y-99158152D01*
X147294285Y-99158152D02*
X147389523Y-99205771D01*
X147389523Y-99205771D02*
X147437142Y-99301009D01*
X147437142Y-99301009D02*
X147437142Y-99824819D01*
X147437142Y-99301009D02*
X147484761Y-99205771D01*
X147484761Y-99205771D02*
X147579999Y-99158152D01*
X147579999Y-99158152D02*
X147722856Y-99158152D01*
X147722856Y-99158152D02*
X147818095Y-99205771D01*
X147818095Y-99205771D02*
X147865714Y-99301009D01*
X147865714Y-99301009D02*
X147865714Y-99824819D01*
X148341904Y-99824819D02*
X148341904Y-99158152D01*
X148341904Y-99253390D02*
X148389523Y-99205771D01*
X148389523Y-99205771D02*
X148484761Y-99158152D01*
X148484761Y-99158152D02*
X148627618Y-99158152D01*
X148627618Y-99158152D02*
X148722856Y-99205771D01*
X148722856Y-99205771D02*
X148770475Y-99301009D01*
X148770475Y-99301009D02*
X148770475Y-99824819D01*
X148770475Y-99301009D02*
X148818094Y-99205771D01*
X148818094Y-99205771D02*
X148913332Y-99158152D01*
X148913332Y-99158152D02*
X149056189Y-99158152D01*
X149056189Y-99158152D02*
X149151428Y-99205771D01*
X149151428Y-99205771D02*
X149199047Y-99301009D01*
X149199047Y-99301009D02*
X149199047Y-99824819D01*
X149437142Y-99920057D02*
X150199046Y-99920057D01*
X150437142Y-99824819D02*
X150437142Y-98824819D01*
X150437142Y-98824819D02*
X150818094Y-98824819D01*
X150818094Y-98824819D02*
X150913332Y-98872438D01*
X150913332Y-98872438D02*
X150960951Y-98920057D01*
X150960951Y-98920057D02*
X151008570Y-99015295D01*
X151008570Y-99015295D02*
X151008570Y-99158152D01*
X151008570Y-99158152D02*
X150960951Y-99253390D01*
X150960951Y-99253390D02*
X150913332Y-99301009D01*
X150913332Y-99301009D02*
X150818094Y-99348628D01*
X150818094Y-99348628D02*
X150437142Y-99348628D01*
X151960951Y-99824819D02*
X151389523Y-99824819D01*
X151675237Y-99824819D02*
X151675237Y-98824819D01*
X151675237Y-98824819D02*
X151579999Y-98967676D01*
X151579999Y-98967676D02*
X151484761Y-99062914D01*
X151484761Y-99062914D02*
X151389523Y-99110533D01*
X152579999Y-98824819D02*
X152675237Y-98824819D01*
X152675237Y-98824819D02*
X152770475Y-98872438D01*
X152770475Y-98872438D02*
X152818094Y-98920057D01*
X152818094Y-98920057D02*
X152865713Y-99015295D01*
X152865713Y-99015295D02*
X152913332Y-99205771D01*
X152913332Y-99205771D02*
X152913332Y-99443866D01*
X152913332Y-99443866D02*
X152865713Y-99634342D01*
X152865713Y-99634342D02*
X152818094Y-99729580D01*
X152818094Y-99729580D02*
X152770475Y-99777200D01*
X152770475Y-99777200D02*
X152675237Y-99824819D01*
X152675237Y-99824819D02*
X152579999Y-99824819D01*
X152579999Y-99824819D02*
X152484761Y-99777200D01*
X152484761Y-99777200D02*
X152437142Y-99729580D01*
X152437142Y-99729580D02*
X152389523Y-99634342D01*
X152389523Y-99634342D02*
X152341904Y-99443866D01*
X152341904Y-99443866D02*
X152341904Y-99205771D01*
X152341904Y-99205771D02*
X152389523Y-99015295D01*
X152389523Y-99015295D02*
X152437142Y-98920057D01*
X152437142Y-98920057D02*
X152484761Y-98872438D01*
X152484761Y-98872438D02*
X152579999Y-98824819D01*
X153341904Y-99729580D02*
X153389523Y-99777200D01*
X153389523Y-99777200D02*
X153341904Y-99824819D01*
X153341904Y-99824819D02*
X153294285Y-99777200D01*
X153294285Y-99777200D02*
X153341904Y-99729580D01*
X153341904Y-99729580D02*
X153341904Y-99824819D01*
X154341903Y-99824819D02*
X153770475Y-99824819D01*
X154056189Y-99824819D02*
X154056189Y-98824819D01*
X154056189Y-98824819D02*
X153960951Y-98967676D01*
X153960951Y-98967676D02*
X153865713Y-99062914D01*
X153865713Y-99062914D02*
X153770475Y-99110533D01*
X155199046Y-98824819D02*
X155008570Y-98824819D01*
X155008570Y-98824819D02*
X154913332Y-98872438D01*
X154913332Y-98872438D02*
X154865713Y-98920057D01*
X154865713Y-98920057D02*
X154770475Y-99062914D01*
X154770475Y-99062914D02*
X154722856Y-99253390D01*
X154722856Y-99253390D02*
X154722856Y-99634342D01*
X154722856Y-99634342D02*
X154770475Y-99729580D01*
X154770475Y-99729580D02*
X154818094Y-99777200D01*
X154818094Y-99777200D02*
X154913332Y-99824819D01*
X154913332Y-99824819D02*
X155103808Y-99824819D01*
X155103808Y-99824819D02*
X155199046Y-99777200D01*
X155199046Y-99777200D02*
X155246665Y-99729580D01*
X155246665Y-99729580D02*
X155294284Y-99634342D01*
X155294284Y-99634342D02*
X155294284Y-99396247D01*
X155294284Y-99396247D02*
X155246665Y-99301009D01*
X155246665Y-99301009D02*
X155199046Y-99253390D01*
X155199046Y-99253390D02*
X155103808Y-99205771D01*
X155103808Y-99205771D02*
X154913332Y-99205771D01*
X154913332Y-99205771D02*
X154818094Y-99253390D01*
X154818094Y-99253390D02*
X154770475Y-99301009D01*
X154770475Y-99301009D02*
X154722856Y-99396247D01*
X155722856Y-99824819D02*
X155722856Y-99158152D01*
X155722856Y-99253390D02*
X155770475Y-99205771D01*
X155770475Y-99205771D02*
X155865713Y-99158152D01*
X155865713Y-99158152D02*
X156008570Y-99158152D01*
X156008570Y-99158152D02*
X156103808Y-99205771D01*
X156103808Y-99205771D02*
X156151427Y-99301009D01*
X156151427Y-99301009D02*
X156151427Y-99824819D01*
X156151427Y-99301009D02*
X156199046Y-99205771D01*
X156199046Y-99205771D02*
X156294284Y-99158152D01*
X156294284Y-99158152D02*
X156437141Y-99158152D01*
X156437141Y-99158152D02*
X156532380Y-99205771D01*
X156532380Y-99205771D02*
X156579999Y-99301009D01*
X156579999Y-99301009D02*
X156579999Y-99824819D01*
X157056189Y-99824819D02*
X157056189Y-99158152D01*
X157056189Y-99253390D02*
X157103808Y-99205771D01*
X157103808Y-99205771D02*
X157199046Y-99158152D01*
X157199046Y-99158152D02*
X157341903Y-99158152D01*
X157341903Y-99158152D02*
X157437141Y-99205771D01*
X157437141Y-99205771D02*
X157484760Y-99301009D01*
X157484760Y-99301009D02*
X157484760Y-99824819D01*
X157484760Y-99301009D02*
X157532379Y-99205771D01*
X157532379Y-99205771D02*
X157627617Y-99158152D01*
X157627617Y-99158152D02*
X157770474Y-99158152D01*
X157770474Y-99158152D02*
X157865713Y-99205771D01*
X157865713Y-99205771D02*
X157913332Y-99301009D01*
X157913332Y-99301009D02*
X157913332Y-99824819D01*
X158151427Y-99920057D02*
X158913331Y-99920057D01*
X159151427Y-99824819D02*
X159151427Y-98824819D01*
X159151427Y-99301009D02*
X159722855Y-99301009D01*
X159722855Y-99824819D02*
X159722855Y-98824819D01*
X160341903Y-99824819D02*
X160246665Y-99777200D01*
X160246665Y-99777200D02*
X160199046Y-99729580D01*
X160199046Y-99729580D02*
X160151427Y-99634342D01*
X160151427Y-99634342D02*
X160151427Y-99348628D01*
X160151427Y-99348628D02*
X160199046Y-99253390D01*
X160199046Y-99253390D02*
X160246665Y-99205771D01*
X160246665Y-99205771D02*
X160341903Y-99158152D01*
X160341903Y-99158152D02*
X160484760Y-99158152D01*
X160484760Y-99158152D02*
X160579998Y-99205771D01*
X160579998Y-99205771D02*
X160627617Y-99253390D01*
X160627617Y-99253390D02*
X160675236Y-99348628D01*
X160675236Y-99348628D02*
X160675236Y-99634342D01*
X160675236Y-99634342D02*
X160627617Y-99729580D01*
X160627617Y-99729580D02*
X160579998Y-99777200D01*
X160579998Y-99777200D02*
X160484760Y-99824819D01*
X160484760Y-99824819D02*
X160341903Y-99824819D01*
X161103808Y-99824819D02*
X161103808Y-99158152D01*
X161103808Y-99348628D02*
X161151427Y-99253390D01*
X161151427Y-99253390D02*
X161199046Y-99205771D01*
X161199046Y-99205771D02*
X161294284Y-99158152D01*
X161294284Y-99158152D02*
X161389522Y-99158152D01*
X161722856Y-99824819D02*
X161722856Y-99158152D01*
X161722856Y-98824819D02*
X161675237Y-98872438D01*
X161675237Y-98872438D02*
X161722856Y-98920057D01*
X161722856Y-98920057D02*
X161770475Y-98872438D01*
X161770475Y-98872438D02*
X161722856Y-98824819D01*
X161722856Y-98824819D02*
X161722856Y-98920057D01*
X162103808Y-99158152D02*
X162627617Y-99158152D01*
X162627617Y-99158152D02*
X162103808Y-99824819D01*
X162103808Y-99824819D02*
X162627617Y-99824819D01*
X163151427Y-99824819D02*
X163056189Y-99777200D01*
X163056189Y-99777200D02*
X163008570Y-99729580D01*
X163008570Y-99729580D02*
X162960951Y-99634342D01*
X162960951Y-99634342D02*
X162960951Y-99348628D01*
X162960951Y-99348628D02*
X163008570Y-99253390D01*
X163008570Y-99253390D02*
X163056189Y-99205771D01*
X163056189Y-99205771D02*
X163151427Y-99158152D01*
X163151427Y-99158152D02*
X163294284Y-99158152D01*
X163294284Y-99158152D02*
X163389522Y-99205771D01*
X163389522Y-99205771D02*
X163437141Y-99253390D01*
X163437141Y-99253390D02*
X163484760Y-99348628D01*
X163484760Y-99348628D02*
X163484760Y-99634342D01*
X163484760Y-99634342D02*
X163437141Y-99729580D01*
X163437141Y-99729580D02*
X163389522Y-99777200D01*
X163389522Y-99777200D02*
X163294284Y-99824819D01*
X163294284Y-99824819D02*
X163151427Y-99824819D01*
X163913332Y-99158152D02*
X163913332Y-99824819D01*
X163913332Y-99253390D02*
X163960951Y-99205771D01*
X163960951Y-99205771D02*
X164056189Y-99158152D01*
X164056189Y-99158152D02*
X164199046Y-99158152D01*
X164199046Y-99158152D02*
X164294284Y-99205771D01*
X164294284Y-99205771D02*
X164341903Y-99301009D01*
X164341903Y-99301009D02*
X164341903Y-99824819D01*
X164675237Y-99158152D02*
X165056189Y-99158152D01*
X164818094Y-98824819D02*
X164818094Y-99681961D01*
X164818094Y-99681961D02*
X164865713Y-99777200D01*
X164865713Y-99777200D02*
X164960951Y-99824819D01*
X164960951Y-99824819D02*
X165056189Y-99824819D01*
X165818094Y-99824819D02*
X165818094Y-99301009D01*
X165818094Y-99301009D02*
X165770475Y-99205771D01*
X165770475Y-99205771D02*
X165675237Y-99158152D01*
X165675237Y-99158152D02*
X165484761Y-99158152D01*
X165484761Y-99158152D02*
X165389523Y-99205771D01*
X165818094Y-99777200D02*
X165722856Y-99824819D01*
X165722856Y-99824819D02*
X165484761Y-99824819D01*
X165484761Y-99824819D02*
X165389523Y-99777200D01*
X165389523Y-99777200D02*
X165341904Y-99681961D01*
X165341904Y-99681961D02*
X165341904Y-99586723D01*
X165341904Y-99586723D02*
X165389523Y-99491485D01*
X165389523Y-99491485D02*
X165484761Y-99443866D01*
X165484761Y-99443866D02*
X165722856Y-99443866D01*
X165722856Y-99443866D02*
X165818094Y-99396247D01*
X166437142Y-99824819D02*
X166341904Y-99777200D01*
X166341904Y-99777200D02*
X166294285Y-99681961D01*
X166294285Y-99681961D02*
X166294285Y-98824819D01*
X144913333Y-97454819D02*
X144580000Y-96978628D01*
X144341905Y-97454819D02*
X144341905Y-96454819D01*
X144341905Y-96454819D02*
X144722857Y-96454819D01*
X144722857Y-96454819D02*
X144818095Y-96502438D01*
X144818095Y-96502438D02*
X144865714Y-96550057D01*
X144865714Y-96550057D02*
X144913333Y-96645295D01*
X144913333Y-96645295D02*
X144913333Y-96788152D01*
X144913333Y-96788152D02*
X144865714Y-96883390D01*
X144865714Y-96883390D02*
X144818095Y-96931009D01*
X144818095Y-96931009D02*
X144722857Y-96978628D01*
X144722857Y-96978628D02*
X144341905Y-96978628D01*
X145865714Y-97454819D02*
X145294286Y-97454819D01*
X145580000Y-97454819D02*
X145580000Y-96454819D01*
X145580000Y-96454819D02*
X145484762Y-96597676D01*
X145484762Y-96597676D02*
X145389524Y-96692914D01*
X145389524Y-96692914D02*
X145294286Y-96740533D01*
X88159047Y-107174819D02*
X88730475Y-107174819D01*
X88444761Y-108174819D02*
X88444761Y-107174819D01*
X89444761Y-108127200D02*
X89349523Y-108174819D01*
X89349523Y-108174819D02*
X89159047Y-108174819D01*
X89159047Y-108174819D02*
X89063809Y-108127200D01*
X89063809Y-108127200D02*
X89016190Y-108031961D01*
X89016190Y-108031961D02*
X89016190Y-107651009D01*
X89016190Y-107651009D02*
X89063809Y-107555771D01*
X89063809Y-107555771D02*
X89159047Y-107508152D01*
X89159047Y-107508152D02*
X89349523Y-107508152D01*
X89349523Y-107508152D02*
X89444761Y-107555771D01*
X89444761Y-107555771D02*
X89492380Y-107651009D01*
X89492380Y-107651009D02*
X89492380Y-107746247D01*
X89492380Y-107746247D02*
X89016190Y-107841485D01*
X89920952Y-108174819D02*
X89920952Y-107508152D01*
X89920952Y-107698628D02*
X89968571Y-107603390D01*
X89968571Y-107603390D02*
X90016190Y-107555771D01*
X90016190Y-107555771D02*
X90111428Y-107508152D01*
X90111428Y-107508152D02*
X90206666Y-107508152D01*
X90540000Y-108174819D02*
X90540000Y-107508152D01*
X90540000Y-107603390D02*
X90587619Y-107555771D01*
X90587619Y-107555771D02*
X90682857Y-107508152D01*
X90682857Y-107508152D02*
X90825714Y-107508152D01*
X90825714Y-107508152D02*
X90920952Y-107555771D01*
X90920952Y-107555771D02*
X90968571Y-107651009D01*
X90968571Y-107651009D02*
X90968571Y-108174819D01*
X90968571Y-107651009D02*
X91016190Y-107555771D01*
X91016190Y-107555771D02*
X91111428Y-107508152D01*
X91111428Y-107508152D02*
X91254285Y-107508152D01*
X91254285Y-107508152D02*
X91349524Y-107555771D01*
X91349524Y-107555771D02*
X91397143Y-107651009D01*
X91397143Y-107651009D02*
X91397143Y-108174819D01*
X91873333Y-108174819D02*
X91873333Y-107508152D01*
X91873333Y-107174819D02*
X91825714Y-107222438D01*
X91825714Y-107222438D02*
X91873333Y-107270057D01*
X91873333Y-107270057D02*
X91920952Y-107222438D01*
X91920952Y-107222438D02*
X91873333Y-107174819D01*
X91873333Y-107174819D02*
X91873333Y-107270057D01*
X92349523Y-107508152D02*
X92349523Y-108174819D01*
X92349523Y-107603390D02*
X92397142Y-107555771D01*
X92397142Y-107555771D02*
X92492380Y-107508152D01*
X92492380Y-107508152D02*
X92635237Y-107508152D01*
X92635237Y-107508152D02*
X92730475Y-107555771D01*
X92730475Y-107555771D02*
X92778094Y-107651009D01*
X92778094Y-107651009D02*
X92778094Y-108174819D01*
X93682856Y-108174819D02*
X93682856Y-107651009D01*
X93682856Y-107651009D02*
X93635237Y-107555771D01*
X93635237Y-107555771D02*
X93539999Y-107508152D01*
X93539999Y-107508152D02*
X93349523Y-107508152D01*
X93349523Y-107508152D02*
X93254285Y-107555771D01*
X93682856Y-108127200D02*
X93587618Y-108174819D01*
X93587618Y-108174819D02*
X93349523Y-108174819D01*
X93349523Y-108174819D02*
X93254285Y-108127200D01*
X93254285Y-108127200D02*
X93206666Y-108031961D01*
X93206666Y-108031961D02*
X93206666Y-107936723D01*
X93206666Y-107936723D02*
X93254285Y-107841485D01*
X93254285Y-107841485D02*
X93349523Y-107793866D01*
X93349523Y-107793866D02*
X93587618Y-107793866D01*
X93587618Y-107793866D02*
X93682856Y-107746247D01*
X94301904Y-108174819D02*
X94206666Y-108127200D01*
X94206666Y-108127200D02*
X94159047Y-108031961D01*
X94159047Y-108031961D02*
X94159047Y-107174819D01*
X95016190Y-107651009D02*
X95159047Y-107698628D01*
X95159047Y-107698628D02*
X95206666Y-107746247D01*
X95206666Y-107746247D02*
X95254285Y-107841485D01*
X95254285Y-107841485D02*
X95254285Y-107984342D01*
X95254285Y-107984342D02*
X95206666Y-108079580D01*
X95206666Y-108079580D02*
X95159047Y-108127200D01*
X95159047Y-108127200D02*
X95063809Y-108174819D01*
X95063809Y-108174819D02*
X94682857Y-108174819D01*
X94682857Y-108174819D02*
X94682857Y-107174819D01*
X94682857Y-107174819D02*
X95016190Y-107174819D01*
X95016190Y-107174819D02*
X95111428Y-107222438D01*
X95111428Y-107222438D02*
X95159047Y-107270057D01*
X95159047Y-107270057D02*
X95206666Y-107365295D01*
X95206666Y-107365295D02*
X95206666Y-107460533D01*
X95206666Y-107460533D02*
X95159047Y-107555771D01*
X95159047Y-107555771D02*
X95111428Y-107603390D01*
X95111428Y-107603390D02*
X95016190Y-107651009D01*
X95016190Y-107651009D02*
X94682857Y-107651009D01*
X95825714Y-108174819D02*
X95730476Y-108127200D01*
X95730476Y-108127200D02*
X95682857Y-108031961D01*
X95682857Y-108031961D02*
X95682857Y-107174819D01*
X96349524Y-108174819D02*
X96254286Y-108127200D01*
X96254286Y-108127200D02*
X96206667Y-108079580D01*
X96206667Y-108079580D02*
X96159048Y-107984342D01*
X96159048Y-107984342D02*
X96159048Y-107698628D01*
X96159048Y-107698628D02*
X96206667Y-107603390D01*
X96206667Y-107603390D02*
X96254286Y-107555771D01*
X96254286Y-107555771D02*
X96349524Y-107508152D01*
X96349524Y-107508152D02*
X96492381Y-107508152D01*
X96492381Y-107508152D02*
X96587619Y-107555771D01*
X96587619Y-107555771D02*
X96635238Y-107603390D01*
X96635238Y-107603390D02*
X96682857Y-107698628D01*
X96682857Y-107698628D02*
X96682857Y-107984342D01*
X96682857Y-107984342D02*
X96635238Y-108079580D01*
X96635238Y-108079580D02*
X96587619Y-108127200D01*
X96587619Y-108127200D02*
X96492381Y-108174819D01*
X96492381Y-108174819D02*
X96349524Y-108174819D01*
X97540000Y-108127200D02*
X97444762Y-108174819D01*
X97444762Y-108174819D02*
X97254286Y-108174819D01*
X97254286Y-108174819D02*
X97159048Y-108127200D01*
X97159048Y-108127200D02*
X97111429Y-108079580D01*
X97111429Y-108079580D02*
X97063810Y-107984342D01*
X97063810Y-107984342D02*
X97063810Y-107698628D01*
X97063810Y-107698628D02*
X97111429Y-107603390D01*
X97111429Y-107603390D02*
X97159048Y-107555771D01*
X97159048Y-107555771D02*
X97254286Y-107508152D01*
X97254286Y-107508152D02*
X97444762Y-107508152D01*
X97444762Y-107508152D02*
X97540000Y-107555771D01*
X97968572Y-108174819D02*
X97968572Y-107174819D01*
X98063810Y-107793866D02*
X98349524Y-108174819D01*
X98349524Y-107508152D02*
X97968572Y-107889104D01*
X98540001Y-108270057D02*
X99301905Y-108270057D01*
X99540001Y-108174819D02*
X99540001Y-107174819D01*
X99540001Y-107174819D02*
X99920953Y-107174819D01*
X99920953Y-107174819D02*
X100016191Y-107222438D01*
X100016191Y-107222438D02*
X100063810Y-107270057D01*
X100063810Y-107270057D02*
X100111429Y-107365295D01*
X100111429Y-107365295D02*
X100111429Y-107508152D01*
X100111429Y-107508152D02*
X100063810Y-107603390D01*
X100063810Y-107603390D02*
X100016191Y-107651009D01*
X100016191Y-107651009D02*
X99920953Y-107698628D01*
X99920953Y-107698628D02*
X99540001Y-107698628D01*
X100540001Y-108174819D02*
X100540001Y-107174819D01*
X100968572Y-108174819D02*
X100968572Y-107651009D01*
X100968572Y-107651009D02*
X100920953Y-107555771D01*
X100920953Y-107555771D02*
X100825715Y-107508152D01*
X100825715Y-107508152D02*
X100682858Y-107508152D01*
X100682858Y-107508152D02*
X100587620Y-107555771D01*
X100587620Y-107555771D02*
X100540001Y-107603390D01*
X101587620Y-108174819D02*
X101492382Y-108127200D01*
X101492382Y-108127200D02*
X101444763Y-108079580D01*
X101444763Y-108079580D02*
X101397144Y-107984342D01*
X101397144Y-107984342D02*
X101397144Y-107698628D01*
X101397144Y-107698628D02*
X101444763Y-107603390D01*
X101444763Y-107603390D02*
X101492382Y-107555771D01*
X101492382Y-107555771D02*
X101587620Y-107508152D01*
X101587620Y-107508152D02*
X101730477Y-107508152D01*
X101730477Y-107508152D02*
X101825715Y-107555771D01*
X101825715Y-107555771D02*
X101873334Y-107603390D01*
X101873334Y-107603390D02*
X101920953Y-107698628D01*
X101920953Y-107698628D02*
X101920953Y-107984342D01*
X101920953Y-107984342D02*
X101873334Y-108079580D01*
X101873334Y-108079580D02*
X101825715Y-108127200D01*
X101825715Y-108127200D02*
X101730477Y-108174819D01*
X101730477Y-108174819D02*
X101587620Y-108174819D01*
X102730477Y-108127200D02*
X102635239Y-108174819D01*
X102635239Y-108174819D02*
X102444763Y-108174819D01*
X102444763Y-108174819D02*
X102349525Y-108127200D01*
X102349525Y-108127200D02*
X102301906Y-108031961D01*
X102301906Y-108031961D02*
X102301906Y-107651009D01*
X102301906Y-107651009D02*
X102349525Y-107555771D01*
X102349525Y-107555771D02*
X102444763Y-107508152D01*
X102444763Y-107508152D02*
X102635239Y-107508152D01*
X102635239Y-107508152D02*
X102730477Y-107555771D01*
X102730477Y-107555771D02*
X102778096Y-107651009D01*
X102778096Y-107651009D02*
X102778096Y-107746247D01*
X102778096Y-107746247D02*
X102301906Y-107841485D01*
X103206668Y-107508152D02*
X103206668Y-108174819D01*
X103206668Y-107603390D02*
X103254287Y-107555771D01*
X103254287Y-107555771D02*
X103349525Y-107508152D01*
X103349525Y-107508152D02*
X103492382Y-107508152D01*
X103492382Y-107508152D02*
X103587620Y-107555771D01*
X103587620Y-107555771D02*
X103635239Y-107651009D01*
X103635239Y-107651009D02*
X103635239Y-108174819D01*
X104111430Y-108174819D02*
X104111430Y-107508152D01*
X104111430Y-107174819D02*
X104063811Y-107222438D01*
X104063811Y-107222438D02*
X104111430Y-107270057D01*
X104111430Y-107270057D02*
X104159049Y-107222438D01*
X104159049Y-107222438D02*
X104111430Y-107174819D01*
X104111430Y-107174819D02*
X104111430Y-107270057D01*
X104492382Y-108174819D02*
X105016191Y-107508152D01*
X104492382Y-107508152D02*
X105016191Y-108174819D01*
X105159049Y-108270057D02*
X105920953Y-108270057D01*
X106159049Y-108174819D02*
X106159049Y-107174819D01*
X106159049Y-107174819D02*
X106492382Y-107889104D01*
X106492382Y-107889104D02*
X106825715Y-107174819D01*
X106825715Y-107174819D02*
X106825715Y-108174819D01*
X107301906Y-108174819D02*
X107301906Y-107174819D01*
X107873334Y-108174819D02*
X107444763Y-107603390D01*
X107873334Y-107174819D02*
X107301906Y-107746247D01*
X108301906Y-108174819D02*
X108301906Y-107174819D01*
X108301906Y-107174819D02*
X108540001Y-107174819D01*
X108540001Y-107174819D02*
X108682858Y-107222438D01*
X108682858Y-107222438D02*
X108778096Y-107317676D01*
X108778096Y-107317676D02*
X108825715Y-107412914D01*
X108825715Y-107412914D02*
X108873334Y-107603390D01*
X108873334Y-107603390D02*
X108873334Y-107746247D01*
X108873334Y-107746247D02*
X108825715Y-107936723D01*
X108825715Y-107936723D02*
X108778096Y-108031961D01*
X108778096Y-108031961D02*
X108682858Y-108127200D01*
X108682858Y-108127200D02*
X108540001Y-108174819D01*
X108540001Y-108174819D02*
X108301906Y-108174819D01*
X109254287Y-108127200D02*
X109397144Y-108174819D01*
X109397144Y-108174819D02*
X109635239Y-108174819D01*
X109635239Y-108174819D02*
X109730477Y-108127200D01*
X109730477Y-108127200D02*
X109778096Y-108079580D01*
X109778096Y-108079580D02*
X109825715Y-107984342D01*
X109825715Y-107984342D02*
X109825715Y-107889104D01*
X109825715Y-107889104D02*
X109778096Y-107793866D01*
X109778096Y-107793866D02*
X109730477Y-107746247D01*
X109730477Y-107746247D02*
X109635239Y-107698628D01*
X109635239Y-107698628D02*
X109444763Y-107651009D01*
X109444763Y-107651009D02*
X109349525Y-107603390D01*
X109349525Y-107603390D02*
X109301906Y-107555771D01*
X109301906Y-107555771D02*
X109254287Y-107460533D01*
X109254287Y-107460533D02*
X109254287Y-107365295D01*
X109254287Y-107365295D02*
X109301906Y-107270057D01*
X109301906Y-107270057D02*
X109349525Y-107222438D01*
X109349525Y-107222438D02*
X109444763Y-107174819D01*
X109444763Y-107174819D02*
X109682858Y-107174819D01*
X109682858Y-107174819D02*
X109825715Y-107222438D01*
X110254287Y-107793866D02*
X111016192Y-107793866D01*
X112016191Y-108174819D02*
X111444763Y-108174819D01*
X111730477Y-108174819D02*
X111730477Y-107174819D01*
X111730477Y-107174819D02*
X111635239Y-107317676D01*
X111635239Y-107317676D02*
X111540001Y-107412914D01*
X111540001Y-107412914D02*
X111444763Y-107460533D01*
X112492382Y-108127200D02*
X112492382Y-108174819D01*
X112492382Y-108174819D02*
X112444763Y-108270057D01*
X112444763Y-108270057D02*
X112397144Y-108317676D01*
X113397143Y-107174819D02*
X112920953Y-107174819D01*
X112920953Y-107174819D02*
X112873334Y-107651009D01*
X112873334Y-107651009D02*
X112920953Y-107603390D01*
X112920953Y-107603390D02*
X113016191Y-107555771D01*
X113016191Y-107555771D02*
X113254286Y-107555771D01*
X113254286Y-107555771D02*
X113349524Y-107603390D01*
X113349524Y-107603390D02*
X113397143Y-107651009D01*
X113397143Y-107651009D02*
X113444762Y-107746247D01*
X113444762Y-107746247D02*
X113444762Y-107984342D01*
X113444762Y-107984342D02*
X113397143Y-108079580D01*
X113397143Y-108079580D02*
X113349524Y-108127200D01*
X113349524Y-108127200D02*
X113254286Y-108174819D01*
X113254286Y-108174819D02*
X113016191Y-108174819D01*
X113016191Y-108174819D02*
X112920953Y-108127200D01*
X112920953Y-108127200D02*
X112873334Y-108079580D01*
X113873334Y-107793866D02*
X114635239Y-107793866D01*
X115063810Y-107270057D02*
X115111429Y-107222438D01*
X115111429Y-107222438D02*
X115206667Y-107174819D01*
X115206667Y-107174819D02*
X115444762Y-107174819D01*
X115444762Y-107174819D02*
X115540000Y-107222438D01*
X115540000Y-107222438D02*
X115587619Y-107270057D01*
X115587619Y-107270057D02*
X115635238Y-107365295D01*
X115635238Y-107365295D02*
X115635238Y-107460533D01*
X115635238Y-107460533D02*
X115587619Y-107603390D01*
X115587619Y-107603390D02*
X115016191Y-108174819D01*
X115016191Y-108174819D02*
X115635238Y-108174819D01*
X116063810Y-107793866D02*
X116825715Y-107793866D01*
X117778095Y-107174819D02*
X117301905Y-107174819D01*
X117301905Y-107174819D02*
X117254286Y-107651009D01*
X117254286Y-107651009D02*
X117301905Y-107603390D01*
X117301905Y-107603390D02*
X117397143Y-107555771D01*
X117397143Y-107555771D02*
X117635238Y-107555771D01*
X117635238Y-107555771D02*
X117730476Y-107603390D01*
X117730476Y-107603390D02*
X117778095Y-107651009D01*
X117778095Y-107651009D02*
X117825714Y-107746247D01*
X117825714Y-107746247D02*
X117825714Y-107984342D01*
X117825714Y-107984342D02*
X117778095Y-108079580D01*
X117778095Y-108079580D02*
X117730476Y-108127200D01*
X117730476Y-108127200D02*
X117635238Y-108174819D01*
X117635238Y-108174819D02*
X117397143Y-108174819D01*
X117397143Y-108174819D02*
X117301905Y-108127200D01*
X117301905Y-108127200D02*
X117254286Y-108079580D01*
X118254286Y-108079580D02*
X118301905Y-108127200D01*
X118301905Y-108127200D02*
X118254286Y-108174819D01*
X118254286Y-108174819D02*
X118206667Y-108127200D01*
X118206667Y-108127200D02*
X118254286Y-108079580D01*
X118254286Y-108079580D02*
X118254286Y-108174819D01*
X118920952Y-107174819D02*
X119016190Y-107174819D01*
X119016190Y-107174819D02*
X119111428Y-107222438D01*
X119111428Y-107222438D02*
X119159047Y-107270057D01*
X119159047Y-107270057D02*
X119206666Y-107365295D01*
X119206666Y-107365295D02*
X119254285Y-107555771D01*
X119254285Y-107555771D02*
X119254285Y-107793866D01*
X119254285Y-107793866D02*
X119206666Y-107984342D01*
X119206666Y-107984342D02*
X119159047Y-108079580D01*
X119159047Y-108079580D02*
X119111428Y-108127200D01*
X119111428Y-108127200D02*
X119016190Y-108174819D01*
X119016190Y-108174819D02*
X118920952Y-108174819D01*
X118920952Y-108174819D02*
X118825714Y-108127200D01*
X118825714Y-108127200D02*
X118778095Y-108079580D01*
X118778095Y-108079580D02*
X118730476Y-107984342D01*
X118730476Y-107984342D02*
X118682857Y-107793866D01*
X118682857Y-107793866D02*
X118682857Y-107555771D01*
X118682857Y-107555771D02*
X118730476Y-107365295D01*
X118730476Y-107365295D02*
X118778095Y-107270057D01*
X118778095Y-107270057D02*
X118825714Y-107222438D01*
X118825714Y-107222438D02*
X118920952Y-107174819D01*
X119825714Y-107603390D02*
X119730476Y-107555771D01*
X119730476Y-107555771D02*
X119682857Y-107508152D01*
X119682857Y-107508152D02*
X119635238Y-107412914D01*
X119635238Y-107412914D02*
X119635238Y-107365295D01*
X119635238Y-107365295D02*
X119682857Y-107270057D01*
X119682857Y-107270057D02*
X119730476Y-107222438D01*
X119730476Y-107222438D02*
X119825714Y-107174819D01*
X119825714Y-107174819D02*
X120016190Y-107174819D01*
X120016190Y-107174819D02*
X120111428Y-107222438D01*
X120111428Y-107222438D02*
X120159047Y-107270057D01*
X120159047Y-107270057D02*
X120206666Y-107365295D01*
X120206666Y-107365295D02*
X120206666Y-107412914D01*
X120206666Y-107412914D02*
X120159047Y-107508152D01*
X120159047Y-107508152D02*
X120111428Y-107555771D01*
X120111428Y-107555771D02*
X120016190Y-107603390D01*
X120016190Y-107603390D02*
X119825714Y-107603390D01*
X119825714Y-107603390D02*
X119730476Y-107651009D01*
X119730476Y-107651009D02*
X119682857Y-107698628D01*
X119682857Y-107698628D02*
X119635238Y-107793866D01*
X119635238Y-107793866D02*
X119635238Y-107984342D01*
X119635238Y-107984342D02*
X119682857Y-108079580D01*
X119682857Y-108079580D02*
X119730476Y-108127200D01*
X119730476Y-108127200D02*
X119825714Y-108174819D01*
X119825714Y-108174819D02*
X120016190Y-108174819D01*
X120016190Y-108174819D02*
X120111428Y-108127200D01*
X120111428Y-108127200D02*
X120159047Y-108079580D01*
X120159047Y-108079580D02*
X120206666Y-107984342D01*
X120206666Y-107984342D02*
X120206666Y-107793866D01*
X120206666Y-107793866D02*
X120159047Y-107698628D01*
X120159047Y-107698628D02*
X120111428Y-107651009D01*
X120111428Y-107651009D02*
X120016190Y-107603390D01*
X120397143Y-108270057D02*
X121159047Y-108270057D01*
X121920952Y-108174819D02*
X121349524Y-108174819D01*
X121635238Y-108174819D02*
X121635238Y-107174819D01*
X121635238Y-107174819D02*
X121540000Y-107317676D01*
X121540000Y-107317676D02*
X121444762Y-107412914D01*
X121444762Y-107412914D02*
X121349524Y-107460533D01*
X122254286Y-108174819D02*
X122778095Y-107508152D01*
X122254286Y-107508152D02*
X122778095Y-108174819D01*
X123349524Y-107174819D02*
X123444762Y-107174819D01*
X123444762Y-107174819D02*
X123540000Y-107222438D01*
X123540000Y-107222438D02*
X123587619Y-107270057D01*
X123587619Y-107270057D02*
X123635238Y-107365295D01*
X123635238Y-107365295D02*
X123682857Y-107555771D01*
X123682857Y-107555771D02*
X123682857Y-107793866D01*
X123682857Y-107793866D02*
X123635238Y-107984342D01*
X123635238Y-107984342D02*
X123587619Y-108079580D01*
X123587619Y-108079580D02*
X123540000Y-108127200D01*
X123540000Y-108127200D02*
X123444762Y-108174819D01*
X123444762Y-108174819D02*
X123349524Y-108174819D01*
X123349524Y-108174819D02*
X123254286Y-108127200D01*
X123254286Y-108127200D02*
X123206667Y-108079580D01*
X123206667Y-108079580D02*
X123159048Y-107984342D01*
X123159048Y-107984342D02*
X123111429Y-107793866D01*
X123111429Y-107793866D02*
X123111429Y-107555771D01*
X123111429Y-107555771D02*
X123159048Y-107365295D01*
X123159048Y-107365295D02*
X123206667Y-107270057D01*
X123206667Y-107270057D02*
X123254286Y-107222438D01*
X123254286Y-107222438D02*
X123349524Y-107174819D01*
X124063810Y-107270057D02*
X124111429Y-107222438D01*
X124111429Y-107222438D02*
X124206667Y-107174819D01*
X124206667Y-107174819D02*
X124444762Y-107174819D01*
X124444762Y-107174819D02*
X124540000Y-107222438D01*
X124540000Y-107222438D02*
X124587619Y-107270057D01*
X124587619Y-107270057D02*
X124635238Y-107365295D01*
X124635238Y-107365295D02*
X124635238Y-107460533D01*
X124635238Y-107460533D02*
X124587619Y-107603390D01*
X124587619Y-107603390D02*
X124016191Y-108174819D01*
X124016191Y-108174819D02*
X124635238Y-108174819D01*
X124825715Y-108270057D02*
X125587619Y-108270057D01*
X125825715Y-108174819D02*
X125825715Y-107174819D01*
X125825715Y-107174819D02*
X126206667Y-107174819D01*
X126206667Y-107174819D02*
X126301905Y-107222438D01*
X126301905Y-107222438D02*
X126349524Y-107270057D01*
X126349524Y-107270057D02*
X126397143Y-107365295D01*
X126397143Y-107365295D02*
X126397143Y-107508152D01*
X126397143Y-107508152D02*
X126349524Y-107603390D01*
X126349524Y-107603390D02*
X126301905Y-107651009D01*
X126301905Y-107651009D02*
X126206667Y-107698628D01*
X126206667Y-107698628D02*
X125825715Y-107698628D01*
X127301905Y-107174819D02*
X126825715Y-107174819D01*
X126825715Y-107174819D02*
X126778096Y-107651009D01*
X126778096Y-107651009D02*
X126825715Y-107603390D01*
X126825715Y-107603390D02*
X126920953Y-107555771D01*
X126920953Y-107555771D02*
X127159048Y-107555771D01*
X127159048Y-107555771D02*
X127254286Y-107603390D01*
X127254286Y-107603390D02*
X127301905Y-107651009D01*
X127301905Y-107651009D02*
X127349524Y-107746247D01*
X127349524Y-107746247D02*
X127349524Y-107984342D01*
X127349524Y-107984342D02*
X127301905Y-108079580D01*
X127301905Y-108079580D02*
X127254286Y-108127200D01*
X127254286Y-108127200D02*
X127159048Y-108174819D01*
X127159048Y-108174819D02*
X126920953Y-108174819D01*
X126920953Y-108174819D02*
X126825715Y-108127200D01*
X126825715Y-108127200D02*
X126778096Y-108079580D01*
X127778096Y-108079580D02*
X127825715Y-108127200D01*
X127825715Y-108127200D02*
X127778096Y-108174819D01*
X127778096Y-108174819D02*
X127730477Y-108127200D01*
X127730477Y-108127200D02*
X127778096Y-108079580D01*
X127778096Y-108079580D02*
X127778096Y-108174819D01*
X128444762Y-107174819D02*
X128540000Y-107174819D01*
X128540000Y-107174819D02*
X128635238Y-107222438D01*
X128635238Y-107222438D02*
X128682857Y-107270057D01*
X128682857Y-107270057D02*
X128730476Y-107365295D01*
X128730476Y-107365295D02*
X128778095Y-107555771D01*
X128778095Y-107555771D02*
X128778095Y-107793866D01*
X128778095Y-107793866D02*
X128730476Y-107984342D01*
X128730476Y-107984342D02*
X128682857Y-108079580D01*
X128682857Y-108079580D02*
X128635238Y-108127200D01*
X128635238Y-108127200D02*
X128540000Y-108174819D01*
X128540000Y-108174819D02*
X128444762Y-108174819D01*
X128444762Y-108174819D02*
X128349524Y-108127200D01*
X128349524Y-108127200D02*
X128301905Y-108079580D01*
X128301905Y-108079580D02*
X128254286Y-107984342D01*
X128254286Y-107984342D02*
X128206667Y-107793866D01*
X128206667Y-107793866D02*
X128206667Y-107555771D01*
X128206667Y-107555771D02*
X128254286Y-107365295D01*
X128254286Y-107365295D02*
X128301905Y-107270057D01*
X128301905Y-107270057D02*
X128349524Y-107222438D01*
X128349524Y-107222438D02*
X128444762Y-107174819D01*
X129349524Y-107603390D02*
X129254286Y-107555771D01*
X129254286Y-107555771D02*
X129206667Y-107508152D01*
X129206667Y-107508152D02*
X129159048Y-107412914D01*
X129159048Y-107412914D02*
X129159048Y-107365295D01*
X129159048Y-107365295D02*
X129206667Y-107270057D01*
X129206667Y-107270057D02*
X129254286Y-107222438D01*
X129254286Y-107222438D02*
X129349524Y-107174819D01*
X129349524Y-107174819D02*
X129540000Y-107174819D01*
X129540000Y-107174819D02*
X129635238Y-107222438D01*
X129635238Y-107222438D02*
X129682857Y-107270057D01*
X129682857Y-107270057D02*
X129730476Y-107365295D01*
X129730476Y-107365295D02*
X129730476Y-107412914D01*
X129730476Y-107412914D02*
X129682857Y-107508152D01*
X129682857Y-107508152D02*
X129635238Y-107555771D01*
X129635238Y-107555771D02*
X129540000Y-107603390D01*
X129540000Y-107603390D02*
X129349524Y-107603390D01*
X129349524Y-107603390D02*
X129254286Y-107651009D01*
X129254286Y-107651009D02*
X129206667Y-107698628D01*
X129206667Y-107698628D02*
X129159048Y-107793866D01*
X129159048Y-107793866D02*
X129159048Y-107984342D01*
X129159048Y-107984342D02*
X129206667Y-108079580D01*
X129206667Y-108079580D02*
X129254286Y-108127200D01*
X129254286Y-108127200D02*
X129349524Y-108174819D01*
X129349524Y-108174819D02*
X129540000Y-108174819D01*
X129540000Y-108174819D02*
X129635238Y-108127200D01*
X129635238Y-108127200D02*
X129682857Y-108079580D01*
X129682857Y-108079580D02*
X129730476Y-107984342D01*
X129730476Y-107984342D02*
X129730476Y-107793866D01*
X129730476Y-107793866D02*
X129682857Y-107698628D01*
X129682857Y-107698628D02*
X129635238Y-107651009D01*
X129635238Y-107651009D02*
X129540000Y-107603390D01*
X130159048Y-108174819D02*
X130159048Y-107508152D01*
X130159048Y-107603390D02*
X130206667Y-107555771D01*
X130206667Y-107555771D02*
X130301905Y-107508152D01*
X130301905Y-107508152D02*
X130444762Y-107508152D01*
X130444762Y-107508152D02*
X130540000Y-107555771D01*
X130540000Y-107555771D02*
X130587619Y-107651009D01*
X130587619Y-107651009D02*
X130587619Y-108174819D01*
X130587619Y-107651009D02*
X130635238Y-107555771D01*
X130635238Y-107555771D02*
X130730476Y-107508152D01*
X130730476Y-107508152D02*
X130873333Y-107508152D01*
X130873333Y-107508152D02*
X130968572Y-107555771D01*
X130968572Y-107555771D02*
X131016191Y-107651009D01*
X131016191Y-107651009D02*
X131016191Y-108174819D01*
X131492381Y-108174819D02*
X131492381Y-107508152D01*
X131492381Y-107603390D02*
X131540000Y-107555771D01*
X131540000Y-107555771D02*
X131635238Y-107508152D01*
X131635238Y-107508152D02*
X131778095Y-107508152D01*
X131778095Y-107508152D02*
X131873333Y-107555771D01*
X131873333Y-107555771D02*
X131920952Y-107651009D01*
X131920952Y-107651009D02*
X131920952Y-108174819D01*
X131920952Y-107651009D02*
X131968571Y-107555771D01*
X131968571Y-107555771D02*
X132063809Y-107508152D01*
X132063809Y-107508152D02*
X132206666Y-107508152D01*
X132206666Y-107508152D02*
X132301905Y-107555771D01*
X132301905Y-107555771D02*
X132349524Y-107651009D01*
X132349524Y-107651009D02*
X132349524Y-108174819D01*
X132587619Y-108270057D02*
X133349523Y-108270057D01*
X133587619Y-108174819D02*
X133587619Y-107174819D01*
X133587619Y-107651009D02*
X134159047Y-107651009D01*
X134159047Y-108174819D02*
X134159047Y-107174819D01*
X134778095Y-108174819D02*
X134682857Y-108127200D01*
X134682857Y-108127200D02*
X134635238Y-108079580D01*
X134635238Y-108079580D02*
X134587619Y-107984342D01*
X134587619Y-107984342D02*
X134587619Y-107698628D01*
X134587619Y-107698628D02*
X134635238Y-107603390D01*
X134635238Y-107603390D02*
X134682857Y-107555771D01*
X134682857Y-107555771D02*
X134778095Y-107508152D01*
X134778095Y-107508152D02*
X134920952Y-107508152D01*
X134920952Y-107508152D02*
X135016190Y-107555771D01*
X135016190Y-107555771D02*
X135063809Y-107603390D01*
X135063809Y-107603390D02*
X135111428Y-107698628D01*
X135111428Y-107698628D02*
X135111428Y-107984342D01*
X135111428Y-107984342D02*
X135063809Y-108079580D01*
X135063809Y-108079580D02*
X135016190Y-108127200D01*
X135016190Y-108127200D02*
X134920952Y-108174819D01*
X134920952Y-108174819D02*
X134778095Y-108174819D01*
X135540000Y-108174819D02*
X135540000Y-107508152D01*
X135540000Y-107698628D02*
X135587619Y-107603390D01*
X135587619Y-107603390D02*
X135635238Y-107555771D01*
X135635238Y-107555771D02*
X135730476Y-107508152D01*
X135730476Y-107508152D02*
X135825714Y-107508152D01*
X136159048Y-108174819D02*
X136159048Y-107508152D01*
X136159048Y-107174819D02*
X136111429Y-107222438D01*
X136111429Y-107222438D02*
X136159048Y-107270057D01*
X136159048Y-107270057D02*
X136206667Y-107222438D01*
X136206667Y-107222438D02*
X136159048Y-107174819D01*
X136159048Y-107174819D02*
X136159048Y-107270057D01*
X136540000Y-107508152D02*
X137063809Y-107508152D01*
X137063809Y-107508152D02*
X136540000Y-108174819D01*
X136540000Y-108174819D02*
X137063809Y-108174819D01*
X137587619Y-108174819D02*
X137492381Y-108127200D01*
X137492381Y-108127200D02*
X137444762Y-108079580D01*
X137444762Y-108079580D02*
X137397143Y-107984342D01*
X137397143Y-107984342D02*
X137397143Y-107698628D01*
X137397143Y-107698628D02*
X137444762Y-107603390D01*
X137444762Y-107603390D02*
X137492381Y-107555771D01*
X137492381Y-107555771D02*
X137587619Y-107508152D01*
X137587619Y-107508152D02*
X137730476Y-107508152D01*
X137730476Y-107508152D02*
X137825714Y-107555771D01*
X137825714Y-107555771D02*
X137873333Y-107603390D01*
X137873333Y-107603390D02*
X137920952Y-107698628D01*
X137920952Y-107698628D02*
X137920952Y-107984342D01*
X137920952Y-107984342D02*
X137873333Y-108079580D01*
X137873333Y-108079580D02*
X137825714Y-108127200D01*
X137825714Y-108127200D02*
X137730476Y-108174819D01*
X137730476Y-108174819D02*
X137587619Y-108174819D01*
X138349524Y-107508152D02*
X138349524Y-108174819D01*
X138349524Y-107603390D02*
X138397143Y-107555771D01*
X138397143Y-107555771D02*
X138492381Y-107508152D01*
X138492381Y-107508152D02*
X138635238Y-107508152D01*
X138635238Y-107508152D02*
X138730476Y-107555771D01*
X138730476Y-107555771D02*
X138778095Y-107651009D01*
X138778095Y-107651009D02*
X138778095Y-108174819D01*
X139111429Y-107508152D02*
X139492381Y-107508152D01*
X139254286Y-107174819D02*
X139254286Y-108031961D01*
X139254286Y-108031961D02*
X139301905Y-108127200D01*
X139301905Y-108127200D02*
X139397143Y-108174819D01*
X139397143Y-108174819D02*
X139492381Y-108174819D01*
X140254286Y-108174819D02*
X140254286Y-107651009D01*
X140254286Y-107651009D02*
X140206667Y-107555771D01*
X140206667Y-107555771D02*
X140111429Y-107508152D01*
X140111429Y-107508152D02*
X139920953Y-107508152D01*
X139920953Y-107508152D02*
X139825715Y-107555771D01*
X140254286Y-108127200D02*
X140159048Y-108174819D01*
X140159048Y-108174819D02*
X139920953Y-108174819D01*
X139920953Y-108174819D02*
X139825715Y-108127200D01*
X139825715Y-108127200D02*
X139778096Y-108031961D01*
X139778096Y-108031961D02*
X139778096Y-107936723D01*
X139778096Y-107936723D02*
X139825715Y-107841485D01*
X139825715Y-107841485D02*
X139920953Y-107793866D01*
X139920953Y-107793866D02*
X140159048Y-107793866D01*
X140159048Y-107793866D02*
X140254286Y-107746247D01*
X140873334Y-108174819D02*
X140778096Y-108127200D01*
X140778096Y-108127200D02*
X140730477Y-108031961D01*
X140730477Y-108031961D02*
X140730477Y-107174819D01*
X114206666Y-104654819D02*
X114206666Y-105369104D01*
X114206666Y-105369104D02*
X114159047Y-105511961D01*
X114159047Y-105511961D02*
X114063809Y-105607200D01*
X114063809Y-105607200D02*
X113920952Y-105654819D01*
X113920952Y-105654819D02*
X113825714Y-105654819D01*
X115206666Y-105654819D02*
X114635238Y-105654819D01*
X114920952Y-105654819D02*
X114920952Y-104654819D01*
X114920952Y-104654819D02*
X114825714Y-104797676D01*
X114825714Y-104797676D02*
X114730476Y-104892914D01*
X114730476Y-104892914D02*
X114635238Y-104940533D01*
X105119047Y-93839819D02*
X105119047Y-92839819D01*
X105119047Y-92839819D02*
X105452380Y-93554104D01*
X105452380Y-93554104D02*
X105785713Y-92839819D01*
X105785713Y-92839819D02*
X105785713Y-93839819D01*
X106261904Y-93839819D02*
X106261904Y-92839819D01*
X106261904Y-92839819D02*
X106642856Y-92839819D01*
X106642856Y-92839819D02*
X106738094Y-92887438D01*
X106738094Y-92887438D02*
X106785713Y-92935057D01*
X106785713Y-92935057D02*
X106833332Y-93030295D01*
X106833332Y-93030295D02*
X106833332Y-93173152D01*
X106833332Y-93173152D02*
X106785713Y-93268390D01*
X106785713Y-93268390D02*
X106738094Y-93316009D01*
X106738094Y-93316009D02*
X106642856Y-93363628D01*
X106642856Y-93363628D02*
X106261904Y-93363628D01*
X107785713Y-93839819D02*
X107214285Y-93839819D01*
X107499999Y-93839819D02*
X107499999Y-92839819D01*
X107499999Y-92839819D02*
X107404761Y-92982676D01*
X107404761Y-92982676D02*
X107309523Y-93077914D01*
X107309523Y-93077914D02*
X107214285Y-93125533D01*
X108690475Y-92839819D02*
X108214285Y-92839819D01*
X108214285Y-92839819D02*
X108166666Y-93316009D01*
X108166666Y-93316009D02*
X108214285Y-93268390D01*
X108214285Y-93268390D02*
X108309523Y-93220771D01*
X108309523Y-93220771D02*
X108547618Y-93220771D01*
X108547618Y-93220771D02*
X108642856Y-93268390D01*
X108642856Y-93268390D02*
X108690475Y-93316009D01*
X108690475Y-93316009D02*
X108738094Y-93411247D01*
X108738094Y-93411247D02*
X108738094Y-93649342D01*
X108738094Y-93649342D02*
X108690475Y-93744580D01*
X108690475Y-93744580D02*
X108642856Y-93792200D01*
X108642856Y-93792200D02*
X108547618Y-93839819D01*
X108547618Y-93839819D02*
X108309523Y-93839819D01*
X108309523Y-93839819D02*
X108214285Y-93792200D01*
X108214285Y-93792200D02*
X108166666Y-93744580D01*
X109309523Y-93268390D02*
X109214285Y-93220771D01*
X109214285Y-93220771D02*
X109166666Y-93173152D01*
X109166666Y-93173152D02*
X109119047Y-93077914D01*
X109119047Y-93077914D02*
X109119047Y-93030295D01*
X109119047Y-93030295D02*
X109166666Y-92935057D01*
X109166666Y-92935057D02*
X109214285Y-92887438D01*
X109214285Y-92887438D02*
X109309523Y-92839819D01*
X109309523Y-92839819D02*
X109499999Y-92839819D01*
X109499999Y-92839819D02*
X109595237Y-92887438D01*
X109595237Y-92887438D02*
X109642856Y-92935057D01*
X109642856Y-92935057D02*
X109690475Y-93030295D01*
X109690475Y-93030295D02*
X109690475Y-93077914D01*
X109690475Y-93077914D02*
X109642856Y-93173152D01*
X109642856Y-93173152D02*
X109595237Y-93220771D01*
X109595237Y-93220771D02*
X109499999Y-93268390D01*
X109499999Y-93268390D02*
X109309523Y-93268390D01*
X109309523Y-93268390D02*
X109214285Y-93316009D01*
X109214285Y-93316009D02*
X109166666Y-93363628D01*
X109166666Y-93363628D02*
X109119047Y-93458866D01*
X109119047Y-93458866D02*
X109119047Y-93649342D01*
X109119047Y-93649342D02*
X109166666Y-93744580D01*
X109166666Y-93744580D02*
X109214285Y-93792200D01*
X109214285Y-93792200D02*
X109309523Y-93839819D01*
X109309523Y-93839819D02*
X109499999Y-93839819D01*
X109499999Y-93839819D02*
X109595237Y-93792200D01*
X109595237Y-93792200D02*
X109642856Y-93744580D01*
X109642856Y-93744580D02*
X109690475Y-93649342D01*
X109690475Y-93649342D02*
X109690475Y-93458866D01*
X109690475Y-93458866D02*
X109642856Y-93363628D01*
X109642856Y-93363628D02*
X109595237Y-93316009D01*
X109595237Y-93316009D02*
X109499999Y-93268390D01*
X110547618Y-93173152D02*
X110547618Y-93839819D01*
X110309523Y-92792200D02*
X110071428Y-93506485D01*
X110071428Y-93506485D02*
X110690475Y-93506485D01*
X111071428Y-93316009D02*
X111404761Y-93316009D01*
X111547618Y-93839819D02*
X111071428Y-93839819D01*
X111071428Y-93839819D02*
X111071428Y-92839819D01*
X111071428Y-92839819D02*
X111547618Y-92839819D01*
X111976190Y-93839819D02*
X111976190Y-92839819D01*
X111976190Y-92839819D02*
X112547618Y-93839819D01*
X112547618Y-93839819D02*
X112547618Y-92839819D01*
X112785714Y-93935057D02*
X113547618Y-93935057D01*
X114119047Y-93316009D02*
X114261904Y-93363628D01*
X114261904Y-93363628D02*
X114309523Y-93411247D01*
X114309523Y-93411247D02*
X114357142Y-93506485D01*
X114357142Y-93506485D02*
X114357142Y-93649342D01*
X114357142Y-93649342D02*
X114309523Y-93744580D01*
X114309523Y-93744580D02*
X114261904Y-93792200D01*
X114261904Y-93792200D02*
X114166666Y-93839819D01*
X114166666Y-93839819D02*
X113785714Y-93839819D01*
X113785714Y-93839819D02*
X113785714Y-92839819D01*
X113785714Y-92839819D02*
X114119047Y-92839819D01*
X114119047Y-92839819D02*
X114214285Y-92887438D01*
X114214285Y-92887438D02*
X114261904Y-92935057D01*
X114261904Y-92935057D02*
X114309523Y-93030295D01*
X114309523Y-93030295D02*
X114309523Y-93125533D01*
X114309523Y-93125533D02*
X114261904Y-93220771D01*
X114261904Y-93220771D02*
X114214285Y-93268390D01*
X114214285Y-93268390D02*
X114119047Y-93316009D01*
X114119047Y-93316009D02*
X113785714Y-93316009D01*
X115214285Y-93173152D02*
X115214285Y-93839819D01*
X114785714Y-93173152D02*
X114785714Y-93696961D01*
X114785714Y-93696961D02*
X114833333Y-93792200D01*
X114833333Y-93792200D02*
X114928571Y-93839819D01*
X114928571Y-93839819D02*
X115071428Y-93839819D01*
X115071428Y-93839819D02*
X115166666Y-93792200D01*
X115166666Y-93792200D02*
X115214285Y-93744580D01*
X116119047Y-93792200D02*
X116023809Y-93839819D01*
X116023809Y-93839819D02*
X115833333Y-93839819D01*
X115833333Y-93839819D02*
X115738095Y-93792200D01*
X115738095Y-93792200D02*
X115690476Y-93744580D01*
X115690476Y-93744580D02*
X115642857Y-93649342D01*
X115642857Y-93649342D02*
X115642857Y-93363628D01*
X115642857Y-93363628D02*
X115690476Y-93268390D01*
X115690476Y-93268390D02*
X115738095Y-93220771D01*
X115738095Y-93220771D02*
X115833333Y-93173152D01*
X115833333Y-93173152D02*
X116023809Y-93173152D01*
X116023809Y-93173152D02*
X116119047Y-93220771D01*
X116547619Y-93839819D02*
X116547619Y-92839819D01*
X116642857Y-93458866D02*
X116928571Y-93839819D01*
X116928571Y-93173152D02*
X116547619Y-93554104D01*
X117119048Y-93935057D02*
X117880952Y-93935057D01*
X118119048Y-93839819D02*
X118119048Y-92839819D01*
X118119048Y-92839819D02*
X118452381Y-93554104D01*
X118452381Y-93554104D02*
X118785714Y-92839819D01*
X118785714Y-92839819D02*
X118785714Y-93839819D01*
X119404762Y-93839819D02*
X119309524Y-93792200D01*
X119309524Y-93792200D02*
X119261905Y-93744580D01*
X119261905Y-93744580D02*
X119214286Y-93649342D01*
X119214286Y-93649342D02*
X119214286Y-93363628D01*
X119214286Y-93363628D02*
X119261905Y-93268390D01*
X119261905Y-93268390D02*
X119309524Y-93220771D01*
X119309524Y-93220771D02*
X119404762Y-93173152D01*
X119404762Y-93173152D02*
X119547619Y-93173152D01*
X119547619Y-93173152D02*
X119642857Y-93220771D01*
X119642857Y-93220771D02*
X119690476Y-93268390D01*
X119690476Y-93268390D02*
X119738095Y-93363628D01*
X119738095Y-93363628D02*
X119738095Y-93649342D01*
X119738095Y-93649342D02*
X119690476Y-93744580D01*
X119690476Y-93744580D02*
X119642857Y-93792200D01*
X119642857Y-93792200D02*
X119547619Y-93839819D01*
X119547619Y-93839819D02*
X119404762Y-93839819D01*
X120595238Y-93839819D02*
X120595238Y-92839819D01*
X120595238Y-93792200D02*
X120500000Y-93839819D01*
X120500000Y-93839819D02*
X120309524Y-93839819D01*
X120309524Y-93839819D02*
X120214286Y-93792200D01*
X120214286Y-93792200D02*
X120166667Y-93744580D01*
X120166667Y-93744580D02*
X120119048Y-93649342D01*
X120119048Y-93649342D02*
X120119048Y-93363628D01*
X120119048Y-93363628D02*
X120166667Y-93268390D01*
X120166667Y-93268390D02*
X120214286Y-93220771D01*
X120214286Y-93220771D02*
X120309524Y-93173152D01*
X120309524Y-93173152D02*
X120500000Y-93173152D01*
X120500000Y-93173152D02*
X120595238Y-93220771D01*
X121500000Y-93173152D02*
X121500000Y-93839819D01*
X121071429Y-93173152D02*
X121071429Y-93696961D01*
X121071429Y-93696961D02*
X121119048Y-93792200D01*
X121119048Y-93792200D02*
X121214286Y-93839819D01*
X121214286Y-93839819D02*
X121357143Y-93839819D01*
X121357143Y-93839819D02*
X121452381Y-93792200D01*
X121452381Y-93792200D02*
X121500000Y-93744580D01*
X122119048Y-93839819D02*
X122023810Y-93792200D01*
X122023810Y-93792200D02*
X121976191Y-93696961D01*
X121976191Y-93696961D02*
X121976191Y-92839819D01*
X122880953Y-93792200D02*
X122785715Y-93839819D01*
X122785715Y-93839819D02*
X122595239Y-93839819D01*
X122595239Y-93839819D02*
X122500001Y-93792200D01*
X122500001Y-93792200D02*
X122452382Y-93696961D01*
X122452382Y-93696961D02*
X122452382Y-93316009D01*
X122452382Y-93316009D02*
X122500001Y-93220771D01*
X122500001Y-93220771D02*
X122595239Y-93173152D01*
X122595239Y-93173152D02*
X122785715Y-93173152D01*
X122785715Y-93173152D02*
X122880953Y-93220771D01*
X122880953Y-93220771D02*
X122928572Y-93316009D01*
X122928572Y-93316009D02*
X122928572Y-93411247D01*
X122928572Y-93411247D02*
X122452382Y-93506485D01*
D10*
X158922141Y-100879271D02*
X158922141Y-99609271D01*
X158922141Y-99609271D02*
X159345475Y-100516414D01*
X159345475Y-100516414D02*
X159768808Y-99609271D01*
X159768808Y-99609271D02*
X159768808Y-100879271D01*
X160554999Y-100879271D02*
X160434047Y-100818795D01*
X160434047Y-100818795D02*
X160373570Y-100758318D01*
X160373570Y-100758318D02*
X160313094Y-100637366D01*
X160313094Y-100637366D02*
X160313094Y-100274509D01*
X160313094Y-100274509D02*
X160373570Y-100153556D01*
X160373570Y-100153556D02*
X160434047Y-100093080D01*
X160434047Y-100093080D02*
X160554999Y-100032604D01*
X160554999Y-100032604D02*
X160736428Y-100032604D01*
X160736428Y-100032604D02*
X160857380Y-100093080D01*
X160857380Y-100093080D02*
X160917856Y-100153556D01*
X160917856Y-100153556D02*
X160978332Y-100274509D01*
X160978332Y-100274509D02*
X160978332Y-100637366D01*
X160978332Y-100637366D02*
X160917856Y-100758318D01*
X160917856Y-100758318D02*
X160857380Y-100818795D01*
X160857380Y-100818795D02*
X160736428Y-100879271D01*
X160736428Y-100879271D02*
X160554999Y-100879271D01*
X162066904Y-100032604D02*
X162066904Y-100879271D01*
X161522618Y-100032604D02*
X161522618Y-100697842D01*
X161522618Y-100697842D02*
X161583095Y-100818795D01*
X161583095Y-100818795D02*
X161704047Y-100879271D01*
X161704047Y-100879271D02*
X161885476Y-100879271D01*
X161885476Y-100879271D02*
X162006428Y-100818795D01*
X162006428Y-100818795D02*
X162066904Y-100758318D01*
X162671666Y-100032604D02*
X162671666Y-100879271D01*
X162671666Y-100153556D02*
X162732143Y-100093080D01*
X162732143Y-100093080D02*
X162853095Y-100032604D01*
X162853095Y-100032604D02*
X163034524Y-100032604D01*
X163034524Y-100032604D02*
X163155476Y-100093080D01*
X163155476Y-100093080D02*
X163215952Y-100214033D01*
X163215952Y-100214033D02*
X163215952Y-100879271D01*
X163639286Y-100032604D02*
X164123095Y-100032604D01*
X163820714Y-99609271D02*
X163820714Y-100697842D01*
X163820714Y-100697842D02*
X163881191Y-100818795D01*
X163881191Y-100818795D02*
X164002143Y-100879271D01*
X164002143Y-100879271D02*
X164123095Y-100879271D01*
X164546428Y-100879271D02*
X164546428Y-100032604D01*
X164546428Y-99609271D02*
X164485952Y-99669747D01*
X164485952Y-99669747D02*
X164546428Y-99730223D01*
X164546428Y-99730223D02*
X164606905Y-99669747D01*
X164606905Y-99669747D02*
X164546428Y-99609271D01*
X164546428Y-99609271D02*
X164546428Y-99730223D01*
X165151190Y-100032604D02*
X165151190Y-100879271D01*
X165151190Y-100153556D02*
X165211667Y-100093080D01*
X165211667Y-100093080D02*
X165332619Y-100032604D01*
X165332619Y-100032604D02*
X165514048Y-100032604D01*
X165514048Y-100032604D02*
X165635000Y-100093080D01*
X165635000Y-100093080D02*
X165695476Y-100214033D01*
X165695476Y-100214033D02*
X165695476Y-100879271D01*
X166844524Y-100032604D02*
X166844524Y-101060699D01*
X166844524Y-101060699D02*
X166784048Y-101181652D01*
X166784048Y-101181652D02*
X166723572Y-101242128D01*
X166723572Y-101242128D02*
X166602619Y-101302604D01*
X166602619Y-101302604D02*
X166421191Y-101302604D01*
X166421191Y-101302604D02*
X166300238Y-101242128D01*
X166844524Y-100818795D02*
X166723572Y-100879271D01*
X166723572Y-100879271D02*
X166481667Y-100879271D01*
X166481667Y-100879271D02*
X166360715Y-100818795D01*
X166360715Y-100818795D02*
X166300238Y-100758318D01*
X166300238Y-100758318D02*
X166239762Y-100637366D01*
X166239762Y-100637366D02*
X166239762Y-100274509D01*
X166239762Y-100274509D02*
X166300238Y-100153556D01*
X166300238Y-100153556D02*
X166360715Y-100093080D01*
X166360715Y-100093080D02*
X166481667Y-100032604D01*
X166481667Y-100032604D02*
X166723572Y-100032604D01*
X166723572Y-100032604D02*
X166844524Y-100093080D01*
X167449286Y-100879271D02*
X167449286Y-99609271D01*
X167449286Y-100214033D02*
X168175001Y-100214033D01*
X168175001Y-100879271D02*
X168175001Y-99609271D01*
X168961191Y-100879271D02*
X168840239Y-100818795D01*
X168840239Y-100818795D02*
X168779762Y-100758318D01*
X168779762Y-100758318D02*
X168719286Y-100637366D01*
X168719286Y-100637366D02*
X168719286Y-100274509D01*
X168719286Y-100274509D02*
X168779762Y-100153556D01*
X168779762Y-100153556D02*
X168840239Y-100093080D01*
X168840239Y-100093080D02*
X168961191Y-100032604D01*
X168961191Y-100032604D02*
X169142620Y-100032604D01*
X169142620Y-100032604D02*
X169263572Y-100093080D01*
X169263572Y-100093080D02*
X169324048Y-100153556D01*
X169324048Y-100153556D02*
X169384524Y-100274509D01*
X169384524Y-100274509D02*
X169384524Y-100637366D01*
X169384524Y-100637366D02*
X169324048Y-100758318D01*
X169324048Y-100758318D02*
X169263572Y-100818795D01*
X169263572Y-100818795D02*
X169142620Y-100879271D01*
X169142620Y-100879271D02*
X168961191Y-100879271D01*
X170110239Y-100879271D02*
X169989287Y-100818795D01*
X169989287Y-100818795D02*
X169928810Y-100697842D01*
X169928810Y-100697842D02*
X169928810Y-99609271D01*
X171077858Y-100818795D02*
X170956906Y-100879271D01*
X170956906Y-100879271D02*
X170715001Y-100879271D01*
X170715001Y-100879271D02*
X170594048Y-100818795D01*
X170594048Y-100818795D02*
X170533572Y-100697842D01*
X170533572Y-100697842D02*
X170533572Y-100214033D01*
X170533572Y-100214033D02*
X170594048Y-100093080D01*
X170594048Y-100093080D02*
X170715001Y-100032604D01*
X170715001Y-100032604D02*
X170956906Y-100032604D01*
X170956906Y-100032604D02*
X171077858Y-100093080D01*
X171077858Y-100093080D02*
X171138334Y-100214033D01*
X171138334Y-100214033D02*
X171138334Y-100334985D01*
X171138334Y-100334985D02*
X170533572Y-100455937D01*
D11*
X136976189Y-98624819D02*
X136642856Y-98148628D01*
X136404761Y-98624819D02*
X136404761Y-97624819D01*
X136404761Y-97624819D02*
X136785713Y-97624819D01*
X136785713Y-97624819D02*
X136880951Y-97672438D01*
X136880951Y-97672438D02*
X136928570Y-97720057D01*
X136928570Y-97720057D02*
X136976189Y-97815295D01*
X136976189Y-97815295D02*
X136976189Y-97958152D01*
X136976189Y-97958152D02*
X136928570Y-98053390D01*
X136928570Y-98053390D02*
X136880951Y-98101009D01*
X136880951Y-98101009D02*
X136785713Y-98148628D01*
X136785713Y-98148628D02*
X136404761Y-98148628D01*
X137166666Y-98720057D02*
X137928570Y-98720057D01*
X138357142Y-97624819D02*
X138452380Y-97624819D01*
X138452380Y-97624819D02*
X138547618Y-97672438D01*
X138547618Y-97672438D02*
X138595237Y-97720057D01*
X138595237Y-97720057D02*
X138642856Y-97815295D01*
X138642856Y-97815295D02*
X138690475Y-98005771D01*
X138690475Y-98005771D02*
X138690475Y-98243866D01*
X138690475Y-98243866D02*
X138642856Y-98434342D01*
X138642856Y-98434342D02*
X138595237Y-98529580D01*
X138595237Y-98529580D02*
X138547618Y-98577200D01*
X138547618Y-98577200D02*
X138452380Y-98624819D01*
X138452380Y-98624819D02*
X138357142Y-98624819D01*
X138357142Y-98624819D02*
X138261904Y-98577200D01*
X138261904Y-98577200D02*
X138214285Y-98529580D01*
X138214285Y-98529580D02*
X138166666Y-98434342D01*
X138166666Y-98434342D02*
X138119047Y-98243866D01*
X138119047Y-98243866D02*
X138119047Y-98005771D01*
X138119047Y-98005771D02*
X138166666Y-97815295D01*
X138166666Y-97815295D02*
X138214285Y-97720057D01*
X138214285Y-97720057D02*
X138261904Y-97672438D01*
X138261904Y-97672438D02*
X138357142Y-97624819D01*
X139547618Y-97958152D02*
X139547618Y-98624819D01*
X139309523Y-97577200D02*
X139071428Y-98291485D01*
X139071428Y-98291485D02*
X139690475Y-98291485D01*
X140261904Y-97624819D02*
X140357142Y-97624819D01*
X140357142Y-97624819D02*
X140452380Y-97672438D01*
X140452380Y-97672438D02*
X140499999Y-97720057D01*
X140499999Y-97720057D02*
X140547618Y-97815295D01*
X140547618Y-97815295D02*
X140595237Y-98005771D01*
X140595237Y-98005771D02*
X140595237Y-98243866D01*
X140595237Y-98243866D02*
X140547618Y-98434342D01*
X140547618Y-98434342D02*
X140499999Y-98529580D01*
X140499999Y-98529580D02*
X140452380Y-98577200D01*
X140452380Y-98577200D02*
X140357142Y-98624819D01*
X140357142Y-98624819D02*
X140261904Y-98624819D01*
X140261904Y-98624819D02*
X140166666Y-98577200D01*
X140166666Y-98577200D02*
X140119047Y-98529580D01*
X140119047Y-98529580D02*
X140071428Y-98434342D01*
X140071428Y-98434342D02*
X140023809Y-98243866D01*
X140023809Y-98243866D02*
X140023809Y-98005771D01*
X140023809Y-98005771D02*
X140071428Y-97815295D01*
X140071428Y-97815295D02*
X140119047Y-97720057D01*
X140119047Y-97720057D02*
X140166666Y-97672438D01*
X140166666Y-97672438D02*
X140261904Y-97624819D01*
X140976190Y-97720057D02*
X141023809Y-97672438D01*
X141023809Y-97672438D02*
X141119047Y-97624819D01*
X141119047Y-97624819D02*
X141357142Y-97624819D01*
X141357142Y-97624819D02*
X141452380Y-97672438D01*
X141452380Y-97672438D02*
X141499999Y-97720057D01*
X141499999Y-97720057D02*
X141547618Y-97815295D01*
X141547618Y-97815295D02*
X141547618Y-97910533D01*
X141547618Y-97910533D02*
X141499999Y-98053390D01*
X141499999Y-98053390D02*
X140928571Y-98624819D01*
X140928571Y-98624819D02*
X141547618Y-98624819D01*
X141738095Y-98720057D02*
X142499999Y-98720057D01*
X143261904Y-98624819D02*
X142690476Y-98624819D01*
X142976190Y-98624819D02*
X142976190Y-97624819D01*
X142976190Y-97624819D02*
X142880952Y-97767676D01*
X142880952Y-97767676D02*
X142785714Y-97862914D01*
X142785714Y-97862914D02*
X142690476Y-97910533D01*
X143880952Y-97624819D02*
X143976190Y-97624819D01*
X143976190Y-97624819D02*
X144071428Y-97672438D01*
X144071428Y-97672438D02*
X144119047Y-97720057D01*
X144119047Y-97720057D02*
X144166666Y-97815295D01*
X144166666Y-97815295D02*
X144214285Y-98005771D01*
X144214285Y-98005771D02*
X144214285Y-98243866D01*
X144214285Y-98243866D02*
X144166666Y-98434342D01*
X144166666Y-98434342D02*
X144119047Y-98529580D01*
X144119047Y-98529580D02*
X144071428Y-98577200D01*
X144071428Y-98577200D02*
X143976190Y-98624819D01*
X143976190Y-98624819D02*
X143880952Y-98624819D01*
X143880952Y-98624819D02*
X143785714Y-98577200D01*
X143785714Y-98577200D02*
X143738095Y-98529580D01*
X143738095Y-98529580D02*
X143690476Y-98434342D01*
X143690476Y-98434342D02*
X143642857Y-98243866D01*
X143642857Y-98243866D02*
X143642857Y-98005771D01*
X143642857Y-98005771D02*
X143690476Y-97815295D01*
X143690476Y-97815295D02*
X143738095Y-97720057D01*
X143738095Y-97720057D02*
X143785714Y-97672438D01*
X143785714Y-97672438D02*
X143880952Y-97624819D01*
X144833333Y-97624819D02*
X144928571Y-97624819D01*
X144928571Y-97624819D02*
X145023809Y-97672438D01*
X145023809Y-97672438D02*
X145071428Y-97720057D01*
X145071428Y-97720057D02*
X145119047Y-97815295D01*
X145119047Y-97815295D02*
X145166666Y-98005771D01*
X145166666Y-98005771D02*
X145166666Y-98243866D01*
X145166666Y-98243866D02*
X145119047Y-98434342D01*
X145119047Y-98434342D02*
X145071428Y-98529580D01*
X145071428Y-98529580D02*
X145023809Y-98577200D01*
X145023809Y-98577200D02*
X144928571Y-98624819D01*
X144928571Y-98624819D02*
X144833333Y-98624819D01*
X144833333Y-98624819D02*
X144738095Y-98577200D01*
X144738095Y-98577200D02*
X144690476Y-98529580D01*
X144690476Y-98529580D02*
X144642857Y-98434342D01*
X144642857Y-98434342D02*
X144595238Y-98243866D01*
X144595238Y-98243866D02*
X144595238Y-98005771D01*
X144595238Y-98005771D02*
X144642857Y-97815295D01*
X144642857Y-97815295D02*
X144690476Y-97720057D01*
X144690476Y-97720057D02*
X144738095Y-97672438D01*
X144738095Y-97672438D02*
X144833333Y-97624819D01*
X146071428Y-97624819D02*
X145595238Y-97624819D01*
X145595238Y-97624819D02*
X145547619Y-98101009D01*
X145547619Y-98101009D02*
X145595238Y-98053390D01*
X145595238Y-98053390D02*
X145690476Y-98005771D01*
X145690476Y-98005771D02*
X145928571Y-98005771D01*
X145928571Y-98005771D02*
X146023809Y-98053390D01*
X146023809Y-98053390D02*
X146071428Y-98101009D01*
X146071428Y-98101009D02*
X146119047Y-98196247D01*
X146119047Y-98196247D02*
X146119047Y-98434342D01*
X146119047Y-98434342D02*
X146071428Y-98529580D01*
X146071428Y-98529580D02*
X146023809Y-98577200D01*
X146023809Y-98577200D02*
X145928571Y-98624819D01*
X145928571Y-98624819D02*
X145690476Y-98624819D01*
X145690476Y-98624819D02*
X145595238Y-98577200D01*
X145595238Y-98577200D02*
X145547619Y-98529580D01*
X146547619Y-98624819D02*
X146547619Y-97624819D01*
X146547619Y-97624819D02*
X146880952Y-98339104D01*
X146880952Y-98339104D02*
X147214285Y-97624819D01*
X147214285Y-97624819D02*
X147214285Y-98624819D01*
X148071428Y-98577200D02*
X147976190Y-98624819D01*
X147976190Y-98624819D02*
X147785714Y-98624819D01*
X147785714Y-98624819D02*
X147690476Y-98577200D01*
X147690476Y-98577200D02*
X147642857Y-98481961D01*
X147642857Y-98481961D02*
X147642857Y-98101009D01*
X147642857Y-98101009D02*
X147690476Y-98005771D01*
X147690476Y-98005771D02*
X147785714Y-97958152D01*
X147785714Y-97958152D02*
X147976190Y-97958152D01*
X147976190Y-97958152D02*
X148071428Y-98005771D01*
X148071428Y-98005771D02*
X148119047Y-98101009D01*
X148119047Y-98101009D02*
X148119047Y-98196247D01*
X148119047Y-98196247D02*
X147642857Y-98291485D01*
X148404762Y-97958152D02*
X148785714Y-97958152D01*
X148547619Y-97624819D02*
X148547619Y-98481961D01*
X148547619Y-98481961D02*
X148595238Y-98577200D01*
X148595238Y-98577200D02*
X148690476Y-98624819D01*
X148690476Y-98624819D02*
X148785714Y-98624819D01*
X149119048Y-98624819D02*
X149119048Y-97958152D01*
X149119048Y-98148628D02*
X149166667Y-98053390D01*
X149166667Y-98053390D02*
X149214286Y-98005771D01*
X149214286Y-98005771D02*
X149309524Y-97958152D01*
X149309524Y-97958152D02*
X149404762Y-97958152D01*
X149738096Y-98624819D02*
X149738096Y-97958152D01*
X149738096Y-97624819D02*
X149690477Y-97672438D01*
X149690477Y-97672438D02*
X149738096Y-97720057D01*
X149738096Y-97720057D02*
X149785715Y-97672438D01*
X149785715Y-97672438D02*
X149738096Y-97624819D01*
X149738096Y-97624819D02*
X149738096Y-97720057D01*
X150642857Y-98577200D02*
X150547619Y-98624819D01*
X150547619Y-98624819D02*
X150357143Y-98624819D01*
X150357143Y-98624819D02*
X150261905Y-98577200D01*
X150261905Y-98577200D02*
X150214286Y-98529580D01*
X150214286Y-98529580D02*
X150166667Y-98434342D01*
X150166667Y-98434342D02*
X150166667Y-98148628D01*
X150166667Y-98148628D02*
X150214286Y-98053390D01*
X150214286Y-98053390D02*
X150261905Y-98005771D01*
X150261905Y-98005771D02*
X150357143Y-97958152D01*
X150357143Y-97958152D02*
X150547619Y-97958152D01*
X150547619Y-97958152D02*
X150642857Y-98005771D01*
X150833334Y-98720057D02*
X151595238Y-98720057D01*
X151833334Y-98624819D02*
X151833334Y-97624819D01*
X151833334Y-97624819D02*
X152214286Y-97624819D01*
X152214286Y-97624819D02*
X152309524Y-97672438D01*
X152309524Y-97672438D02*
X152357143Y-97720057D01*
X152357143Y-97720057D02*
X152404762Y-97815295D01*
X152404762Y-97815295D02*
X152404762Y-97958152D01*
X152404762Y-97958152D02*
X152357143Y-98053390D01*
X152357143Y-98053390D02*
X152309524Y-98101009D01*
X152309524Y-98101009D02*
X152214286Y-98148628D01*
X152214286Y-98148628D02*
X151833334Y-98148628D01*
X153261905Y-98624819D02*
X153261905Y-98101009D01*
X153261905Y-98101009D02*
X153214286Y-98005771D01*
X153214286Y-98005771D02*
X153119048Y-97958152D01*
X153119048Y-97958152D02*
X152928572Y-97958152D01*
X152928572Y-97958152D02*
X152833334Y-98005771D01*
X153261905Y-98577200D02*
X153166667Y-98624819D01*
X153166667Y-98624819D02*
X152928572Y-98624819D01*
X152928572Y-98624819D02*
X152833334Y-98577200D01*
X152833334Y-98577200D02*
X152785715Y-98481961D01*
X152785715Y-98481961D02*
X152785715Y-98386723D01*
X152785715Y-98386723D02*
X152833334Y-98291485D01*
X152833334Y-98291485D02*
X152928572Y-98243866D01*
X152928572Y-98243866D02*
X153166667Y-98243866D01*
X153166667Y-98243866D02*
X153261905Y-98196247D01*
X154166667Y-98624819D02*
X154166667Y-97624819D01*
X154166667Y-98577200D02*
X154071429Y-98624819D01*
X154071429Y-98624819D02*
X153880953Y-98624819D01*
X153880953Y-98624819D02*
X153785715Y-98577200D01*
X153785715Y-98577200D02*
X153738096Y-98529580D01*
X153738096Y-98529580D02*
X153690477Y-98434342D01*
X153690477Y-98434342D02*
X153690477Y-98148628D01*
X153690477Y-98148628D02*
X153738096Y-98053390D01*
X153738096Y-98053390D02*
X153785715Y-98005771D01*
X153785715Y-98005771D02*
X153880953Y-97958152D01*
X153880953Y-97958152D02*
X154071429Y-97958152D01*
X154071429Y-97958152D02*
X154166667Y-98005771D01*
X154833334Y-97624819D02*
X154928572Y-97624819D01*
X154928572Y-97624819D02*
X155023810Y-97672438D01*
X155023810Y-97672438D02*
X155071429Y-97720057D01*
X155071429Y-97720057D02*
X155119048Y-97815295D01*
X155119048Y-97815295D02*
X155166667Y-98005771D01*
X155166667Y-98005771D02*
X155166667Y-98243866D01*
X155166667Y-98243866D02*
X155119048Y-98434342D01*
X155119048Y-98434342D02*
X155071429Y-98529580D01*
X155071429Y-98529580D02*
X155023810Y-98577200D01*
X155023810Y-98577200D02*
X154928572Y-98624819D01*
X154928572Y-98624819D02*
X154833334Y-98624819D01*
X154833334Y-98624819D02*
X154738096Y-98577200D01*
X154738096Y-98577200D02*
X154690477Y-98529580D01*
X154690477Y-98529580D02*
X154642858Y-98434342D01*
X154642858Y-98434342D02*
X154595239Y-98243866D01*
X154595239Y-98243866D02*
X154595239Y-98005771D01*
X154595239Y-98005771D02*
X154642858Y-97815295D01*
X154642858Y-97815295D02*
X154690477Y-97720057D01*
X154690477Y-97720057D02*
X154738096Y-97672438D01*
X154738096Y-97672438D02*
X154833334Y-97624819D01*
X155595239Y-98529580D02*
X155642858Y-98577200D01*
X155642858Y-98577200D02*
X155595239Y-98624819D01*
X155595239Y-98624819D02*
X155547620Y-98577200D01*
X155547620Y-98577200D02*
X155595239Y-98529580D01*
X155595239Y-98529580D02*
X155595239Y-98624819D01*
X155976191Y-97624819D02*
X156642857Y-97624819D01*
X156642857Y-97624819D02*
X156214286Y-98624819D01*
X156976191Y-97720057D02*
X157023810Y-97672438D01*
X157023810Y-97672438D02*
X157119048Y-97624819D01*
X157119048Y-97624819D02*
X157357143Y-97624819D01*
X157357143Y-97624819D02*
X157452381Y-97672438D01*
X157452381Y-97672438D02*
X157500000Y-97720057D01*
X157500000Y-97720057D02*
X157547619Y-97815295D01*
X157547619Y-97815295D02*
X157547619Y-97910533D01*
X157547619Y-97910533D02*
X157500000Y-98053390D01*
X157500000Y-98053390D02*
X156928572Y-98624819D01*
X156928572Y-98624819D02*
X157547619Y-98624819D01*
X157880953Y-98624819D02*
X158404762Y-97958152D01*
X157880953Y-97958152D02*
X158404762Y-98624819D01*
X158976191Y-97624819D02*
X159071429Y-97624819D01*
X159071429Y-97624819D02*
X159166667Y-97672438D01*
X159166667Y-97672438D02*
X159214286Y-97720057D01*
X159214286Y-97720057D02*
X159261905Y-97815295D01*
X159261905Y-97815295D02*
X159309524Y-98005771D01*
X159309524Y-98005771D02*
X159309524Y-98243866D01*
X159309524Y-98243866D02*
X159261905Y-98434342D01*
X159261905Y-98434342D02*
X159214286Y-98529580D01*
X159214286Y-98529580D02*
X159166667Y-98577200D01*
X159166667Y-98577200D02*
X159071429Y-98624819D01*
X159071429Y-98624819D02*
X158976191Y-98624819D01*
X158976191Y-98624819D02*
X158880953Y-98577200D01*
X158880953Y-98577200D02*
X158833334Y-98529580D01*
X158833334Y-98529580D02*
X158785715Y-98434342D01*
X158785715Y-98434342D02*
X158738096Y-98243866D01*
X158738096Y-98243866D02*
X158738096Y-98005771D01*
X158738096Y-98005771D02*
X158785715Y-97815295D01*
X158785715Y-97815295D02*
X158833334Y-97720057D01*
X158833334Y-97720057D02*
X158880953Y-97672438D01*
X158880953Y-97672438D02*
X158976191Y-97624819D01*
X159738096Y-98529580D02*
X159785715Y-98577200D01*
X159785715Y-98577200D02*
X159738096Y-98624819D01*
X159738096Y-98624819D02*
X159690477Y-98577200D01*
X159690477Y-98577200D02*
X159738096Y-98529580D01*
X159738096Y-98529580D02*
X159738096Y-98624819D01*
X160642857Y-97624819D02*
X160452381Y-97624819D01*
X160452381Y-97624819D02*
X160357143Y-97672438D01*
X160357143Y-97672438D02*
X160309524Y-97720057D01*
X160309524Y-97720057D02*
X160214286Y-97862914D01*
X160214286Y-97862914D02*
X160166667Y-98053390D01*
X160166667Y-98053390D02*
X160166667Y-98434342D01*
X160166667Y-98434342D02*
X160214286Y-98529580D01*
X160214286Y-98529580D02*
X160261905Y-98577200D01*
X160261905Y-98577200D02*
X160357143Y-98624819D01*
X160357143Y-98624819D02*
X160547619Y-98624819D01*
X160547619Y-98624819D02*
X160642857Y-98577200D01*
X160642857Y-98577200D02*
X160690476Y-98529580D01*
X160690476Y-98529580D02*
X160738095Y-98434342D01*
X160738095Y-98434342D02*
X160738095Y-98196247D01*
X160738095Y-98196247D02*
X160690476Y-98101009D01*
X160690476Y-98101009D02*
X160642857Y-98053390D01*
X160642857Y-98053390D02*
X160547619Y-98005771D01*
X160547619Y-98005771D02*
X160357143Y-98005771D01*
X160357143Y-98005771D02*
X160261905Y-98053390D01*
X160261905Y-98053390D02*
X160214286Y-98101009D01*
X160214286Y-98101009D02*
X160166667Y-98196247D01*
X161595238Y-97958152D02*
X161595238Y-98624819D01*
X161357143Y-97577200D02*
X161119048Y-98291485D01*
X161119048Y-98291485D02*
X161738095Y-98291485D01*
X162119048Y-98624819D02*
X162119048Y-97958152D01*
X162119048Y-98053390D02*
X162166667Y-98005771D01*
X162166667Y-98005771D02*
X162261905Y-97958152D01*
X162261905Y-97958152D02*
X162404762Y-97958152D01*
X162404762Y-97958152D02*
X162500000Y-98005771D01*
X162500000Y-98005771D02*
X162547619Y-98101009D01*
X162547619Y-98101009D02*
X162547619Y-98624819D01*
X162547619Y-98101009D02*
X162595238Y-98005771D01*
X162595238Y-98005771D02*
X162690476Y-97958152D01*
X162690476Y-97958152D02*
X162833333Y-97958152D01*
X162833333Y-97958152D02*
X162928572Y-98005771D01*
X162928572Y-98005771D02*
X162976191Y-98101009D01*
X162976191Y-98101009D02*
X162976191Y-98624819D01*
X163452381Y-98624819D02*
X163452381Y-97958152D01*
X163452381Y-98053390D02*
X163500000Y-98005771D01*
X163500000Y-98005771D02*
X163595238Y-97958152D01*
X163595238Y-97958152D02*
X163738095Y-97958152D01*
X163738095Y-97958152D02*
X163833333Y-98005771D01*
X163833333Y-98005771D02*
X163880952Y-98101009D01*
X163880952Y-98101009D02*
X163880952Y-98624819D01*
X163880952Y-98101009D02*
X163928571Y-98005771D01*
X163928571Y-98005771D02*
X164023809Y-97958152D01*
X164023809Y-97958152D02*
X164166666Y-97958152D01*
X164166666Y-97958152D02*
X164261905Y-98005771D01*
X164261905Y-98005771D02*
X164309524Y-98101009D01*
X164309524Y-98101009D02*
X164309524Y-98624819D01*
X164547619Y-98720057D02*
X165309523Y-98720057D01*
X165547619Y-98624819D02*
X165547619Y-97624819D01*
X165547619Y-98101009D02*
X166119047Y-98101009D01*
X166119047Y-98624819D02*
X166119047Y-97624819D01*
X167023809Y-98624819D02*
X167023809Y-98101009D01*
X167023809Y-98101009D02*
X166976190Y-98005771D01*
X166976190Y-98005771D02*
X166880952Y-97958152D01*
X166880952Y-97958152D02*
X166690476Y-97958152D01*
X166690476Y-97958152D02*
X166595238Y-98005771D01*
X167023809Y-98577200D02*
X166928571Y-98624819D01*
X166928571Y-98624819D02*
X166690476Y-98624819D01*
X166690476Y-98624819D02*
X166595238Y-98577200D01*
X166595238Y-98577200D02*
X166547619Y-98481961D01*
X166547619Y-98481961D02*
X166547619Y-98386723D01*
X166547619Y-98386723D02*
X166595238Y-98291485D01*
X166595238Y-98291485D02*
X166690476Y-98243866D01*
X166690476Y-98243866D02*
X166928571Y-98243866D01*
X166928571Y-98243866D02*
X167023809Y-98196247D01*
X167500000Y-97958152D02*
X167500000Y-98624819D01*
X167500000Y-98053390D02*
X167547619Y-98005771D01*
X167547619Y-98005771D02*
X167642857Y-97958152D01*
X167642857Y-97958152D02*
X167785714Y-97958152D01*
X167785714Y-97958152D02*
X167880952Y-98005771D01*
X167880952Y-98005771D02*
X167928571Y-98101009D01*
X167928571Y-98101009D02*
X167928571Y-98624819D01*
X168833333Y-98624819D02*
X168833333Y-97624819D01*
X168833333Y-98577200D02*
X168738095Y-98624819D01*
X168738095Y-98624819D02*
X168547619Y-98624819D01*
X168547619Y-98624819D02*
X168452381Y-98577200D01*
X168452381Y-98577200D02*
X168404762Y-98529580D01*
X168404762Y-98529580D02*
X168357143Y-98434342D01*
X168357143Y-98434342D02*
X168357143Y-98148628D01*
X168357143Y-98148628D02*
X168404762Y-98053390D01*
X168404762Y-98053390D02*
X168452381Y-98005771D01*
X168452381Y-98005771D02*
X168547619Y-97958152D01*
X168547619Y-97958152D02*
X168738095Y-97958152D01*
X168738095Y-97958152D02*
X168833333Y-98005771D01*
X169261905Y-98577200D02*
X169404762Y-98624819D01*
X169404762Y-98624819D02*
X169642857Y-98624819D01*
X169642857Y-98624819D02*
X169738095Y-98577200D01*
X169738095Y-98577200D02*
X169785714Y-98529580D01*
X169785714Y-98529580D02*
X169833333Y-98434342D01*
X169833333Y-98434342D02*
X169833333Y-98339104D01*
X169833333Y-98339104D02*
X169785714Y-98243866D01*
X169785714Y-98243866D02*
X169738095Y-98196247D01*
X169738095Y-98196247D02*
X169642857Y-98148628D01*
X169642857Y-98148628D02*
X169452381Y-98101009D01*
X169452381Y-98101009D02*
X169357143Y-98053390D01*
X169357143Y-98053390D02*
X169309524Y-98005771D01*
X169309524Y-98005771D02*
X169261905Y-97910533D01*
X169261905Y-97910533D02*
X169261905Y-97815295D01*
X169261905Y-97815295D02*
X169309524Y-97720057D01*
X169309524Y-97720057D02*
X169357143Y-97672438D01*
X169357143Y-97672438D02*
X169452381Y-97624819D01*
X169452381Y-97624819D02*
X169690476Y-97624819D01*
X169690476Y-97624819D02*
X169833333Y-97672438D01*
X170404762Y-98624819D02*
X170309524Y-98577200D01*
X170309524Y-98577200D02*
X170261905Y-98529580D01*
X170261905Y-98529580D02*
X170214286Y-98434342D01*
X170214286Y-98434342D02*
X170214286Y-98148628D01*
X170214286Y-98148628D02*
X170261905Y-98053390D01*
X170261905Y-98053390D02*
X170309524Y-98005771D01*
X170309524Y-98005771D02*
X170404762Y-97958152D01*
X170404762Y-97958152D02*
X170547619Y-97958152D01*
X170547619Y-97958152D02*
X170642857Y-98005771D01*
X170642857Y-98005771D02*
X170690476Y-98053390D01*
X170690476Y-98053390D02*
X170738095Y-98148628D01*
X170738095Y-98148628D02*
X170738095Y-98434342D01*
X170738095Y-98434342D02*
X170690476Y-98529580D01*
X170690476Y-98529580D02*
X170642857Y-98577200D01*
X170642857Y-98577200D02*
X170547619Y-98624819D01*
X170547619Y-98624819D02*
X170404762Y-98624819D01*
X171309524Y-98624819D02*
X171214286Y-98577200D01*
X171214286Y-98577200D02*
X171166667Y-98481961D01*
X171166667Y-98481961D02*
X171166667Y-97624819D01*
X172119048Y-98624819D02*
X172119048Y-97624819D01*
X172119048Y-98577200D02*
X172023810Y-98624819D01*
X172023810Y-98624819D02*
X171833334Y-98624819D01*
X171833334Y-98624819D02*
X171738096Y-98577200D01*
X171738096Y-98577200D02*
X171690477Y-98529580D01*
X171690477Y-98529580D02*
X171642858Y-98434342D01*
X171642858Y-98434342D02*
X171642858Y-98148628D01*
X171642858Y-98148628D02*
X171690477Y-98053390D01*
X171690477Y-98053390D02*
X171738096Y-98005771D01*
X171738096Y-98005771D02*
X171833334Y-97958152D01*
X171833334Y-97958152D02*
X172023810Y-97958152D01*
X172023810Y-97958152D02*
X172119048Y-98005771D01*
X172976191Y-98577200D02*
X172880953Y-98624819D01*
X172880953Y-98624819D02*
X172690477Y-98624819D01*
X172690477Y-98624819D02*
X172595239Y-98577200D01*
X172595239Y-98577200D02*
X172547620Y-98481961D01*
X172547620Y-98481961D02*
X172547620Y-98101009D01*
X172547620Y-98101009D02*
X172595239Y-98005771D01*
X172595239Y-98005771D02*
X172690477Y-97958152D01*
X172690477Y-97958152D02*
X172880953Y-97958152D01*
X172880953Y-97958152D02*
X172976191Y-98005771D01*
X172976191Y-98005771D02*
X173023810Y-98101009D01*
X173023810Y-98101009D02*
X173023810Y-98196247D01*
X173023810Y-98196247D02*
X172547620Y-98291485D01*
X173452382Y-98624819D02*
X173452382Y-97958152D01*
X173452382Y-98148628D02*
X173500001Y-98053390D01*
X173500001Y-98053390D02*
X173547620Y-98005771D01*
X173547620Y-98005771D02*
X173642858Y-97958152D01*
X173642858Y-97958152D02*
X173738096Y-97958152D01*
D12*
X154956667Y-97118200D02*
X154870000Y-96994391D01*
X154808095Y-97118200D02*
X154808095Y-96858200D01*
X154808095Y-96858200D02*
X154907143Y-96858200D01*
X154907143Y-96858200D02*
X154931905Y-96870581D01*
X154931905Y-96870581D02*
X154944286Y-96882962D01*
X154944286Y-96882962D02*
X154956667Y-96907724D01*
X154956667Y-96907724D02*
X154956667Y-96944867D01*
X154956667Y-96944867D02*
X154944286Y-96969629D01*
X154944286Y-96969629D02*
X154931905Y-96982010D01*
X154931905Y-96982010D02*
X154907143Y-96994391D01*
X154907143Y-96994391D02*
X154808095Y-96994391D01*
X155055714Y-96882962D02*
X155068095Y-96870581D01*
X155068095Y-96870581D02*
X155092857Y-96858200D01*
X155092857Y-96858200D02*
X155154762Y-96858200D01*
X155154762Y-96858200D02*
X155179524Y-96870581D01*
X155179524Y-96870581D02*
X155191905Y-96882962D01*
X155191905Y-96882962D02*
X155204286Y-96907724D01*
X155204286Y-96907724D02*
X155204286Y-96932486D01*
X155204286Y-96932486D02*
X155191905Y-96969629D01*
X155191905Y-96969629D02*
X155043333Y-97118200D01*
X155043333Y-97118200D02*
X155204286Y-97118200D01*
D10*
X98922141Y-50879271D02*
X98922141Y-49609271D01*
X98922141Y-49609271D02*
X99345475Y-50516414D01*
X99345475Y-50516414D02*
X99768808Y-49609271D01*
X99768808Y-49609271D02*
X99768808Y-50879271D01*
X100554999Y-50879271D02*
X100434047Y-50818795D01*
X100434047Y-50818795D02*
X100373570Y-50758318D01*
X100373570Y-50758318D02*
X100313094Y-50637366D01*
X100313094Y-50637366D02*
X100313094Y-50274509D01*
X100313094Y-50274509D02*
X100373570Y-50153556D01*
X100373570Y-50153556D02*
X100434047Y-50093080D01*
X100434047Y-50093080D02*
X100554999Y-50032604D01*
X100554999Y-50032604D02*
X100736428Y-50032604D01*
X100736428Y-50032604D02*
X100857380Y-50093080D01*
X100857380Y-50093080D02*
X100917856Y-50153556D01*
X100917856Y-50153556D02*
X100978332Y-50274509D01*
X100978332Y-50274509D02*
X100978332Y-50637366D01*
X100978332Y-50637366D02*
X100917856Y-50758318D01*
X100917856Y-50758318D02*
X100857380Y-50818795D01*
X100857380Y-50818795D02*
X100736428Y-50879271D01*
X100736428Y-50879271D02*
X100554999Y-50879271D01*
X102066904Y-50032604D02*
X102066904Y-50879271D01*
X101522618Y-50032604D02*
X101522618Y-50697842D01*
X101522618Y-50697842D02*
X101583095Y-50818795D01*
X101583095Y-50818795D02*
X101704047Y-50879271D01*
X101704047Y-50879271D02*
X101885476Y-50879271D01*
X101885476Y-50879271D02*
X102006428Y-50818795D01*
X102006428Y-50818795D02*
X102066904Y-50758318D01*
X102671666Y-50032604D02*
X102671666Y-50879271D01*
X102671666Y-50153556D02*
X102732143Y-50093080D01*
X102732143Y-50093080D02*
X102853095Y-50032604D01*
X102853095Y-50032604D02*
X103034524Y-50032604D01*
X103034524Y-50032604D02*
X103155476Y-50093080D01*
X103155476Y-50093080D02*
X103215952Y-50214033D01*
X103215952Y-50214033D02*
X103215952Y-50879271D01*
X103639286Y-50032604D02*
X104123095Y-50032604D01*
X103820714Y-49609271D02*
X103820714Y-50697842D01*
X103820714Y-50697842D02*
X103881191Y-50818795D01*
X103881191Y-50818795D02*
X104002143Y-50879271D01*
X104002143Y-50879271D02*
X104123095Y-50879271D01*
X104546428Y-50879271D02*
X104546428Y-50032604D01*
X104546428Y-49609271D02*
X104485952Y-49669747D01*
X104485952Y-49669747D02*
X104546428Y-49730223D01*
X104546428Y-49730223D02*
X104606905Y-49669747D01*
X104606905Y-49669747D02*
X104546428Y-49609271D01*
X104546428Y-49609271D02*
X104546428Y-49730223D01*
X105151190Y-50032604D02*
X105151190Y-50879271D01*
X105151190Y-50153556D02*
X105211667Y-50093080D01*
X105211667Y-50093080D02*
X105332619Y-50032604D01*
X105332619Y-50032604D02*
X105514048Y-50032604D01*
X105514048Y-50032604D02*
X105635000Y-50093080D01*
X105635000Y-50093080D02*
X105695476Y-50214033D01*
X105695476Y-50214033D02*
X105695476Y-50879271D01*
X106844524Y-50032604D02*
X106844524Y-51060699D01*
X106844524Y-51060699D02*
X106784048Y-51181652D01*
X106784048Y-51181652D02*
X106723572Y-51242128D01*
X106723572Y-51242128D02*
X106602619Y-51302604D01*
X106602619Y-51302604D02*
X106421191Y-51302604D01*
X106421191Y-51302604D02*
X106300238Y-51242128D01*
X106844524Y-50818795D02*
X106723572Y-50879271D01*
X106723572Y-50879271D02*
X106481667Y-50879271D01*
X106481667Y-50879271D02*
X106360715Y-50818795D01*
X106360715Y-50818795D02*
X106300238Y-50758318D01*
X106300238Y-50758318D02*
X106239762Y-50637366D01*
X106239762Y-50637366D02*
X106239762Y-50274509D01*
X106239762Y-50274509D02*
X106300238Y-50153556D01*
X106300238Y-50153556D02*
X106360715Y-50093080D01*
X106360715Y-50093080D02*
X106481667Y-50032604D01*
X106481667Y-50032604D02*
X106723572Y-50032604D01*
X106723572Y-50032604D02*
X106844524Y-50093080D01*
X107449286Y-50879271D02*
X107449286Y-49609271D01*
X107449286Y-50214033D02*
X108175001Y-50214033D01*
X108175001Y-50879271D02*
X108175001Y-49609271D01*
X108961191Y-50879271D02*
X108840239Y-50818795D01*
X108840239Y-50818795D02*
X108779762Y-50758318D01*
X108779762Y-50758318D02*
X108719286Y-50637366D01*
X108719286Y-50637366D02*
X108719286Y-50274509D01*
X108719286Y-50274509D02*
X108779762Y-50153556D01*
X108779762Y-50153556D02*
X108840239Y-50093080D01*
X108840239Y-50093080D02*
X108961191Y-50032604D01*
X108961191Y-50032604D02*
X109142620Y-50032604D01*
X109142620Y-50032604D02*
X109263572Y-50093080D01*
X109263572Y-50093080D02*
X109324048Y-50153556D01*
X109324048Y-50153556D02*
X109384524Y-50274509D01*
X109384524Y-50274509D02*
X109384524Y-50637366D01*
X109384524Y-50637366D02*
X109324048Y-50758318D01*
X109324048Y-50758318D02*
X109263572Y-50818795D01*
X109263572Y-50818795D02*
X109142620Y-50879271D01*
X109142620Y-50879271D02*
X108961191Y-50879271D01*
X110110239Y-50879271D02*
X109989287Y-50818795D01*
X109989287Y-50818795D02*
X109928810Y-50697842D01*
X109928810Y-50697842D02*
X109928810Y-49609271D01*
X111077858Y-50818795D02*
X110956906Y-50879271D01*
X110956906Y-50879271D02*
X110715001Y-50879271D01*
X110715001Y-50879271D02*
X110594048Y-50818795D01*
X110594048Y-50818795D02*
X110533572Y-50697842D01*
X110533572Y-50697842D02*
X110533572Y-50214033D01*
X110533572Y-50214033D02*
X110594048Y-50093080D01*
X110594048Y-50093080D02*
X110715001Y-50032604D01*
X110715001Y-50032604D02*
X110956906Y-50032604D01*
X110956906Y-50032604D02*
X111077858Y-50093080D01*
X111077858Y-50093080D02*
X111138334Y-50214033D01*
X111138334Y-50214033D02*
X111138334Y-50334985D01*
X111138334Y-50334985D02*
X110533572Y-50455937D01*
D11*
X135412857Y-53814819D02*
X135650952Y-54814819D01*
X135650952Y-54814819D02*
X135841428Y-54100533D01*
X135841428Y-54100533D02*
X136031904Y-54814819D01*
X136031904Y-54814819D02*
X136270000Y-53814819D01*
X136650952Y-54291009D02*
X136984285Y-54291009D01*
X137127142Y-54814819D02*
X136650952Y-54814819D01*
X136650952Y-54814819D02*
X136650952Y-53814819D01*
X136650952Y-53814819D02*
X137127142Y-53814819D01*
X137555714Y-54814819D02*
X137555714Y-53814819D01*
X137555714Y-53814819D02*
X137889047Y-54529104D01*
X137889047Y-54529104D02*
X138222380Y-53814819D01*
X138222380Y-53814819D02*
X138222380Y-54814819D01*
X138889047Y-53814819D02*
X139079523Y-53814819D01*
X139079523Y-53814819D02*
X139174761Y-53862438D01*
X139174761Y-53862438D02*
X139269999Y-53957676D01*
X139269999Y-53957676D02*
X139317618Y-54148152D01*
X139317618Y-54148152D02*
X139317618Y-54481485D01*
X139317618Y-54481485D02*
X139269999Y-54671961D01*
X139269999Y-54671961D02*
X139174761Y-54767200D01*
X139174761Y-54767200D02*
X139079523Y-54814819D01*
X139079523Y-54814819D02*
X138889047Y-54814819D01*
X138889047Y-54814819D02*
X138793809Y-54767200D01*
X138793809Y-54767200D02*
X138698571Y-54671961D01*
X138698571Y-54671961D02*
X138650952Y-54481485D01*
X138650952Y-54481485D02*
X138650952Y-54148152D01*
X138650952Y-54148152D02*
X138698571Y-53957676D01*
X138698571Y-53957676D02*
X138793809Y-53862438D01*
X138793809Y-53862438D02*
X138889047Y-53814819D01*
X139698571Y-54767200D02*
X139841428Y-54814819D01*
X139841428Y-54814819D02*
X140079523Y-54814819D01*
X140079523Y-54814819D02*
X140174761Y-54767200D01*
X140174761Y-54767200D02*
X140222380Y-54719580D01*
X140222380Y-54719580D02*
X140269999Y-54624342D01*
X140269999Y-54624342D02*
X140269999Y-54529104D01*
X140269999Y-54529104D02*
X140222380Y-54433866D01*
X140222380Y-54433866D02*
X140174761Y-54386247D01*
X140174761Y-54386247D02*
X140079523Y-54338628D01*
X140079523Y-54338628D02*
X139889047Y-54291009D01*
X139889047Y-54291009D02*
X139793809Y-54243390D01*
X139793809Y-54243390D02*
X139746190Y-54195771D01*
X139746190Y-54195771D02*
X139698571Y-54100533D01*
X139698571Y-54100533D02*
X139698571Y-54005295D01*
X139698571Y-54005295D02*
X139746190Y-53910057D01*
X139746190Y-53910057D02*
X139793809Y-53862438D01*
X139793809Y-53862438D02*
X139889047Y-53814819D01*
X139889047Y-53814819D02*
X140127142Y-53814819D01*
X140127142Y-53814819D02*
X140269999Y-53862438D01*
X140460476Y-54910057D02*
X141222380Y-54910057D01*
X141460476Y-54814819D02*
X141460476Y-53814819D01*
X141460476Y-53814819D02*
X141698571Y-53814819D01*
X141698571Y-53814819D02*
X141841428Y-53862438D01*
X141841428Y-53862438D02*
X141936666Y-53957676D01*
X141936666Y-53957676D02*
X141984285Y-54052914D01*
X141984285Y-54052914D02*
X142031904Y-54243390D01*
X142031904Y-54243390D02*
X142031904Y-54386247D01*
X142031904Y-54386247D02*
X141984285Y-54576723D01*
X141984285Y-54576723D02*
X141936666Y-54671961D01*
X141936666Y-54671961D02*
X141841428Y-54767200D01*
X141841428Y-54767200D02*
X141698571Y-54814819D01*
X141698571Y-54814819D02*
X141460476Y-54814819D01*
X142984285Y-54814819D02*
X142412857Y-54814819D01*
X142698571Y-54814819D02*
X142698571Y-53814819D01*
X142698571Y-53814819D02*
X142603333Y-53957676D01*
X142603333Y-53957676D02*
X142508095Y-54052914D01*
X142508095Y-54052914D02*
X142412857Y-54100533D01*
X143174762Y-54910057D02*
X143936666Y-54910057D01*
X144174762Y-54814819D02*
X144174762Y-54148152D01*
X144174762Y-54243390D02*
X144222381Y-54195771D01*
X144222381Y-54195771D02*
X144317619Y-54148152D01*
X144317619Y-54148152D02*
X144460476Y-54148152D01*
X144460476Y-54148152D02*
X144555714Y-54195771D01*
X144555714Y-54195771D02*
X144603333Y-54291009D01*
X144603333Y-54291009D02*
X144603333Y-54814819D01*
X144603333Y-54291009D02*
X144650952Y-54195771D01*
X144650952Y-54195771D02*
X144746190Y-54148152D01*
X144746190Y-54148152D02*
X144889047Y-54148152D01*
X144889047Y-54148152D02*
X144984286Y-54195771D01*
X144984286Y-54195771D02*
X145031905Y-54291009D01*
X145031905Y-54291009D02*
X145031905Y-54814819D01*
X145508095Y-54814819D02*
X145508095Y-54148152D01*
X145508095Y-53814819D02*
X145460476Y-53862438D01*
X145460476Y-53862438D02*
X145508095Y-53910057D01*
X145508095Y-53910057D02*
X145555714Y-53862438D01*
X145555714Y-53862438D02*
X145508095Y-53814819D01*
X145508095Y-53814819D02*
X145508095Y-53910057D01*
X145984285Y-54148152D02*
X145984285Y-54814819D01*
X145984285Y-54243390D02*
X146031904Y-54195771D01*
X146031904Y-54195771D02*
X146127142Y-54148152D01*
X146127142Y-54148152D02*
X146269999Y-54148152D01*
X146269999Y-54148152D02*
X146365237Y-54195771D01*
X146365237Y-54195771D02*
X146412856Y-54291009D01*
X146412856Y-54291009D02*
X146412856Y-54814819D01*
X146889047Y-54814819D02*
X146889047Y-54148152D01*
X146889047Y-53814819D02*
X146841428Y-53862438D01*
X146841428Y-53862438D02*
X146889047Y-53910057D01*
X146889047Y-53910057D02*
X146936666Y-53862438D01*
X146936666Y-53862438D02*
X146889047Y-53814819D01*
X146889047Y-53814819D02*
X146889047Y-53910057D01*
X147127142Y-54910057D02*
X147889046Y-54910057D01*
X148269999Y-54814819D02*
X148174761Y-54767200D01*
X148174761Y-54767200D02*
X148127142Y-54671961D01*
X148127142Y-54671961D02*
X148127142Y-53814819D01*
X148650952Y-54814819D02*
X148650952Y-54148152D01*
X148650952Y-53814819D02*
X148603333Y-53862438D01*
X148603333Y-53862438D02*
X148650952Y-53910057D01*
X148650952Y-53910057D02*
X148698571Y-53862438D01*
X148698571Y-53862438D02*
X148650952Y-53814819D01*
X148650952Y-53814819D02*
X148650952Y-53910057D01*
X149555713Y-54148152D02*
X149555713Y-54957676D01*
X149555713Y-54957676D02*
X149508094Y-55052914D01*
X149508094Y-55052914D02*
X149460475Y-55100533D01*
X149460475Y-55100533D02*
X149365237Y-55148152D01*
X149365237Y-55148152D02*
X149222380Y-55148152D01*
X149222380Y-55148152D02*
X149127142Y-55100533D01*
X149555713Y-54767200D02*
X149460475Y-54814819D01*
X149460475Y-54814819D02*
X149269999Y-54814819D01*
X149269999Y-54814819D02*
X149174761Y-54767200D01*
X149174761Y-54767200D02*
X149127142Y-54719580D01*
X149127142Y-54719580D02*
X149079523Y-54624342D01*
X149079523Y-54624342D02*
X149079523Y-54338628D01*
X149079523Y-54338628D02*
X149127142Y-54243390D01*
X149127142Y-54243390D02*
X149174761Y-54195771D01*
X149174761Y-54195771D02*
X149269999Y-54148152D01*
X149269999Y-54148152D02*
X149460475Y-54148152D01*
X149460475Y-54148152D02*
X149555713Y-54195771D01*
X150031904Y-54814819D02*
X150031904Y-53814819D01*
X150460475Y-54814819D02*
X150460475Y-54291009D01*
X150460475Y-54291009D02*
X150412856Y-54195771D01*
X150412856Y-54195771D02*
X150317618Y-54148152D01*
X150317618Y-54148152D02*
X150174761Y-54148152D01*
X150174761Y-54148152D02*
X150079523Y-54195771D01*
X150079523Y-54195771D02*
X150031904Y-54243390D01*
X150793809Y-54148152D02*
X151174761Y-54148152D01*
X150936666Y-53814819D02*
X150936666Y-54671961D01*
X150936666Y-54671961D02*
X150984285Y-54767200D01*
X150984285Y-54767200D02*
X151079523Y-54814819D01*
X151079523Y-54814819D02*
X151174761Y-54814819D01*
X142238095Y-63814819D02*
X142238095Y-64624342D01*
X142238095Y-64624342D02*
X142285714Y-64719580D01*
X142285714Y-64719580D02*
X142333333Y-64767200D01*
X142333333Y-64767200D02*
X142428571Y-64814819D01*
X142428571Y-64814819D02*
X142619047Y-64814819D01*
X142619047Y-64814819D02*
X142714285Y-64767200D01*
X142714285Y-64767200D02*
X142761904Y-64719580D01*
X142761904Y-64719580D02*
X142809523Y-64624342D01*
X142809523Y-64624342D02*
X142809523Y-63814819D01*
X143238095Y-63910057D02*
X143285714Y-63862438D01*
X143285714Y-63862438D02*
X143380952Y-63814819D01*
X143380952Y-63814819D02*
X143619047Y-63814819D01*
X143619047Y-63814819D02*
X143714285Y-63862438D01*
X143714285Y-63862438D02*
X143761904Y-63910057D01*
X143761904Y-63910057D02*
X143809523Y-64005295D01*
X143809523Y-64005295D02*
X143809523Y-64100533D01*
X143809523Y-64100533D02*
X143761904Y-64243390D01*
X143761904Y-64243390D02*
X143190476Y-64814819D01*
X143190476Y-64814819D02*
X143809523Y-64814819D01*
X165694819Y-100857143D02*
X164694819Y-100857143D01*
X164694819Y-100857143D02*
X164694819Y-100476191D01*
X164694819Y-100476191D02*
X164742438Y-100380953D01*
X164742438Y-100380953D02*
X164790057Y-100333334D01*
X164790057Y-100333334D02*
X164885295Y-100285715D01*
X164885295Y-100285715D02*
X165028152Y-100285715D01*
X165028152Y-100285715D02*
X165123390Y-100333334D01*
X165123390Y-100333334D02*
X165171009Y-100380953D01*
X165171009Y-100380953D02*
X165218628Y-100476191D01*
X165218628Y-100476191D02*
X165218628Y-100857143D01*
X165694819Y-99857143D02*
X165028152Y-99857143D01*
X164694819Y-99857143D02*
X164742438Y-99904762D01*
X164742438Y-99904762D02*
X164790057Y-99857143D01*
X164790057Y-99857143D02*
X164742438Y-99809524D01*
X164742438Y-99809524D02*
X164694819Y-99857143D01*
X164694819Y-99857143D02*
X164790057Y-99857143D01*
X165028152Y-99380953D02*
X165694819Y-99380953D01*
X165123390Y-99380953D02*
X165075771Y-99333334D01*
X165075771Y-99333334D02*
X165028152Y-99238096D01*
X165028152Y-99238096D02*
X165028152Y-99095239D01*
X165028152Y-99095239D02*
X165075771Y-99000001D01*
X165075771Y-99000001D02*
X165171009Y-98952382D01*
X165171009Y-98952382D02*
X165694819Y-98952382D01*
X165694819Y-98476191D02*
X164694819Y-98476191D01*
X165171009Y-98476191D02*
X165171009Y-97904763D01*
X165694819Y-97904763D02*
X164694819Y-97904763D01*
X165647200Y-97047620D02*
X165694819Y-97142858D01*
X165694819Y-97142858D02*
X165694819Y-97333334D01*
X165694819Y-97333334D02*
X165647200Y-97428572D01*
X165647200Y-97428572D02*
X165551961Y-97476191D01*
X165551961Y-97476191D02*
X165171009Y-97476191D01*
X165171009Y-97476191D02*
X165075771Y-97428572D01*
X165075771Y-97428572D02*
X165028152Y-97333334D01*
X165028152Y-97333334D02*
X165028152Y-97142858D01*
X165028152Y-97142858D02*
X165075771Y-97047620D01*
X165075771Y-97047620D02*
X165171009Y-97000001D01*
X165171009Y-97000001D02*
X165266247Y-97000001D01*
X165266247Y-97000001D02*
X165361485Y-97476191D01*
X165694819Y-96142858D02*
X165171009Y-96142858D01*
X165171009Y-96142858D02*
X165075771Y-96190477D01*
X165075771Y-96190477D02*
X165028152Y-96285715D01*
X165028152Y-96285715D02*
X165028152Y-96476191D01*
X165028152Y-96476191D02*
X165075771Y-96571429D01*
X165647200Y-96142858D02*
X165694819Y-96238096D01*
X165694819Y-96238096D02*
X165694819Y-96476191D01*
X165694819Y-96476191D02*
X165647200Y-96571429D01*
X165647200Y-96571429D02*
X165551961Y-96619048D01*
X165551961Y-96619048D02*
X165456723Y-96619048D01*
X165456723Y-96619048D02*
X165361485Y-96571429D01*
X165361485Y-96571429D02*
X165313866Y-96476191D01*
X165313866Y-96476191D02*
X165313866Y-96238096D01*
X165313866Y-96238096D02*
X165266247Y-96142858D01*
X165694819Y-95238096D02*
X164694819Y-95238096D01*
X165647200Y-95238096D02*
X165694819Y-95333334D01*
X165694819Y-95333334D02*
X165694819Y-95523810D01*
X165694819Y-95523810D02*
X165647200Y-95619048D01*
X165647200Y-95619048D02*
X165599580Y-95666667D01*
X165599580Y-95666667D02*
X165504342Y-95714286D01*
X165504342Y-95714286D02*
X165218628Y-95714286D01*
X165218628Y-95714286D02*
X165123390Y-95666667D01*
X165123390Y-95666667D02*
X165075771Y-95619048D01*
X165075771Y-95619048D02*
X165028152Y-95523810D01*
X165028152Y-95523810D02*
X165028152Y-95333334D01*
X165028152Y-95333334D02*
X165075771Y-95238096D01*
X165647200Y-94380953D02*
X165694819Y-94476191D01*
X165694819Y-94476191D02*
X165694819Y-94666667D01*
X165694819Y-94666667D02*
X165647200Y-94761905D01*
X165647200Y-94761905D02*
X165551961Y-94809524D01*
X165551961Y-94809524D02*
X165171009Y-94809524D01*
X165171009Y-94809524D02*
X165075771Y-94761905D01*
X165075771Y-94761905D02*
X165028152Y-94666667D01*
X165028152Y-94666667D02*
X165028152Y-94476191D01*
X165028152Y-94476191D02*
X165075771Y-94380953D01*
X165075771Y-94380953D02*
X165171009Y-94333334D01*
X165171009Y-94333334D02*
X165266247Y-94333334D01*
X165266247Y-94333334D02*
X165361485Y-94809524D01*
X165694819Y-93904762D02*
X165028152Y-93904762D01*
X165218628Y-93904762D02*
X165123390Y-93857143D01*
X165123390Y-93857143D02*
X165075771Y-93809524D01*
X165075771Y-93809524D02*
X165028152Y-93714286D01*
X165028152Y-93714286D02*
X165028152Y-93619048D01*
X165790057Y-93523810D02*
X165790057Y-92761905D01*
X165694819Y-92000000D02*
X165694819Y-92571428D01*
X165694819Y-92285714D02*
X164694819Y-92285714D01*
X164694819Y-92285714D02*
X164837676Y-92380952D01*
X164837676Y-92380952D02*
X164932914Y-92476190D01*
X164932914Y-92476190D02*
X164980533Y-92571428D01*
X165694819Y-91666666D02*
X165028152Y-91142857D01*
X165028152Y-91666666D02*
X165694819Y-91142857D01*
X165694819Y-90238095D02*
X165694819Y-90809523D01*
X165694819Y-90523809D02*
X164694819Y-90523809D01*
X164694819Y-90523809D02*
X164837676Y-90619047D01*
X164837676Y-90619047D02*
X164932914Y-90714285D01*
X164932914Y-90714285D02*
X164980533Y-90809523D01*
X164694819Y-89619047D02*
X164694819Y-89523809D01*
X164694819Y-89523809D02*
X164742438Y-89428571D01*
X164742438Y-89428571D02*
X164790057Y-89380952D01*
X164790057Y-89380952D02*
X164885295Y-89333333D01*
X164885295Y-89333333D02*
X165075771Y-89285714D01*
X165075771Y-89285714D02*
X165313866Y-89285714D01*
X165313866Y-89285714D02*
X165504342Y-89333333D01*
X165504342Y-89333333D02*
X165599580Y-89380952D01*
X165599580Y-89380952D02*
X165647200Y-89428571D01*
X165647200Y-89428571D02*
X165694819Y-89523809D01*
X165694819Y-89523809D02*
X165694819Y-89619047D01*
X165694819Y-89619047D02*
X165647200Y-89714285D01*
X165647200Y-89714285D02*
X165599580Y-89761904D01*
X165599580Y-89761904D02*
X165504342Y-89809523D01*
X165504342Y-89809523D02*
X165313866Y-89857142D01*
X165313866Y-89857142D02*
X165075771Y-89857142D01*
X165075771Y-89857142D02*
X164885295Y-89809523D01*
X164885295Y-89809523D02*
X164790057Y-89761904D01*
X164790057Y-89761904D02*
X164742438Y-89714285D01*
X164742438Y-89714285D02*
X164694819Y-89619047D01*
X165790057Y-89095238D02*
X165790057Y-88333333D01*
X165694819Y-88095237D02*
X164694819Y-88095237D01*
X164694819Y-88095237D02*
X164694819Y-87714285D01*
X164694819Y-87714285D02*
X164742438Y-87619047D01*
X164742438Y-87619047D02*
X164790057Y-87571428D01*
X164790057Y-87571428D02*
X164885295Y-87523809D01*
X164885295Y-87523809D02*
X165028152Y-87523809D01*
X165028152Y-87523809D02*
X165123390Y-87571428D01*
X165123390Y-87571428D02*
X165171009Y-87619047D01*
X165171009Y-87619047D02*
X165218628Y-87714285D01*
X165218628Y-87714285D02*
X165218628Y-88095237D01*
X164790057Y-87142856D02*
X164742438Y-87095237D01*
X164742438Y-87095237D02*
X164694819Y-86999999D01*
X164694819Y-86999999D02*
X164694819Y-86761904D01*
X164694819Y-86761904D02*
X164742438Y-86666666D01*
X164742438Y-86666666D02*
X164790057Y-86619047D01*
X164790057Y-86619047D02*
X164885295Y-86571428D01*
X164885295Y-86571428D02*
X164980533Y-86571428D01*
X164980533Y-86571428D02*
X165123390Y-86619047D01*
X165123390Y-86619047D02*
X165694819Y-87190475D01*
X165694819Y-87190475D02*
X165694819Y-86571428D01*
X165599580Y-86142856D02*
X165647200Y-86095237D01*
X165647200Y-86095237D02*
X165694819Y-86142856D01*
X165694819Y-86142856D02*
X165647200Y-86190475D01*
X165647200Y-86190475D02*
X165599580Y-86142856D01*
X165599580Y-86142856D02*
X165694819Y-86142856D01*
X164694819Y-85190476D02*
X164694819Y-85666666D01*
X164694819Y-85666666D02*
X165171009Y-85714285D01*
X165171009Y-85714285D02*
X165123390Y-85666666D01*
X165123390Y-85666666D02*
X165075771Y-85571428D01*
X165075771Y-85571428D02*
X165075771Y-85333333D01*
X165075771Y-85333333D02*
X165123390Y-85238095D01*
X165123390Y-85238095D02*
X165171009Y-85190476D01*
X165171009Y-85190476D02*
X165266247Y-85142857D01*
X165266247Y-85142857D02*
X165504342Y-85142857D01*
X165504342Y-85142857D02*
X165599580Y-85190476D01*
X165599580Y-85190476D02*
X165647200Y-85238095D01*
X165647200Y-85238095D02*
X165694819Y-85333333D01*
X165694819Y-85333333D02*
X165694819Y-85571428D01*
X165694819Y-85571428D02*
X165647200Y-85666666D01*
X165647200Y-85666666D02*
X165599580Y-85714285D01*
X165028152Y-84285714D02*
X165694819Y-84285714D01*
X164647200Y-84523809D02*
X165361485Y-84761904D01*
X165361485Y-84761904D02*
X165361485Y-84142857D01*
X165694819Y-83761904D02*
X165028152Y-83761904D01*
X165123390Y-83761904D02*
X165075771Y-83714285D01*
X165075771Y-83714285D02*
X165028152Y-83619047D01*
X165028152Y-83619047D02*
X165028152Y-83476190D01*
X165028152Y-83476190D02*
X165075771Y-83380952D01*
X165075771Y-83380952D02*
X165171009Y-83333333D01*
X165171009Y-83333333D02*
X165694819Y-83333333D01*
X165171009Y-83333333D02*
X165075771Y-83285714D01*
X165075771Y-83285714D02*
X165028152Y-83190476D01*
X165028152Y-83190476D02*
X165028152Y-83047619D01*
X165028152Y-83047619D02*
X165075771Y-82952380D01*
X165075771Y-82952380D02*
X165171009Y-82904761D01*
X165171009Y-82904761D02*
X165694819Y-82904761D01*
X165694819Y-82428571D02*
X165028152Y-82428571D01*
X165123390Y-82428571D02*
X165075771Y-82380952D01*
X165075771Y-82380952D02*
X165028152Y-82285714D01*
X165028152Y-82285714D02*
X165028152Y-82142857D01*
X165028152Y-82142857D02*
X165075771Y-82047619D01*
X165075771Y-82047619D02*
X165171009Y-82000000D01*
X165171009Y-82000000D02*
X165694819Y-82000000D01*
X165171009Y-82000000D02*
X165075771Y-81952381D01*
X165075771Y-81952381D02*
X165028152Y-81857143D01*
X165028152Y-81857143D02*
X165028152Y-81714286D01*
X165028152Y-81714286D02*
X165075771Y-81619047D01*
X165075771Y-81619047D02*
X165171009Y-81571428D01*
X165171009Y-81571428D02*
X165694819Y-81571428D01*
X165790057Y-81333334D02*
X165790057Y-80571429D01*
X164694819Y-80476190D02*
X165694819Y-80142857D01*
X165694819Y-80142857D02*
X164694819Y-79809524D01*
X165647200Y-79095238D02*
X165694819Y-79190476D01*
X165694819Y-79190476D02*
X165694819Y-79380952D01*
X165694819Y-79380952D02*
X165647200Y-79476190D01*
X165647200Y-79476190D02*
X165551961Y-79523809D01*
X165551961Y-79523809D02*
X165171009Y-79523809D01*
X165171009Y-79523809D02*
X165075771Y-79476190D01*
X165075771Y-79476190D02*
X165028152Y-79380952D01*
X165028152Y-79380952D02*
X165028152Y-79190476D01*
X165028152Y-79190476D02*
X165075771Y-79095238D01*
X165075771Y-79095238D02*
X165171009Y-79047619D01*
X165171009Y-79047619D02*
X165266247Y-79047619D01*
X165266247Y-79047619D02*
X165361485Y-79523809D01*
X165694819Y-78619047D02*
X165028152Y-78619047D01*
X165218628Y-78619047D02*
X165123390Y-78571428D01*
X165123390Y-78571428D02*
X165075771Y-78523809D01*
X165075771Y-78523809D02*
X165028152Y-78428571D01*
X165028152Y-78428571D02*
X165028152Y-78333333D01*
X165028152Y-78142856D02*
X165028152Y-77761904D01*
X164694819Y-77999999D02*
X165551961Y-77999999D01*
X165551961Y-77999999D02*
X165647200Y-77952380D01*
X165647200Y-77952380D02*
X165694819Y-77857142D01*
X165694819Y-77857142D02*
X165694819Y-77761904D01*
X165694819Y-77428570D02*
X165028152Y-77428570D01*
X164694819Y-77428570D02*
X164742438Y-77476189D01*
X164742438Y-77476189D02*
X164790057Y-77428570D01*
X164790057Y-77428570D02*
X164742438Y-77380951D01*
X164742438Y-77380951D02*
X164694819Y-77428570D01*
X164694819Y-77428570D02*
X164790057Y-77428570D01*
X165647200Y-76523809D02*
X165694819Y-76619047D01*
X165694819Y-76619047D02*
X165694819Y-76809523D01*
X165694819Y-76809523D02*
X165647200Y-76904761D01*
X165647200Y-76904761D02*
X165599580Y-76952380D01*
X165599580Y-76952380D02*
X165504342Y-76999999D01*
X165504342Y-76999999D02*
X165218628Y-76999999D01*
X165218628Y-76999999D02*
X165123390Y-76952380D01*
X165123390Y-76952380D02*
X165075771Y-76904761D01*
X165075771Y-76904761D02*
X165028152Y-76809523D01*
X165028152Y-76809523D02*
X165028152Y-76619047D01*
X165028152Y-76619047D02*
X165075771Y-76523809D01*
X165694819Y-75666666D02*
X165171009Y-75666666D01*
X165171009Y-75666666D02*
X165075771Y-75714285D01*
X165075771Y-75714285D02*
X165028152Y-75809523D01*
X165028152Y-75809523D02*
X165028152Y-75999999D01*
X165028152Y-75999999D02*
X165075771Y-76095237D01*
X165647200Y-75666666D02*
X165694819Y-75761904D01*
X165694819Y-75761904D02*
X165694819Y-75999999D01*
X165694819Y-75999999D02*
X165647200Y-76095237D01*
X165647200Y-76095237D02*
X165551961Y-76142856D01*
X165551961Y-76142856D02*
X165456723Y-76142856D01*
X165456723Y-76142856D02*
X165361485Y-76095237D01*
X165361485Y-76095237D02*
X165313866Y-75999999D01*
X165313866Y-75999999D02*
X165313866Y-75761904D01*
X165313866Y-75761904D02*
X165266247Y-75666666D01*
X165694819Y-75047618D02*
X165647200Y-75142856D01*
X165647200Y-75142856D02*
X165551961Y-75190475D01*
X165551961Y-75190475D02*
X164694819Y-75190475D01*
X150668095Y-87454819D02*
X150668095Y-88264342D01*
X150668095Y-88264342D02*
X150715714Y-88359580D01*
X150715714Y-88359580D02*
X150763333Y-88407200D01*
X150763333Y-88407200D02*
X150858571Y-88454819D01*
X150858571Y-88454819D02*
X151049047Y-88454819D01*
X151049047Y-88454819D02*
X151144285Y-88407200D01*
X151144285Y-88407200D02*
X151191904Y-88359580D01*
X151191904Y-88359580D02*
X151239523Y-88264342D01*
X151239523Y-88264342D02*
X151239523Y-87454819D01*
X151620476Y-87454819D02*
X152239523Y-87454819D01*
X152239523Y-87454819D02*
X151906190Y-87835771D01*
X151906190Y-87835771D02*
X152049047Y-87835771D01*
X152049047Y-87835771D02*
X152144285Y-87883390D01*
X152144285Y-87883390D02*
X152191904Y-87931009D01*
X152191904Y-87931009D02*
X152239523Y-88026247D01*
X152239523Y-88026247D02*
X152239523Y-88264342D01*
X152239523Y-88264342D02*
X152191904Y-88359580D01*
X152191904Y-88359580D02*
X152144285Y-88407200D01*
X152144285Y-88407200D02*
X152049047Y-88454819D01*
X152049047Y-88454819D02*
X151763333Y-88454819D01*
X151763333Y-88454819D02*
X151668095Y-88407200D01*
X151668095Y-88407200D02*
X151620476Y-88359580D01*
D10*
X158922141Y-50879271D02*
X158922141Y-49609271D01*
X158922141Y-49609271D02*
X159345475Y-50516414D01*
X159345475Y-50516414D02*
X159768808Y-49609271D01*
X159768808Y-49609271D02*
X159768808Y-50879271D01*
X160554999Y-50879271D02*
X160434047Y-50818795D01*
X160434047Y-50818795D02*
X160373570Y-50758318D01*
X160373570Y-50758318D02*
X160313094Y-50637366D01*
X160313094Y-50637366D02*
X160313094Y-50274509D01*
X160313094Y-50274509D02*
X160373570Y-50153556D01*
X160373570Y-50153556D02*
X160434047Y-50093080D01*
X160434047Y-50093080D02*
X160554999Y-50032604D01*
X160554999Y-50032604D02*
X160736428Y-50032604D01*
X160736428Y-50032604D02*
X160857380Y-50093080D01*
X160857380Y-50093080D02*
X160917856Y-50153556D01*
X160917856Y-50153556D02*
X160978332Y-50274509D01*
X160978332Y-50274509D02*
X160978332Y-50637366D01*
X160978332Y-50637366D02*
X160917856Y-50758318D01*
X160917856Y-50758318D02*
X160857380Y-50818795D01*
X160857380Y-50818795D02*
X160736428Y-50879271D01*
X160736428Y-50879271D02*
X160554999Y-50879271D01*
X162066904Y-50032604D02*
X162066904Y-50879271D01*
X161522618Y-50032604D02*
X161522618Y-50697842D01*
X161522618Y-50697842D02*
X161583095Y-50818795D01*
X161583095Y-50818795D02*
X161704047Y-50879271D01*
X161704047Y-50879271D02*
X161885476Y-50879271D01*
X161885476Y-50879271D02*
X162006428Y-50818795D01*
X162006428Y-50818795D02*
X162066904Y-50758318D01*
X162671666Y-50032604D02*
X162671666Y-50879271D01*
X162671666Y-50153556D02*
X162732143Y-50093080D01*
X162732143Y-50093080D02*
X162853095Y-50032604D01*
X162853095Y-50032604D02*
X163034524Y-50032604D01*
X163034524Y-50032604D02*
X163155476Y-50093080D01*
X163155476Y-50093080D02*
X163215952Y-50214033D01*
X163215952Y-50214033D02*
X163215952Y-50879271D01*
X163639286Y-50032604D02*
X164123095Y-50032604D01*
X163820714Y-49609271D02*
X163820714Y-50697842D01*
X163820714Y-50697842D02*
X163881191Y-50818795D01*
X163881191Y-50818795D02*
X164002143Y-50879271D01*
X164002143Y-50879271D02*
X164123095Y-50879271D01*
X164546428Y-50879271D02*
X164546428Y-50032604D01*
X164546428Y-49609271D02*
X164485952Y-49669747D01*
X164485952Y-49669747D02*
X164546428Y-49730223D01*
X164546428Y-49730223D02*
X164606905Y-49669747D01*
X164606905Y-49669747D02*
X164546428Y-49609271D01*
X164546428Y-49609271D02*
X164546428Y-49730223D01*
X165151190Y-50032604D02*
X165151190Y-50879271D01*
X165151190Y-50153556D02*
X165211667Y-50093080D01*
X165211667Y-50093080D02*
X165332619Y-50032604D01*
X165332619Y-50032604D02*
X165514048Y-50032604D01*
X165514048Y-50032604D02*
X165635000Y-50093080D01*
X165635000Y-50093080D02*
X165695476Y-50214033D01*
X165695476Y-50214033D02*
X165695476Y-50879271D01*
X166844524Y-50032604D02*
X166844524Y-51060699D01*
X166844524Y-51060699D02*
X166784048Y-51181652D01*
X166784048Y-51181652D02*
X166723572Y-51242128D01*
X166723572Y-51242128D02*
X166602619Y-51302604D01*
X166602619Y-51302604D02*
X166421191Y-51302604D01*
X166421191Y-51302604D02*
X166300238Y-51242128D01*
X166844524Y-50818795D02*
X166723572Y-50879271D01*
X166723572Y-50879271D02*
X166481667Y-50879271D01*
X166481667Y-50879271D02*
X166360715Y-50818795D01*
X166360715Y-50818795D02*
X166300238Y-50758318D01*
X166300238Y-50758318D02*
X166239762Y-50637366D01*
X166239762Y-50637366D02*
X166239762Y-50274509D01*
X166239762Y-50274509D02*
X166300238Y-50153556D01*
X166300238Y-50153556D02*
X166360715Y-50093080D01*
X166360715Y-50093080D02*
X166481667Y-50032604D01*
X166481667Y-50032604D02*
X166723572Y-50032604D01*
X166723572Y-50032604D02*
X166844524Y-50093080D01*
X167449286Y-50879271D02*
X167449286Y-49609271D01*
X167449286Y-50214033D02*
X168175001Y-50214033D01*
X168175001Y-50879271D02*
X168175001Y-49609271D01*
X168961191Y-50879271D02*
X168840239Y-50818795D01*
X168840239Y-50818795D02*
X168779762Y-50758318D01*
X168779762Y-50758318D02*
X168719286Y-50637366D01*
X168719286Y-50637366D02*
X168719286Y-50274509D01*
X168719286Y-50274509D02*
X168779762Y-50153556D01*
X168779762Y-50153556D02*
X168840239Y-50093080D01*
X168840239Y-50093080D02*
X168961191Y-50032604D01*
X168961191Y-50032604D02*
X169142620Y-50032604D01*
X169142620Y-50032604D02*
X169263572Y-50093080D01*
X169263572Y-50093080D02*
X169324048Y-50153556D01*
X169324048Y-50153556D02*
X169384524Y-50274509D01*
X169384524Y-50274509D02*
X169384524Y-50637366D01*
X169384524Y-50637366D02*
X169324048Y-50758318D01*
X169324048Y-50758318D02*
X169263572Y-50818795D01*
X169263572Y-50818795D02*
X169142620Y-50879271D01*
X169142620Y-50879271D02*
X168961191Y-50879271D01*
X170110239Y-50879271D02*
X169989287Y-50818795D01*
X169989287Y-50818795D02*
X169928810Y-50697842D01*
X169928810Y-50697842D02*
X169928810Y-49609271D01*
X171077858Y-50818795D02*
X170956906Y-50879271D01*
X170956906Y-50879271D02*
X170715001Y-50879271D01*
X170715001Y-50879271D02*
X170594048Y-50818795D01*
X170594048Y-50818795D02*
X170533572Y-50697842D01*
X170533572Y-50697842D02*
X170533572Y-50214033D01*
X170533572Y-50214033D02*
X170594048Y-50093080D01*
X170594048Y-50093080D02*
X170715001Y-50032604D01*
X170715001Y-50032604D02*
X170956906Y-50032604D01*
X170956906Y-50032604D02*
X171077858Y-50093080D01*
X171077858Y-50093080D02*
X171138334Y-50214033D01*
X171138334Y-50214033D02*
X171138334Y-50334985D01*
X171138334Y-50334985D02*
X170533572Y-50455937D01*
D11*
X106159047Y-107174819D02*
X106730475Y-107174819D01*
X106444761Y-108174819D02*
X106444761Y-107174819D01*
X107444761Y-108127200D02*
X107349523Y-108174819D01*
X107349523Y-108174819D02*
X107159047Y-108174819D01*
X107159047Y-108174819D02*
X107063809Y-108127200D01*
X107063809Y-108127200D02*
X107016190Y-108031961D01*
X107016190Y-108031961D02*
X107016190Y-107651009D01*
X107016190Y-107651009D02*
X107063809Y-107555771D01*
X107063809Y-107555771D02*
X107159047Y-107508152D01*
X107159047Y-107508152D02*
X107349523Y-107508152D01*
X107349523Y-107508152D02*
X107444761Y-107555771D01*
X107444761Y-107555771D02*
X107492380Y-107651009D01*
X107492380Y-107651009D02*
X107492380Y-107746247D01*
X107492380Y-107746247D02*
X107016190Y-107841485D01*
X107920952Y-108174819D02*
X107920952Y-107508152D01*
X107920952Y-107698628D02*
X107968571Y-107603390D01*
X107968571Y-107603390D02*
X108016190Y-107555771D01*
X108016190Y-107555771D02*
X108111428Y-107508152D01*
X108111428Y-107508152D02*
X108206666Y-107508152D01*
X108540000Y-108174819D02*
X108540000Y-107508152D01*
X108540000Y-107603390D02*
X108587619Y-107555771D01*
X108587619Y-107555771D02*
X108682857Y-107508152D01*
X108682857Y-107508152D02*
X108825714Y-107508152D01*
X108825714Y-107508152D02*
X108920952Y-107555771D01*
X108920952Y-107555771D02*
X108968571Y-107651009D01*
X108968571Y-107651009D02*
X108968571Y-108174819D01*
X108968571Y-107651009D02*
X109016190Y-107555771D01*
X109016190Y-107555771D02*
X109111428Y-107508152D01*
X109111428Y-107508152D02*
X109254285Y-107508152D01*
X109254285Y-107508152D02*
X109349524Y-107555771D01*
X109349524Y-107555771D02*
X109397143Y-107651009D01*
X109397143Y-107651009D02*
X109397143Y-108174819D01*
X109873333Y-108174819D02*
X109873333Y-107508152D01*
X109873333Y-107174819D02*
X109825714Y-107222438D01*
X109825714Y-107222438D02*
X109873333Y-107270057D01*
X109873333Y-107270057D02*
X109920952Y-107222438D01*
X109920952Y-107222438D02*
X109873333Y-107174819D01*
X109873333Y-107174819D02*
X109873333Y-107270057D01*
X110349523Y-107508152D02*
X110349523Y-108174819D01*
X110349523Y-107603390D02*
X110397142Y-107555771D01*
X110397142Y-107555771D02*
X110492380Y-107508152D01*
X110492380Y-107508152D02*
X110635237Y-107508152D01*
X110635237Y-107508152D02*
X110730475Y-107555771D01*
X110730475Y-107555771D02*
X110778094Y-107651009D01*
X110778094Y-107651009D02*
X110778094Y-108174819D01*
X111682856Y-108174819D02*
X111682856Y-107651009D01*
X111682856Y-107651009D02*
X111635237Y-107555771D01*
X111635237Y-107555771D02*
X111539999Y-107508152D01*
X111539999Y-107508152D02*
X111349523Y-107508152D01*
X111349523Y-107508152D02*
X111254285Y-107555771D01*
X111682856Y-108127200D02*
X111587618Y-108174819D01*
X111587618Y-108174819D02*
X111349523Y-108174819D01*
X111349523Y-108174819D02*
X111254285Y-108127200D01*
X111254285Y-108127200D02*
X111206666Y-108031961D01*
X111206666Y-108031961D02*
X111206666Y-107936723D01*
X111206666Y-107936723D02*
X111254285Y-107841485D01*
X111254285Y-107841485D02*
X111349523Y-107793866D01*
X111349523Y-107793866D02*
X111587618Y-107793866D01*
X111587618Y-107793866D02*
X111682856Y-107746247D01*
X112301904Y-108174819D02*
X112206666Y-108127200D01*
X112206666Y-108127200D02*
X112159047Y-108031961D01*
X112159047Y-108031961D02*
X112159047Y-107174819D01*
X113016190Y-107651009D02*
X113159047Y-107698628D01*
X113159047Y-107698628D02*
X113206666Y-107746247D01*
X113206666Y-107746247D02*
X113254285Y-107841485D01*
X113254285Y-107841485D02*
X113254285Y-107984342D01*
X113254285Y-107984342D02*
X113206666Y-108079580D01*
X113206666Y-108079580D02*
X113159047Y-108127200D01*
X113159047Y-108127200D02*
X113063809Y-108174819D01*
X113063809Y-108174819D02*
X112682857Y-108174819D01*
X112682857Y-108174819D02*
X112682857Y-107174819D01*
X112682857Y-107174819D02*
X113016190Y-107174819D01*
X113016190Y-107174819D02*
X113111428Y-107222438D01*
X113111428Y-107222438D02*
X113159047Y-107270057D01*
X113159047Y-107270057D02*
X113206666Y-107365295D01*
X113206666Y-107365295D02*
X113206666Y-107460533D01*
X113206666Y-107460533D02*
X113159047Y-107555771D01*
X113159047Y-107555771D02*
X113111428Y-107603390D01*
X113111428Y-107603390D02*
X113016190Y-107651009D01*
X113016190Y-107651009D02*
X112682857Y-107651009D01*
X113825714Y-108174819D02*
X113730476Y-108127200D01*
X113730476Y-108127200D02*
X113682857Y-108031961D01*
X113682857Y-108031961D02*
X113682857Y-107174819D01*
X114349524Y-108174819D02*
X114254286Y-108127200D01*
X114254286Y-108127200D02*
X114206667Y-108079580D01*
X114206667Y-108079580D02*
X114159048Y-107984342D01*
X114159048Y-107984342D02*
X114159048Y-107698628D01*
X114159048Y-107698628D02*
X114206667Y-107603390D01*
X114206667Y-107603390D02*
X114254286Y-107555771D01*
X114254286Y-107555771D02*
X114349524Y-107508152D01*
X114349524Y-107508152D02*
X114492381Y-107508152D01*
X114492381Y-107508152D02*
X114587619Y-107555771D01*
X114587619Y-107555771D02*
X114635238Y-107603390D01*
X114635238Y-107603390D02*
X114682857Y-107698628D01*
X114682857Y-107698628D02*
X114682857Y-107984342D01*
X114682857Y-107984342D02*
X114635238Y-108079580D01*
X114635238Y-108079580D02*
X114587619Y-108127200D01*
X114587619Y-108127200D02*
X114492381Y-108174819D01*
X114492381Y-108174819D02*
X114349524Y-108174819D01*
X115540000Y-108127200D02*
X115444762Y-108174819D01*
X115444762Y-108174819D02*
X115254286Y-108174819D01*
X115254286Y-108174819D02*
X115159048Y-108127200D01*
X115159048Y-108127200D02*
X115111429Y-108079580D01*
X115111429Y-108079580D02*
X115063810Y-107984342D01*
X115063810Y-107984342D02*
X115063810Y-107698628D01*
X115063810Y-107698628D02*
X115111429Y-107603390D01*
X115111429Y-107603390D02*
X115159048Y-107555771D01*
X115159048Y-107555771D02*
X115254286Y-107508152D01*
X115254286Y-107508152D02*
X115444762Y-107508152D01*
X115444762Y-107508152D02*
X115540000Y-107555771D01*
X115968572Y-108174819D02*
X115968572Y-107174819D01*
X116063810Y-107793866D02*
X116349524Y-108174819D01*
X116349524Y-107508152D02*
X115968572Y-107889104D01*
X116540001Y-108270057D02*
X117301905Y-108270057D01*
X117540001Y-108174819D02*
X117540001Y-107174819D01*
X117540001Y-107174819D02*
X117920953Y-107174819D01*
X117920953Y-107174819D02*
X118016191Y-107222438D01*
X118016191Y-107222438D02*
X118063810Y-107270057D01*
X118063810Y-107270057D02*
X118111429Y-107365295D01*
X118111429Y-107365295D02*
X118111429Y-107508152D01*
X118111429Y-107508152D02*
X118063810Y-107603390D01*
X118063810Y-107603390D02*
X118016191Y-107651009D01*
X118016191Y-107651009D02*
X117920953Y-107698628D01*
X117920953Y-107698628D02*
X117540001Y-107698628D01*
X118540001Y-108174819D02*
X118540001Y-107174819D01*
X118968572Y-108174819D02*
X118968572Y-107651009D01*
X118968572Y-107651009D02*
X118920953Y-107555771D01*
X118920953Y-107555771D02*
X118825715Y-107508152D01*
X118825715Y-107508152D02*
X118682858Y-107508152D01*
X118682858Y-107508152D02*
X118587620Y-107555771D01*
X118587620Y-107555771D02*
X118540001Y-107603390D01*
X119587620Y-108174819D02*
X119492382Y-108127200D01*
X119492382Y-108127200D02*
X119444763Y-108079580D01*
X119444763Y-108079580D02*
X119397144Y-107984342D01*
X119397144Y-107984342D02*
X119397144Y-107698628D01*
X119397144Y-107698628D02*
X119444763Y-107603390D01*
X119444763Y-107603390D02*
X119492382Y-107555771D01*
X119492382Y-107555771D02*
X119587620Y-107508152D01*
X119587620Y-107508152D02*
X119730477Y-107508152D01*
X119730477Y-107508152D02*
X119825715Y-107555771D01*
X119825715Y-107555771D02*
X119873334Y-107603390D01*
X119873334Y-107603390D02*
X119920953Y-107698628D01*
X119920953Y-107698628D02*
X119920953Y-107984342D01*
X119920953Y-107984342D02*
X119873334Y-108079580D01*
X119873334Y-108079580D02*
X119825715Y-108127200D01*
X119825715Y-108127200D02*
X119730477Y-108174819D01*
X119730477Y-108174819D02*
X119587620Y-108174819D01*
X120730477Y-108127200D02*
X120635239Y-108174819D01*
X120635239Y-108174819D02*
X120444763Y-108174819D01*
X120444763Y-108174819D02*
X120349525Y-108127200D01*
X120349525Y-108127200D02*
X120301906Y-108031961D01*
X120301906Y-108031961D02*
X120301906Y-107651009D01*
X120301906Y-107651009D02*
X120349525Y-107555771D01*
X120349525Y-107555771D02*
X120444763Y-107508152D01*
X120444763Y-107508152D02*
X120635239Y-107508152D01*
X120635239Y-107508152D02*
X120730477Y-107555771D01*
X120730477Y-107555771D02*
X120778096Y-107651009D01*
X120778096Y-107651009D02*
X120778096Y-107746247D01*
X120778096Y-107746247D02*
X120301906Y-107841485D01*
X121206668Y-107508152D02*
X121206668Y-108174819D01*
X121206668Y-107603390D02*
X121254287Y-107555771D01*
X121254287Y-107555771D02*
X121349525Y-107508152D01*
X121349525Y-107508152D02*
X121492382Y-107508152D01*
X121492382Y-107508152D02*
X121587620Y-107555771D01*
X121587620Y-107555771D02*
X121635239Y-107651009D01*
X121635239Y-107651009D02*
X121635239Y-108174819D01*
X122111430Y-108174819D02*
X122111430Y-107508152D01*
X122111430Y-107174819D02*
X122063811Y-107222438D01*
X122063811Y-107222438D02*
X122111430Y-107270057D01*
X122111430Y-107270057D02*
X122159049Y-107222438D01*
X122159049Y-107222438D02*
X122111430Y-107174819D01*
X122111430Y-107174819D02*
X122111430Y-107270057D01*
X122492382Y-108174819D02*
X123016191Y-107508152D01*
X122492382Y-107508152D02*
X123016191Y-108174819D01*
X123159049Y-108270057D02*
X123920953Y-108270057D01*
X124159049Y-108174819D02*
X124159049Y-107174819D01*
X124159049Y-107174819D02*
X124492382Y-107889104D01*
X124492382Y-107889104D02*
X124825715Y-107174819D01*
X124825715Y-107174819D02*
X124825715Y-108174819D01*
X125301906Y-108174819D02*
X125301906Y-107174819D01*
X125873334Y-108174819D02*
X125444763Y-107603390D01*
X125873334Y-107174819D02*
X125301906Y-107746247D01*
X126301906Y-108174819D02*
X126301906Y-107174819D01*
X126301906Y-107174819D02*
X126540001Y-107174819D01*
X126540001Y-107174819D02*
X126682858Y-107222438D01*
X126682858Y-107222438D02*
X126778096Y-107317676D01*
X126778096Y-107317676D02*
X126825715Y-107412914D01*
X126825715Y-107412914D02*
X126873334Y-107603390D01*
X126873334Y-107603390D02*
X126873334Y-107746247D01*
X126873334Y-107746247D02*
X126825715Y-107936723D01*
X126825715Y-107936723D02*
X126778096Y-108031961D01*
X126778096Y-108031961D02*
X126682858Y-108127200D01*
X126682858Y-108127200D02*
X126540001Y-108174819D01*
X126540001Y-108174819D02*
X126301906Y-108174819D01*
X127254287Y-108127200D02*
X127397144Y-108174819D01*
X127397144Y-108174819D02*
X127635239Y-108174819D01*
X127635239Y-108174819D02*
X127730477Y-108127200D01*
X127730477Y-108127200D02*
X127778096Y-108079580D01*
X127778096Y-108079580D02*
X127825715Y-107984342D01*
X127825715Y-107984342D02*
X127825715Y-107889104D01*
X127825715Y-107889104D02*
X127778096Y-107793866D01*
X127778096Y-107793866D02*
X127730477Y-107746247D01*
X127730477Y-107746247D02*
X127635239Y-107698628D01*
X127635239Y-107698628D02*
X127444763Y-107651009D01*
X127444763Y-107651009D02*
X127349525Y-107603390D01*
X127349525Y-107603390D02*
X127301906Y-107555771D01*
X127301906Y-107555771D02*
X127254287Y-107460533D01*
X127254287Y-107460533D02*
X127254287Y-107365295D01*
X127254287Y-107365295D02*
X127301906Y-107270057D01*
X127301906Y-107270057D02*
X127349525Y-107222438D01*
X127349525Y-107222438D02*
X127444763Y-107174819D01*
X127444763Y-107174819D02*
X127682858Y-107174819D01*
X127682858Y-107174819D02*
X127825715Y-107222438D01*
X128254287Y-107793866D02*
X129016192Y-107793866D01*
X130016191Y-108174819D02*
X129444763Y-108174819D01*
X129730477Y-108174819D02*
X129730477Y-107174819D01*
X129730477Y-107174819D02*
X129635239Y-107317676D01*
X129635239Y-107317676D02*
X129540001Y-107412914D01*
X129540001Y-107412914D02*
X129444763Y-107460533D01*
X130492382Y-108127200D02*
X130492382Y-108174819D01*
X130492382Y-108174819D02*
X130444763Y-108270057D01*
X130444763Y-108270057D02*
X130397144Y-108317676D01*
X131397143Y-107174819D02*
X130920953Y-107174819D01*
X130920953Y-107174819D02*
X130873334Y-107651009D01*
X130873334Y-107651009D02*
X130920953Y-107603390D01*
X130920953Y-107603390D02*
X131016191Y-107555771D01*
X131016191Y-107555771D02*
X131254286Y-107555771D01*
X131254286Y-107555771D02*
X131349524Y-107603390D01*
X131349524Y-107603390D02*
X131397143Y-107651009D01*
X131397143Y-107651009D02*
X131444762Y-107746247D01*
X131444762Y-107746247D02*
X131444762Y-107984342D01*
X131444762Y-107984342D02*
X131397143Y-108079580D01*
X131397143Y-108079580D02*
X131349524Y-108127200D01*
X131349524Y-108127200D02*
X131254286Y-108174819D01*
X131254286Y-108174819D02*
X131016191Y-108174819D01*
X131016191Y-108174819D02*
X130920953Y-108127200D01*
X130920953Y-108127200D02*
X130873334Y-108079580D01*
X131873334Y-107793866D02*
X132635239Y-107793866D01*
X133063810Y-107270057D02*
X133111429Y-107222438D01*
X133111429Y-107222438D02*
X133206667Y-107174819D01*
X133206667Y-107174819D02*
X133444762Y-107174819D01*
X133444762Y-107174819D02*
X133540000Y-107222438D01*
X133540000Y-107222438D02*
X133587619Y-107270057D01*
X133587619Y-107270057D02*
X133635238Y-107365295D01*
X133635238Y-107365295D02*
X133635238Y-107460533D01*
X133635238Y-107460533D02*
X133587619Y-107603390D01*
X133587619Y-107603390D02*
X133016191Y-108174819D01*
X133016191Y-108174819D02*
X133635238Y-108174819D01*
X134063810Y-107793866D02*
X134825715Y-107793866D01*
X135778095Y-107174819D02*
X135301905Y-107174819D01*
X135301905Y-107174819D02*
X135254286Y-107651009D01*
X135254286Y-107651009D02*
X135301905Y-107603390D01*
X135301905Y-107603390D02*
X135397143Y-107555771D01*
X135397143Y-107555771D02*
X135635238Y-107555771D01*
X135635238Y-107555771D02*
X135730476Y-107603390D01*
X135730476Y-107603390D02*
X135778095Y-107651009D01*
X135778095Y-107651009D02*
X135825714Y-107746247D01*
X135825714Y-107746247D02*
X135825714Y-107984342D01*
X135825714Y-107984342D02*
X135778095Y-108079580D01*
X135778095Y-108079580D02*
X135730476Y-108127200D01*
X135730476Y-108127200D02*
X135635238Y-108174819D01*
X135635238Y-108174819D02*
X135397143Y-108174819D01*
X135397143Y-108174819D02*
X135301905Y-108127200D01*
X135301905Y-108127200D02*
X135254286Y-108079580D01*
X136254286Y-108079580D02*
X136301905Y-108127200D01*
X136301905Y-108127200D02*
X136254286Y-108174819D01*
X136254286Y-108174819D02*
X136206667Y-108127200D01*
X136206667Y-108127200D02*
X136254286Y-108079580D01*
X136254286Y-108079580D02*
X136254286Y-108174819D01*
X136920952Y-107174819D02*
X137016190Y-107174819D01*
X137016190Y-107174819D02*
X137111428Y-107222438D01*
X137111428Y-107222438D02*
X137159047Y-107270057D01*
X137159047Y-107270057D02*
X137206666Y-107365295D01*
X137206666Y-107365295D02*
X137254285Y-107555771D01*
X137254285Y-107555771D02*
X137254285Y-107793866D01*
X137254285Y-107793866D02*
X137206666Y-107984342D01*
X137206666Y-107984342D02*
X137159047Y-108079580D01*
X137159047Y-108079580D02*
X137111428Y-108127200D01*
X137111428Y-108127200D02*
X137016190Y-108174819D01*
X137016190Y-108174819D02*
X136920952Y-108174819D01*
X136920952Y-108174819D02*
X136825714Y-108127200D01*
X136825714Y-108127200D02*
X136778095Y-108079580D01*
X136778095Y-108079580D02*
X136730476Y-107984342D01*
X136730476Y-107984342D02*
X136682857Y-107793866D01*
X136682857Y-107793866D02*
X136682857Y-107555771D01*
X136682857Y-107555771D02*
X136730476Y-107365295D01*
X136730476Y-107365295D02*
X136778095Y-107270057D01*
X136778095Y-107270057D02*
X136825714Y-107222438D01*
X136825714Y-107222438D02*
X136920952Y-107174819D01*
X137825714Y-107603390D02*
X137730476Y-107555771D01*
X137730476Y-107555771D02*
X137682857Y-107508152D01*
X137682857Y-107508152D02*
X137635238Y-107412914D01*
X137635238Y-107412914D02*
X137635238Y-107365295D01*
X137635238Y-107365295D02*
X137682857Y-107270057D01*
X137682857Y-107270057D02*
X137730476Y-107222438D01*
X137730476Y-107222438D02*
X137825714Y-107174819D01*
X137825714Y-107174819D02*
X138016190Y-107174819D01*
X138016190Y-107174819D02*
X138111428Y-107222438D01*
X138111428Y-107222438D02*
X138159047Y-107270057D01*
X138159047Y-107270057D02*
X138206666Y-107365295D01*
X138206666Y-107365295D02*
X138206666Y-107412914D01*
X138206666Y-107412914D02*
X138159047Y-107508152D01*
X138159047Y-107508152D02*
X138111428Y-107555771D01*
X138111428Y-107555771D02*
X138016190Y-107603390D01*
X138016190Y-107603390D02*
X137825714Y-107603390D01*
X137825714Y-107603390D02*
X137730476Y-107651009D01*
X137730476Y-107651009D02*
X137682857Y-107698628D01*
X137682857Y-107698628D02*
X137635238Y-107793866D01*
X137635238Y-107793866D02*
X137635238Y-107984342D01*
X137635238Y-107984342D02*
X137682857Y-108079580D01*
X137682857Y-108079580D02*
X137730476Y-108127200D01*
X137730476Y-108127200D02*
X137825714Y-108174819D01*
X137825714Y-108174819D02*
X138016190Y-108174819D01*
X138016190Y-108174819D02*
X138111428Y-108127200D01*
X138111428Y-108127200D02*
X138159047Y-108079580D01*
X138159047Y-108079580D02*
X138206666Y-107984342D01*
X138206666Y-107984342D02*
X138206666Y-107793866D01*
X138206666Y-107793866D02*
X138159047Y-107698628D01*
X138159047Y-107698628D02*
X138111428Y-107651009D01*
X138111428Y-107651009D02*
X138016190Y-107603390D01*
X138397143Y-108270057D02*
X139159047Y-108270057D01*
X139920952Y-108174819D02*
X139349524Y-108174819D01*
X139635238Y-108174819D02*
X139635238Y-107174819D01*
X139635238Y-107174819D02*
X139540000Y-107317676D01*
X139540000Y-107317676D02*
X139444762Y-107412914D01*
X139444762Y-107412914D02*
X139349524Y-107460533D01*
X140254286Y-108174819D02*
X140778095Y-107508152D01*
X140254286Y-107508152D02*
X140778095Y-108174819D01*
X141349524Y-107174819D02*
X141444762Y-107174819D01*
X141444762Y-107174819D02*
X141540000Y-107222438D01*
X141540000Y-107222438D02*
X141587619Y-107270057D01*
X141587619Y-107270057D02*
X141635238Y-107365295D01*
X141635238Y-107365295D02*
X141682857Y-107555771D01*
X141682857Y-107555771D02*
X141682857Y-107793866D01*
X141682857Y-107793866D02*
X141635238Y-107984342D01*
X141635238Y-107984342D02*
X141587619Y-108079580D01*
X141587619Y-108079580D02*
X141540000Y-108127200D01*
X141540000Y-108127200D02*
X141444762Y-108174819D01*
X141444762Y-108174819D02*
X141349524Y-108174819D01*
X141349524Y-108174819D02*
X141254286Y-108127200D01*
X141254286Y-108127200D02*
X141206667Y-108079580D01*
X141206667Y-108079580D02*
X141159048Y-107984342D01*
X141159048Y-107984342D02*
X141111429Y-107793866D01*
X141111429Y-107793866D02*
X141111429Y-107555771D01*
X141111429Y-107555771D02*
X141159048Y-107365295D01*
X141159048Y-107365295D02*
X141206667Y-107270057D01*
X141206667Y-107270057D02*
X141254286Y-107222438D01*
X141254286Y-107222438D02*
X141349524Y-107174819D01*
X142063810Y-107270057D02*
X142111429Y-107222438D01*
X142111429Y-107222438D02*
X142206667Y-107174819D01*
X142206667Y-107174819D02*
X142444762Y-107174819D01*
X142444762Y-107174819D02*
X142540000Y-107222438D01*
X142540000Y-107222438D02*
X142587619Y-107270057D01*
X142587619Y-107270057D02*
X142635238Y-107365295D01*
X142635238Y-107365295D02*
X142635238Y-107460533D01*
X142635238Y-107460533D02*
X142587619Y-107603390D01*
X142587619Y-107603390D02*
X142016191Y-108174819D01*
X142016191Y-108174819D02*
X142635238Y-108174819D01*
X142825715Y-108270057D02*
X143587619Y-108270057D01*
X143825715Y-108174819D02*
X143825715Y-107174819D01*
X143825715Y-107174819D02*
X144206667Y-107174819D01*
X144206667Y-107174819D02*
X144301905Y-107222438D01*
X144301905Y-107222438D02*
X144349524Y-107270057D01*
X144349524Y-107270057D02*
X144397143Y-107365295D01*
X144397143Y-107365295D02*
X144397143Y-107508152D01*
X144397143Y-107508152D02*
X144349524Y-107603390D01*
X144349524Y-107603390D02*
X144301905Y-107651009D01*
X144301905Y-107651009D02*
X144206667Y-107698628D01*
X144206667Y-107698628D02*
X143825715Y-107698628D01*
X145301905Y-107174819D02*
X144825715Y-107174819D01*
X144825715Y-107174819D02*
X144778096Y-107651009D01*
X144778096Y-107651009D02*
X144825715Y-107603390D01*
X144825715Y-107603390D02*
X144920953Y-107555771D01*
X144920953Y-107555771D02*
X145159048Y-107555771D01*
X145159048Y-107555771D02*
X145254286Y-107603390D01*
X145254286Y-107603390D02*
X145301905Y-107651009D01*
X145301905Y-107651009D02*
X145349524Y-107746247D01*
X145349524Y-107746247D02*
X145349524Y-107984342D01*
X145349524Y-107984342D02*
X145301905Y-108079580D01*
X145301905Y-108079580D02*
X145254286Y-108127200D01*
X145254286Y-108127200D02*
X145159048Y-108174819D01*
X145159048Y-108174819D02*
X144920953Y-108174819D01*
X144920953Y-108174819D02*
X144825715Y-108127200D01*
X144825715Y-108127200D02*
X144778096Y-108079580D01*
X145778096Y-108079580D02*
X145825715Y-108127200D01*
X145825715Y-108127200D02*
X145778096Y-108174819D01*
X145778096Y-108174819D02*
X145730477Y-108127200D01*
X145730477Y-108127200D02*
X145778096Y-108079580D01*
X145778096Y-108079580D02*
X145778096Y-108174819D01*
X146444762Y-107174819D02*
X146540000Y-107174819D01*
X146540000Y-107174819D02*
X146635238Y-107222438D01*
X146635238Y-107222438D02*
X146682857Y-107270057D01*
X146682857Y-107270057D02*
X146730476Y-107365295D01*
X146730476Y-107365295D02*
X146778095Y-107555771D01*
X146778095Y-107555771D02*
X146778095Y-107793866D01*
X146778095Y-107793866D02*
X146730476Y-107984342D01*
X146730476Y-107984342D02*
X146682857Y-108079580D01*
X146682857Y-108079580D02*
X146635238Y-108127200D01*
X146635238Y-108127200D02*
X146540000Y-108174819D01*
X146540000Y-108174819D02*
X146444762Y-108174819D01*
X146444762Y-108174819D02*
X146349524Y-108127200D01*
X146349524Y-108127200D02*
X146301905Y-108079580D01*
X146301905Y-108079580D02*
X146254286Y-107984342D01*
X146254286Y-107984342D02*
X146206667Y-107793866D01*
X146206667Y-107793866D02*
X146206667Y-107555771D01*
X146206667Y-107555771D02*
X146254286Y-107365295D01*
X146254286Y-107365295D02*
X146301905Y-107270057D01*
X146301905Y-107270057D02*
X146349524Y-107222438D01*
X146349524Y-107222438D02*
X146444762Y-107174819D01*
X147349524Y-107603390D02*
X147254286Y-107555771D01*
X147254286Y-107555771D02*
X147206667Y-107508152D01*
X147206667Y-107508152D02*
X147159048Y-107412914D01*
X147159048Y-107412914D02*
X147159048Y-107365295D01*
X147159048Y-107365295D02*
X147206667Y-107270057D01*
X147206667Y-107270057D02*
X147254286Y-107222438D01*
X147254286Y-107222438D02*
X147349524Y-107174819D01*
X147349524Y-107174819D02*
X147540000Y-107174819D01*
X147540000Y-107174819D02*
X147635238Y-107222438D01*
X147635238Y-107222438D02*
X147682857Y-107270057D01*
X147682857Y-107270057D02*
X147730476Y-107365295D01*
X147730476Y-107365295D02*
X147730476Y-107412914D01*
X147730476Y-107412914D02*
X147682857Y-107508152D01*
X147682857Y-107508152D02*
X147635238Y-107555771D01*
X147635238Y-107555771D02*
X147540000Y-107603390D01*
X147540000Y-107603390D02*
X147349524Y-107603390D01*
X147349524Y-107603390D02*
X147254286Y-107651009D01*
X147254286Y-107651009D02*
X147206667Y-107698628D01*
X147206667Y-107698628D02*
X147159048Y-107793866D01*
X147159048Y-107793866D02*
X147159048Y-107984342D01*
X147159048Y-107984342D02*
X147206667Y-108079580D01*
X147206667Y-108079580D02*
X147254286Y-108127200D01*
X147254286Y-108127200D02*
X147349524Y-108174819D01*
X147349524Y-108174819D02*
X147540000Y-108174819D01*
X147540000Y-108174819D02*
X147635238Y-108127200D01*
X147635238Y-108127200D02*
X147682857Y-108079580D01*
X147682857Y-108079580D02*
X147730476Y-107984342D01*
X147730476Y-107984342D02*
X147730476Y-107793866D01*
X147730476Y-107793866D02*
X147682857Y-107698628D01*
X147682857Y-107698628D02*
X147635238Y-107651009D01*
X147635238Y-107651009D02*
X147540000Y-107603390D01*
X148159048Y-108174819D02*
X148159048Y-107508152D01*
X148159048Y-107603390D02*
X148206667Y-107555771D01*
X148206667Y-107555771D02*
X148301905Y-107508152D01*
X148301905Y-107508152D02*
X148444762Y-107508152D01*
X148444762Y-107508152D02*
X148540000Y-107555771D01*
X148540000Y-107555771D02*
X148587619Y-107651009D01*
X148587619Y-107651009D02*
X148587619Y-108174819D01*
X148587619Y-107651009D02*
X148635238Y-107555771D01*
X148635238Y-107555771D02*
X148730476Y-107508152D01*
X148730476Y-107508152D02*
X148873333Y-107508152D01*
X148873333Y-107508152D02*
X148968572Y-107555771D01*
X148968572Y-107555771D02*
X149016191Y-107651009D01*
X149016191Y-107651009D02*
X149016191Y-108174819D01*
X149492381Y-108174819D02*
X149492381Y-107508152D01*
X149492381Y-107603390D02*
X149540000Y-107555771D01*
X149540000Y-107555771D02*
X149635238Y-107508152D01*
X149635238Y-107508152D02*
X149778095Y-107508152D01*
X149778095Y-107508152D02*
X149873333Y-107555771D01*
X149873333Y-107555771D02*
X149920952Y-107651009D01*
X149920952Y-107651009D02*
X149920952Y-108174819D01*
X149920952Y-107651009D02*
X149968571Y-107555771D01*
X149968571Y-107555771D02*
X150063809Y-107508152D01*
X150063809Y-107508152D02*
X150206666Y-107508152D01*
X150206666Y-107508152D02*
X150301905Y-107555771D01*
X150301905Y-107555771D02*
X150349524Y-107651009D01*
X150349524Y-107651009D02*
X150349524Y-108174819D01*
X150587619Y-108270057D02*
X151349523Y-108270057D01*
X151587619Y-108174819D02*
X151587619Y-107174819D01*
X151587619Y-107651009D02*
X152159047Y-107651009D01*
X152159047Y-108174819D02*
X152159047Y-107174819D01*
X152778095Y-108174819D02*
X152682857Y-108127200D01*
X152682857Y-108127200D02*
X152635238Y-108079580D01*
X152635238Y-108079580D02*
X152587619Y-107984342D01*
X152587619Y-107984342D02*
X152587619Y-107698628D01*
X152587619Y-107698628D02*
X152635238Y-107603390D01*
X152635238Y-107603390D02*
X152682857Y-107555771D01*
X152682857Y-107555771D02*
X152778095Y-107508152D01*
X152778095Y-107508152D02*
X152920952Y-107508152D01*
X152920952Y-107508152D02*
X153016190Y-107555771D01*
X153016190Y-107555771D02*
X153063809Y-107603390D01*
X153063809Y-107603390D02*
X153111428Y-107698628D01*
X153111428Y-107698628D02*
X153111428Y-107984342D01*
X153111428Y-107984342D02*
X153063809Y-108079580D01*
X153063809Y-108079580D02*
X153016190Y-108127200D01*
X153016190Y-108127200D02*
X152920952Y-108174819D01*
X152920952Y-108174819D02*
X152778095Y-108174819D01*
X153540000Y-108174819D02*
X153540000Y-107508152D01*
X153540000Y-107698628D02*
X153587619Y-107603390D01*
X153587619Y-107603390D02*
X153635238Y-107555771D01*
X153635238Y-107555771D02*
X153730476Y-107508152D01*
X153730476Y-107508152D02*
X153825714Y-107508152D01*
X154159048Y-108174819D02*
X154159048Y-107508152D01*
X154159048Y-107174819D02*
X154111429Y-107222438D01*
X154111429Y-107222438D02*
X154159048Y-107270057D01*
X154159048Y-107270057D02*
X154206667Y-107222438D01*
X154206667Y-107222438D02*
X154159048Y-107174819D01*
X154159048Y-107174819D02*
X154159048Y-107270057D01*
X154540000Y-107508152D02*
X155063809Y-107508152D01*
X155063809Y-107508152D02*
X154540000Y-108174819D01*
X154540000Y-108174819D02*
X155063809Y-108174819D01*
X155587619Y-108174819D02*
X155492381Y-108127200D01*
X155492381Y-108127200D02*
X155444762Y-108079580D01*
X155444762Y-108079580D02*
X155397143Y-107984342D01*
X155397143Y-107984342D02*
X155397143Y-107698628D01*
X155397143Y-107698628D02*
X155444762Y-107603390D01*
X155444762Y-107603390D02*
X155492381Y-107555771D01*
X155492381Y-107555771D02*
X155587619Y-107508152D01*
X155587619Y-107508152D02*
X155730476Y-107508152D01*
X155730476Y-107508152D02*
X155825714Y-107555771D01*
X155825714Y-107555771D02*
X155873333Y-107603390D01*
X155873333Y-107603390D02*
X155920952Y-107698628D01*
X155920952Y-107698628D02*
X155920952Y-107984342D01*
X155920952Y-107984342D02*
X155873333Y-108079580D01*
X155873333Y-108079580D02*
X155825714Y-108127200D01*
X155825714Y-108127200D02*
X155730476Y-108174819D01*
X155730476Y-108174819D02*
X155587619Y-108174819D01*
X156349524Y-107508152D02*
X156349524Y-108174819D01*
X156349524Y-107603390D02*
X156397143Y-107555771D01*
X156397143Y-107555771D02*
X156492381Y-107508152D01*
X156492381Y-107508152D02*
X156635238Y-107508152D01*
X156635238Y-107508152D02*
X156730476Y-107555771D01*
X156730476Y-107555771D02*
X156778095Y-107651009D01*
X156778095Y-107651009D02*
X156778095Y-108174819D01*
X157111429Y-107508152D02*
X157492381Y-107508152D01*
X157254286Y-107174819D02*
X157254286Y-108031961D01*
X157254286Y-108031961D02*
X157301905Y-108127200D01*
X157301905Y-108127200D02*
X157397143Y-108174819D01*
X157397143Y-108174819D02*
X157492381Y-108174819D01*
X158254286Y-108174819D02*
X158254286Y-107651009D01*
X158254286Y-107651009D02*
X158206667Y-107555771D01*
X158206667Y-107555771D02*
X158111429Y-107508152D01*
X158111429Y-107508152D02*
X157920953Y-107508152D01*
X157920953Y-107508152D02*
X157825715Y-107555771D01*
X158254286Y-108127200D02*
X158159048Y-108174819D01*
X158159048Y-108174819D02*
X157920953Y-108174819D01*
X157920953Y-108174819D02*
X157825715Y-108127200D01*
X157825715Y-108127200D02*
X157778096Y-108031961D01*
X157778096Y-108031961D02*
X157778096Y-107936723D01*
X157778096Y-107936723D02*
X157825715Y-107841485D01*
X157825715Y-107841485D02*
X157920953Y-107793866D01*
X157920953Y-107793866D02*
X158159048Y-107793866D01*
X158159048Y-107793866D02*
X158254286Y-107746247D01*
X158873334Y-108174819D02*
X158778096Y-108127200D01*
X158778096Y-108127200D02*
X158730477Y-108031961D01*
X158730477Y-108031961D02*
X158730477Y-107174819D01*
X132206666Y-104654819D02*
X132206666Y-105369104D01*
X132206666Y-105369104D02*
X132159047Y-105511961D01*
X132159047Y-105511961D02*
X132063809Y-105607200D01*
X132063809Y-105607200D02*
X131920952Y-105654819D01*
X131920952Y-105654819D02*
X131825714Y-105654819D01*
X132635238Y-104750057D02*
X132682857Y-104702438D01*
X132682857Y-104702438D02*
X132778095Y-104654819D01*
X132778095Y-104654819D02*
X133016190Y-104654819D01*
X133016190Y-104654819D02*
X133111428Y-104702438D01*
X133111428Y-104702438D02*
X133159047Y-104750057D01*
X133159047Y-104750057D02*
X133206666Y-104845295D01*
X133206666Y-104845295D02*
X133206666Y-104940533D01*
X133206666Y-104940533D02*
X133159047Y-105083390D01*
X133159047Y-105083390D02*
X132587619Y-105654819D01*
X132587619Y-105654819D02*
X133206666Y-105654819D01*
X141976189Y-99039580D02*
X141928570Y-99087200D01*
X141928570Y-99087200D02*
X141785713Y-99134819D01*
X141785713Y-99134819D02*
X141690475Y-99134819D01*
X141690475Y-99134819D02*
X141547618Y-99087200D01*
X141547618Y-99087200D02*
X141452380Y-98991961D01*
X141452380Y-98991961D02*
X141404761Y-98896723D01*
X141404761Y-98896723D02*
X141357142Y-98706247D01*
X141357142Y-98706247D02*
X141357142Y-98563390D01*
X141357142Y-98563390D02*
X141404761Y-98372914D01*
X141404761Y-98372914D02*
X141452380Y-98277676D01*
X141452380Y-98277676D02*
X141547618Y-98182438D01*
X141547618Y-98182438D02*
X141690475Y-98134819D01*
X141690475Y-98134819D02*
X141785713Y-98134819D01*
X141785713Y-98134819D02*
X141928570Y-98182438D01*
X141928570Y-98182438D02*
X141976189Y-98230057D01*
X142166666Y-99230057D02*
X142928570Y-99230057D01*
X143357142Y-98134819D02*
X143452380Y-98134819D01*
X143452380Y-98134819D02*
X143547618Y-98182438D01*
X143547618Y-98182438D02*
X143595237Y-98230057D01*
X143595237Y-98230057D02*
X143642856Y-98325295D01*
X143642856Y-98325295D02*
X143690475Y-98515771D01*
X143690475Y-98515771D02*
X143690475Y-98753866D01*
X143690475Y-98753866D02*
X143642856Y-98944342D01*
X143642856Y-98944342D02*
X143595237Y-99039580D01*
X143595237Y-99039580D02*
X143547618Y-99087200D01*
X143547618Y-99087200D02*
X143452380Y-99134819D01*
X143452380Y-99134819D02*
X143357142Y-99134819D01*
X143357142Y-99134819D02*
X143261904Y-99087200D01*
X143261904Y-99087200D02*
X143214285Y-99039580D01*
X143214285Y-99039580D02*
X143166666Y-98944342D01*
X143166666Y-98944342D02*
X143119047Y-98753866D01*
X143119047Y-98753866D02*
X143119047Y-98515771D01*
X143119047Y-98515771D02*
X143166666Y-98325295D01*
X143166666Y-98325295D02*
X143214285Y-98230057D01*
X143214285Y-98230057D02*
X143261904Y-98182438D01*
X143261904Y-98182438D02*
X143357142Y-98134819D01*
X144261904Y-98563390D02*
X144166666Y-98515771D01*
X144166666Y-98515771D02*
X144119047Y-98468152D01*
X144119047Y-98468152D02*
X144071428Y-98372914D01*
X144071428Y-98372914D02*
X144071428Y-98325295D01*
X144071428Y-98325295D02*
X144119047Y-98230057D01*
X144119047Y-98230057D02*
X144166666Y-98182438D01*
X144166666Y-98182438D02*
X144261904Y-98134819D01*
X144261904Y-98134819D02*
X144452380Y-98134819D01*
X144452380Y-98134819D02*
X144547618Y-98182438D01*
X144547618Y-98182438D02*
X144595237Y-98230057D01*
X144595237Y-98230057D02*
X144642856Y-98325295D01*
X144642856Y-98325295D02*
X144642856Y-98372914D01*
X144642856Y-98372914D02*
X144595237Y-98468152D01*
X144595237Y-98468152D02*
X144547618Y-98515771D01*
X144547618Y-98515771D02*
X144452380Y-98563390D01*
X144452380Y-98563390D02*
X144261904Y-98563390D01*
X144261904Y-98563390D02*
X144166666Y-98611009D01*
X144166666Y-98611009D02*
X144119047Y-98658628D01*
X144119047Y-98658628D02*
X144071428Y-98753866D01*
X144071428Y-98753866D02*
X144071428Y-98944342D01*
X144071428Y-98944342D02*
X144119047Y-99039580D01*
X144119047Y-99039580D02*
X144166666Y-99087200D01*
X144166666Y-99087200D02*
X144261904Y-99134819D01*
X144261904Y-99134819D02*
X144452380Y-99134819D01*
X144452380Y-99134819D02*
X144547618Y-99087200D01*
X144547618Y-99087200D02*
X144595237Y-99039580D01*
X144595237Y-99039580D02*
X144642856Y-98944342D01*
X144642856Y-98944342D02*
X144642856Y-98753866D01*
X144642856Y-98753866D02*
X144595237Y-98658628D01*
X144595237Y-98658628D02*
X144547618Y-98611009D01*
X144547618Y-98611009D02*
X144452380Y-98563390D01*
X145261904Y-98134819D02*
X145357142Y-98134819D01*
X145357142Y-98134819D02*
X145452380Y-98182438D01*
X145452380Y-98182438D02*
X145499999Y-98230057D01*
X145499999Y-98230057D02*
X145547618Y-98325295D01*
X145547618Y-98325295D02*
X145595237Y-98515771D01*
X145595237Y-98515771D02*
X145595237Y-98753866D01*
X145595237Y-98753866D02*
X145547618Y-98944342D01*
X145547618Y-98944342D02*
X145499999Y-99039580D01*
X145499999Y-99039580D02*
X145452380Y-99087200D01*
X145452380Y-99087200D02*
X145357142Y-99134819D01*
X145357142Y-99134819D02*
X145261904Y-99134819D01*
X145261904Y-99134819D02*
X145166666Y-99087200D01*
X145166666Y-99087200D02*
X145119047Y-99039580D01*
X145119047Y-99039580D02*
X145071428Y-98944342D01*
X145071428Y-98944342D02*
X145023809Y-98753866D01*
X145023809Y-98753866D02*
X145023809Y-98515771D01*
X145023809Y-98515771D02*
X145071428Y-98325295D01*
X145071428Y-98325295D02*
X145119047Y-98230057D01*
X145119047Y-98230057D02*
X145166666Y-98182438D01*
X145166666Y-98182438D02*
X145261904Y-98134819D01*
X146499999Y-98134819D02*
X146023809Y-98134819D01*
X146023809Y-98134819D02*
X145976190Y-98611009D01*
X145976190Y-98611009D02*
X146023809Y-98563390D01*
X146023809Y-98563390D02*
X146119047Y-98515771D01*
X146119047Y-98515771D02*
X146357142Y-98515771D01*
X146357142Y-98515771D02*
X146452380Y-98563390D01*
X146452380Y-98563390D02*
X146499999Y-98611009D01*
X146499999Y-98611009D02*
X146547618Y-98706247D01*
X146547618Y-98706247D02*
X146547618Y-98944342D01*
X146547618Y-98944342D02*
X146499999Y-99039580D01*
X146499999Y-99039580D02*
X146452380Y-99087200D01*
X146452380Y-99087200D02*
X146357142Y-99134819D01*
X146357142Y-99134819D02*
X146119047Y-99134819D01*
X146119047Y-99134819D02*
X146023809Y-99087200D01*
X146023809Y-99087200D02*
X145976190Y-99039580D01*
X146738095Y-99230057D02*
X147499999Y-99230057D01*
X147690476Y-98230057D02*
X147738095Y-98182438D01*
X147738095Y-98182438D02*
X147833333Y-98134819D01*
X147833333Y-98134819D02*
X148071428Y-98134819D01*
X148071428Y-98134819D02*
X148166666Y-98182438D01*
X148166666Y-98182438D02*
X148214285Y-98230057D01*
X148214285Y-98230057D02*
X148261904Y-98325295D01*
X148261904Y-98325295D02*
X148261904Y-98420533D01*
X148261904Y-98420533D02*
X148214285Y-98563390D01*
X148214285Y-98563390D02*
X147642857Y-99134819D01*
X147642857Y-99134819D02*
X148261904Y-99134819D01*
X148880952Y-98134819D02*
X148976190Y-98134819D01*
X148976190Y-98134819D02*
X149071428Y-98182438D01*
X149071428Y-98182438D02*
X149119047Y-98230057D01*
X149119047Y-98230057D02*
X149166666Y-98325295D01*
X149166666Y-98325295D02*
X149214285Y-98515771D01*
X149214285Y-98515771D02*
X149214285Y-98753866D01*
X149214285Y-98753866D02*
X149166666Y-98944342D01*
X149166666Y-98944342D02*
X149119047Y-99039580D01*
X149119047Y-99039580D02*
X149071428Y-99087200D01*
X149071428Y-99087200D02*
X148976190Y-99134819D01*
X148976190Y-99134819D02*
X148880952Y-99134819D01*
X148880952Y-99134819D02*
X148785714Y-99087200D01*
X148785714Y-99087200D02*
X148738095Y-99039580D01*
X148738095Y-99039580D02*
X148690476Y-98944342D01*
X148690476Y-98944342D02*
X148642857Y-98753866D01*
X148642857Y-98753866D02*
X148642857Y-98515771D01*
X148642857Y-98515771D02*
X148690476Y-98325295D01*
X148690476Y-98325295D02*
X148738095Y-98230057D01*
X148738095Y-98230057D02*
X148785714Y-98182438D01*
X148785714Y-98182438D02*
X148880952Y-98134819D01*
X150166666Y-99134819D02*
X149595238Y-99134819D01*
X149880952Y-99134819D02*
X149880952Y-98134819D01*
X149880952Y-98134819D02*
X149785714Y-98277676D01*
X149785714Y-98277676D02*
X149690476Y-98372914D01*
X149690476Y-98372914D02*
X149595238Y-98420533D01*
X150547619Y-98230057D02*
X150595238Y-98182438D01*
X150595238Y-98182438D02*
X150690476Y-98134819D01*
X150690476Y-98134819D02*
X150928571Y-98134819D01*
X150928571Y-98134819D02*
X151023809Y-98182438D01*
X151023809Y-98182438D02*
X151071428Y-98230057D01*
X151071428Y-98230057D02*
X151119047Y-98325295D01*
X151119047Y-98325295D02*
X151119047Y-98420533D01*
X151119047Y-98420533D02*
X151071428Y-98563390D01*
X151071428Y-98563390D02*
X150500000Y-99134819D01*
X150500000Y-99134819D02*
X151119047Y-99134819D01*
X151547619Y-99134819D02*
X151547619Y-98134819D01*
X151547619Y-98134819D02*
X151880952Y-98849104D01*
X151880952Y-98849104D02*
X152214285Y-98134819D01*
X152214285Y-98134819D02*
X152214285Y-99134819D01*
X153071428Y-99087200D02*
X152976190Y-99134819D01*
X152976190Y-99134819D02*
X152785714Y-99134819D01*
X152785714Y-99134819D02*
X152690476Y-99087200D01*
X152690476Y-99087200D02*
X152642857Y-98991961D01*
X152642857Y-98991961D02*
X152642857Y-98611009D01*
X152642857Y-98611009D02*
X152690476Y-98515771D01*
X152690476Y-98515771D02*
X152785714Y-98468152D01*
X152785714Y-98468152D02*
X152976190Y-98468152D01*
X152976190Y-98468152D02*
X153071428Y-98515771D01*
X153071428Y-98515771D02*
X153119047Y-98611009D01*
X153119047Y-98611009D02*
X153119047Y-98706247D01*
X153119047Y-98706247D02*
X152642857Y-98801485D01*
X153404762Y-98468152D02*
X153785714Y-98468152D01*
X153547619Y-98134819D02*
X153547619Y-98991961D01*
X153547619Y-98991961D02*
X153595238Y-99087200D01*
X153595238Y-99087200D02*
X153690476Y-99134819D01*
X153690476Y-99134819D02*
X153785714Y-99134819D01*
X154119048Y-99134819D02*
X154119048Y-98468152D01*
X154119048Y-98658628D02*
X154166667Y-98563390D01*
X154166667Y-98563390D02*
X154214286Y-98515771D01*
X154214286Y-98515771D02*
X154309524Y-98468152D01*
X154309524Y-98468152D02*
X154404762Y-98468152D01*
X154738096Y-99134819D02*
X154738096Y-98468152D01*
X154738096Y-98134819D02*
X154690477Y-98182438D01*
X154690477Y-98182438D02*
X154738096Y-98230057D01*
X154738096Y-98230057D02*
X154785715Y-98182438D01*
X154785715Y-98182438D02*
X154738096Y-98134819D01*
X154738096Y-98134819D02*
X154738096Y-98230057D01*
X155642857Y-99087200D02*
X155547619Y-99134819D01*
X155547619Y-99134819D02*
X155357143Y-99134819D01*
X155357143Y-99134819D02*
X155261905Y-99087200D01*
X155261905Y-99087200D02*
X155214286Y-99039580D01*
X155214286Y-99039580D02*
X155166667Y-98944342D01*
X155166667Y-98944342D02*
X155166667Y-98658628D01*
X155166667Y-98658628D02*
X155214286Y-98563390D01*
X155214286Y-98563390D02*
X155261905Y-98515771D01*
X155261905Y-98515771D02*
X155357143Y-98468152D01*
X155357143Y-98468152D02*
X155547619Y-98468152D01*
X155547619Y-98468152D02*
X155642857Y-98515771D01*
X155833334Y-99230057D02*
X156595238Y-99230057D01*
X156833334Y-99134819D02*
X156833334Y-98134819D01*
X156833334Y-98134819D02*
X157214286Y-98134819D01*
X157214286Y-98134819D02*
X157309524Y-98182438D01*
X157309524Y-98182438D02*
X157357143Y-98230057D01*
X157357143Y-98230057D02*
X157404762Y-98325295D01*
X157404762Y-98325295D02*
X157404762Y-98468152D01*
X157404762Y-98468152D02*
X157357143Y-98563390D01*
X157357143Y-98563390D02*
X157309524Y-98611009D01*
X157309524Y-98611009D02*
X157214286Y-98658628D01*
X157214286Y-98658628D02*
X156833334Y-98658628D01*
X158261905Y-99134819D02*
X158261905Y-98611009D01*
X158261905Y-98611009D02*
X158214286Y-98515771D01*
X158214286Y-98515771D02*
X158119048Y-98468152D01*
X158119048Y-98468152D02*
X157928572Y-98468152D01*
X157928572Y-98468152D02*
X157833334Y-98515771D01*
X158261905Y-99087200D02*
X158166667Y-99134819D01*
X158166667Y-99134819D02*
X157928572Y-99134819D01*
X157928572Y-99134819D02*
X157833334Y-99087200D01*
X157833334Y-99087200D02*
X157785715Y-98991961D01*
X157785715Y-98991961D02*
X157785715Y-98896723D01*
X157785715Y-98896723D02*
X157833334Y-98801485D01*
X157833334Y-98801485D02*
X157928572Y-98753866D01*
X157928572Y-98753866D02*
X158166667Y-98753866D01*
X158166667Y-98753866D02*
X158261905Y-98706247D01*
X159166667Y-99134819D02*
X159166667Y-98134819D01*
X159166667Y-99087200D02*
X159071429Y-99134819D01*
X159071429Y-99134819D02*
X158880953Y-99134819D01*
X158880953Y-99134819D02*
X158785715Y-99087200D01*
X158785715Y-99087200D02*
X158738096Y-99039580D01*
X158738096Y-99039580D02*
X158690477Y-98944342D01*
X158690477Y-98944342D02*
X158690477Y-98658628D01*
X158690477Y-98658628D02*
X158738096Y-98563390D01*
X158738096Y-98563390D02*
X158785715Y-98515771D01*
X158785715Y-98515771D02*
X158880953Y-98468152D01*
X158880953Y-98468152D02*
X159071429Y-98468152D01*
X159071429Y-98468152D02*
X159166667Y-98515771D01*
X160166667Y-99134819D02*
X159595239Y-99134819D01*
X159880953Y-99134819D02*
X159880953Y-98134819D01*
X159880953Y-98134819D02*
X159785715Y-98277676D01*
X159785715Y-98277676D02*
X159690477Y-98372914D01*
X159690477Y-98372914D02*
X159595239Y-98420533D01*
X160595239Y-99039580D02*
X160642858Y-99087200D01*
X160642858Y-99087200D02*
X160595239Y-99134819D01*
X160595239Y-99134819D02*
X160547620Y-99087200D01*
X160547620Y-99087200D02*
X160595239Y-99039580D01*
X160595239Y-99039580D02*
X160595239Y-99134819D01*
X161595238Y-99134819D02*
X161023810Y-99134819D01*
X161309524Y-99134819D02*
X161309524Y-98134819D01*
X161309524Y-98134819D02*
X161214286Y-98277676D01*
X161214286Y-98277676D02*
X161119048Y-98372914D01*
X161119048Y-98372914D02*
X161023810Y-98420533D01*
X162166667Y-98563390D02*
X162071429Y-98515771D01*
X162071429Y-98515771D02*
X162023810Y-98468152D01*
X162023810Y-98468152D02*
X161976191Y-98372914D01*
X161976191Y-98372914D02*
X161976191Y-98325295D01*
X161976191Y-98325295D02*
X162023810Y-98230057D01*
X162023810Y-98230057D02*
X162071429Y-98182438D01*
X162071429Y-98182438D02*
X162166667Y-98134819D01*
X162166667Y-98134819D02*
X162357143Y-98134819D01*
X162357143Y-98134819D02*
X162452381Y-98182438D01*
X162452381Y-98182438D02*
X162500000Y-98230057D01*
X162500000Y-98230057D02*
X162547619Y-98325295D01*
X162547619Y-98325295D02*
X162547619Y-98372914D01*
X162547619Y-98372914D02*
X162500000Y-98468152D01*
X162500000Y-98468152D02*
X162452381Y-98515771D01*
X162452381Y-98515771D02*
X162357143Y-98563390D01*
X162357143Y-98563390D02*
X162166667Y-98563390D01*
X162166667Y-98563390D02*
X162071429Y-98611009D01*
X162071429Y-98611009D02*
X162023810Y-98658628D01*
X162023810Y-98658628D02*
X161976191Y-98753866D01*
X161976191Y-98753866D02*
X161976191Y-98944342D01*
X161976191Y-98944342D02*
X162023810Y-99039580D01*
X162023810Y-99039580D02*
X162071429Y-99087200D01*
X162071429Y-99087200D02*
X162166667Y-99134819D01*
X162166667Y-99134819D02*
X162357143Y-99134819D01*
X162357143Y-99134819D02*
X162452381Y-99087200D01*
X162452381Y-99087200D02*
X162500000Y-99039580D01*
X162500000Y-99039580D02*
X162547619Y-98944342D01*
X162547619Y-98944342D02*
X162547619Y-98753866D01*
X162547619Y-98753866D02*
X162500000Y-98658628D01*
X162500000Y-98658628D02*
X162452381Y-98611009D01*
X162452381Y-98611009D02*
X162357143Y-98563390D01*
X162880953Y-99134819D02*
X163404762Y-98468152D01*
X162880953Y-98468152D02*
X163404762Y-99134819D01*
X164309524Y-99134819D02*
X163738096Y-99134819D01*
X164023810Y-99134819D02*
X164023810Y-98134819D01*
X164023810Y-98134819D02*
X163928572Y-98277676D01*
X163928572Y-98277676D02*
X163833334Y-98372914D01*
X163833334Y-98372914D02*
X163738096Y-98420533D01*
X164738096Y-99039580D02*
X164785715Y-99087200D01*
X164785715Y-99087200D02*
X164738096Y-99134819D01*
X164738096Y-99134819D02*
X164690477Y-99087200D01*
X164690477Y-99087200D02*
X164738096Y-99039580D01*
X164738096Y-99039580D02*
X164738096Y-99134819D01*
X165642857Y-98468152D02*
X165642857Y-99134819D01*
X165404762Y-98087200D02*
X165166667Y-98801485D01*
X165166667Y-98801485D02*
X165785714Y-98801485D01*
X166642857Y-98134819D02*
X166166667Y-98134819D01*
X166166667Y-98134819D02*
X166119048Y-98611009D01*
X166119048Y-98611009D02*
X166166667Y-98563390D01*
X166166667Y-98563390D02*
X166261905Y-98515771D01*
X166261905Y-98515771D02*
X166500000Y-98515771D01*
X166500000Y-98515771D02*
X166595238Y-98563390D01*
X166595238Y-98563390D02*
X166642857Y-98611009D01*
X166642857Y-98611009D02*
X166690476Y-98706247D01*
X166690476Y-98706247D02*
X166690476Y-98944342D01*
X166690476Y-98944342D02*
X166642857Y-99039580D01*
X166642857Y-99039580D02*
X166595238Y-99087200D01*
X166595238Y-99087200D02*
X166500000Y-99134819D01*
X166500000Y-99134819D02*
X166261905Y-99134819D01*
X166261905Y-99134819D02*
X166166667Y-99087200D01*
X166166667Y-99087200D02*
X166119048Y-99039580D01*
X167119048Y-99134819D02*
X167119048Y-98468152D01*
X167119048Y-98563390D02*
X167166667Y-98515771D01*
X167166667Y-98515771D02*
X167261905Y-98468152D01*
X167261905Y-98468152D02*
X167404762Y-98468152D01*
X167404762Y-98468152D02*
X167500000Y-98515771D01*
X167500000Y-98515771D02*
X167547619Y-98611009D01*
X167547619Y-98611009D02*
X167547619Y-99134819D01*
X167547619Y-98611009D02*
X167595238Y-98515771D01*
X167595238Y-98515771D02*
X167690476Y-98468152D01*
X167690476Y-98468152D02*
X167833333Y-98468152D01*
X167833333Y-98468152D02*
X167928572Y-98515771D01*
X167928572Y-98515771D02*
X167976191Y-98611009D01*
X167976191Y-98611009D02*
X167976191Y-99134819D01*
X168452381Y-99134819D02*
X168452381Y-98468152D01*
X168452381Y-98563390D02*
X168500000Y-98515771D01*
X168500000Y-98515771D02*
X168595238Y-98468152D01*
X168595238Y-98468152D02*
X168738095Y-98468152D01*
X168738095Y-98468152D02*
X168833333Y-98515771D01*
X168833333Y-98515771D02*
X168880952Y-98611009D01*
X168880952Y-98611009D02*
X168880952Y-99134819D01*
X168880952Y-98611009D02*
X168928571Y-98515771D01*
X168928571Y-98515771D02*
X169023809Y-98468152D01*
X169023809Y-98468152D02*
X169166666Y-98468152D01*
X169166666Y-98468152D02*
X169261905Y-98515771D01*
X169261905Y-98515771D02*
X169309524Y-98611009D01*
X169309524Y-98611009D02*
X169309524Y-99134819D01*
X169547619Y-99230057D02*
X170309523Y-99230057D01*
X170547619Y-99134819D02*
X170547619Y-98134819D01*
X170547619Y-98611009D02*
X171119047Y-98611009D01*
X171119047Y-99134819D02*
X171119047Y-98134819D01*
X172023809Y-99134819D02*
X172023809Y-98611009D01*
X172023809Y-98611009D02*
X171976190Y-98515771D01*
X171976190Y-98515771D02*
X171880952Y-98468152D01*
X171880952Y-98468152D02*
X171690476Y-98468152D01*
X171690476Y-98468152D02*
X171595238Y-98515771D01*
X172023809Y-99087200D02*
X171928571Y-99134819D01*
X171928571Y-99134819D02*
X171690476Y-99134819D01*
X171690476Y-99134819D02*
X171595238Y-99087200D01*
X171595238Y-99087200D02*
X171547619Y-98991961D01*
X171547619Y-98991961D02*
X171547619Y-98896723D01*
X171547619Y-98896723D02*
X171595238Y-98801485D01*
X171595238Y-98801485D02*
X171690476Y-98753866D01*
X171690476Y-98753866D02*
X171928571Y-98753866D01*
X171928571Y-98753866D02*
X172023809Y-98706247D01*
X172500000Y-98468152D02*
X172500000Y-99134819D01*
X172500000Y-98563390D02*
X172547619Y-98515771D01*
X172547619Y-98515771D02*
X172642857Y-98468152D01*
X172642857Y-98468152D02*
X172785714Y-98468152D01*
X172785714Y-98468152D02*
X172880952Y-98515771D01*
X172880952Y-98515771D02*
X172928571Y-98611009D01*
X172928571Y-98611009D02*
X172928571Y-99134819D01*
X173833333Y-99134819D02*
X173833333Y-98134819D01*
X173833333Y-99087200D02*
X173738095Y-99134819D01*
X173738095Y-99134819D02*
X173547619Y-99134819D01*
X173547619Y-99134819D02*
X173452381Y-99087200D01*
X173452381Y-99087200D02*
X173404762Y-99039580D01*
X173404762Y-99039580D02*
X173357143Y-98944342D01*
X173357143Y-98944342D02*
X173357143Y-98658628D01*
X173357143Y-98658628D02*
X173404762Y-98563390D01*
X173404762Y-98563390D02*
X173452381Y-98515771D01*
X173452381Y-98515771D02*
X173547619Y-98468152D01*
X173547619Y-98468152D02*
X173738095Y-98468152D01*
X173738095Y-98468152D02*
X173833333Y-98515771D01*
X174261905Y-99087200D02*
X174404762Y-99134819D01*
X174404762Y-99134819D02*
X174642857Y-99134819D01*
X174642857Y-99134819D02*
X174738095Y-99087200D01*
X174738095Y-99087200D02*
X174785714Y-99039580D01*
X174785714Y-99039580D02*
X174833333Y-98944342D01*
X174833333Y-98944342D02*
X174833333Y-98849104D01*
X174833333Y-98849104D02*
X174785714Y-98753866D01*
X174785714Y-98753866D02*
X174738095Y-98706247D01*
X174738095Y-98706247D02*
X174642857Y-98658628D01*
X174642857Y-98658628D02*
X174452381Y-98611009D01*
X174452381Y-98611009D02*
X174357143Y-98563390D01*
X174357143Y-98563390D02*
X174309524Y-98515771D01*
X174309524Y-98515771D02*
X174261905Y-98420533D01*
X174261905Y-98420533D02*
X174261905Y-98325295D01*
X174261905Y-98325295D02*
X174309524Y-98230057D01*
X174309524Y-98230057D02*
X174357143Y-98182438D01*
X174357143Y-98182438D02*
X174452381Y-98134819D01*
X174452381Y-98134819D02*
X174690476Y-98134819D01*
X174690476Y-98134819D02*
X174833333Y-98182438D01*
X175404762Y-99134819D02*
X175309524Y-99087200D01*
X175309524Y-99087200D02*
X175261905Y-99039580D01*
X175261905Y-99039580D02*
X175214286Y-98944342D01*
X175214286Y-98944342D02*
X175214286Y-98658628D01*
X175214286Y-98658628D02*
X175261905Y-98563390D01*
X175261905Y-98563390D02*
X175309524Y-98515771D01*
X175309524Y-98515771D02*
X175404762Y-98468152D01*
X175404762Y-98468152D02*
X175547619Y-98468152D01*
X175547619Y-98468152D02*
X175642857Y-98515771D01*
X175642857Y-98515771D02*
X175690476Y-98563390D01*
X175690476Y-98563390D02*
X175738095Y-98658628D01*
X175738095Y-98658628D02*
X175738095Y-98944342D01*
X175738095Y-98944342D02*
X175690476Y-99039580D01*
X175690476Y-99039580D02*
X175642857Y-99087200D01*
X175642857Y-99087200D02*
X175547619Y-99134819D01*
X175547619Y-99134819D02*
X175404762Y-99134819D01*
X176309524Y-99134819D02*
X176214286Y-99087200D01*
X176214286Y-99087200D02*
X176166667Y-98991961D01*
X176166667Y-98991961D02*
X176166667Y-98134819D01*
X177119048Y-99134819D02*
X177119048Y-98134819D01*
X177119048Y-99087200D02*
X177023810Y-99134819D01*
X177023810Y-99134819D02*
X176833334Y-99134819D01*
X176833334Y-99134819D02*
X176738096Y-99087200D01*
X176738096Y-99087200D02*
X176690477Y-99039580D01*
X176690477Y-99039580D02*
X176642858Y-98944342D01*
X176642858Y-98944342D02*
X176642858Y-98658628D01*
X176642858Y-98658628D02*
X176690477Y-98563390D01*
X176690477Y-98563390D02*
X176738096Y-98515771D01*
X176738096Y-98515771D02*
X176833334Y-98468152D01*
X176833334Y-98468152D02*
X177023810Y-98468152D01*
X177023810Y-98468152D02*
X177119048Y-98515771D01*
X177976191Y-99087200D02*
X177880953Y-99134819D01*
X177880953Y-99134819D02*
X177690477Y-99134819D01*
X177690477Y-99134819D02*
X177595239Y-99087200D01*
X177595239Y-99087200D02*
X177547620Y-98991961D01*
X177547620Y-98991961D02*
X177547620Y-98611009D01*
X177547620Y-98611009D02*
X177595239Y-98515771D01*
X177595239Y-98515771D02*
X177690477Y-98468152D01*
X177690477Y-98468152D02*
X177880953Y-98468152D01*
X177880953Y-98468152D02*
X177976191Y-98515771D01*
X177976191Y-98515771D02*
X178023810Y-98611009D01*
X178023810Y-98611009D02*
X178023810Y-98706247D01*
X178023810Y-98706247D02*
X177547620Y-98801485D01*
X178452382Y-99134819D02*
X178452382Y-98468152D01*
X178452382Y-98658628D02*
X178500001Y-98563390D01*
X178500001Y-98563390D02*
X178547620Y-98515771D01*
X178547620Y-98515771D02*
X178642858Y-98468152D01*
X178642858Y-98468152D02*
X178738096Y-98468152D01*
D13*
X159916666Y-97179530D02*
X159892857Y-97203340D01*
X159892857Y-97203340D02*
X159821428Y-97227149D01*
X159821428Y-97227149D02*
X159773809Y-97227149D01*
X159773809Y-97227149D02*
X159702381Y-97203340D01*
X159702381Y-97203340D02*
X159654762Y-97155720D01*
X159654762Y-97155720D02*
X159630952Y-97108101D01*
X159630952Y-97108101D02*
X159607143Y-97012863D01*
X159607143Y-97012863D02*
X159607143Y-96941435D01*
X159607143Y-96941435D02*
X159630952Y-96846197D01*
X159630952Y-96846197D02*
X159654762Y-96798578D01*
X159654762Y-96798578D02*
X159702381Y-96750959D01*
X159702381Y-96750959D02*
X159773809Y-96727149D01*
X159773809Y-96727149D02*
X159821428Y-96727149D01*
X159821428Y-96727149D02*
X159892857Y-96750959D01*
X159892857Y-96750959D02*
X159916666Y-96774768D01*
X160083333Y-96727149D02*
X160392857Y-96727149D01*
X160392857Y-96727149D02*
X160226190Y-96917625D01*
X160226190Y-96917625D02*
X160297619Y-96917625D01*
X160297619Y-96917625D02*
X160345238Y-96941435D01*
X160345238Y-96941435D02*
X160369047Y-96965244D01*
X160369047Y-96965244D02*
X160392857Y-97012863D01*
X160392857Y-97012863D02*
X160392857Y-97131911D01*
X160392857Y-97131911D02*
X160369047Y-97179530D01*
X160369047Y-97179530D02*
X160345238Y-97203340D01*
X160345238Y-97203340D02*
X160297619Y-97227149D01*
X160297619Y-97227149D02*
X160154762Y-97227149D01*
X160154762Y-97227149D02*
X160107143Y-97203340D01*
X160107143Y-97203340D02*
X160083333Y-97179530D01*
%TO.C,R1*%
D14*
X140000000Y-97000000D02*
X141930000Y-97000000D01*
X150160000Y-97000000D02*
X148230000Y-97000000D01*
X141930000Y-95750000D02*
X148230000Y-95750000D01*
X148230000Y-98250000D01*
X141930000Y-98250000D01*
X141930000Y-95750000D01*
%TO.C,J1*%
X109460000Y-96800000D02*
X119620000Y-96800000D01*
X109460000Y-99700000D02*
X119620000Y-99700000D01*
X109460000Y-104600000D02*
X119620000Y-104600000D01*
X109460000Y-106100000D02*
X109460000Y-96800000D01*
X109460000Y-106100000D02*
X119620000Y-106100000D01*
X109960000Y-106600000D02*
X109460000Y-106100000D01*
X112955000Y-100862000D02*
X110862000Y-102955000D01*
X113138000Y-101045000D02*
X111045000Y-103138000D01*
X118035000Y-100862000D02*
X115942000Y-102955000D01*
X118218000Y-101045000D02*
X116125000Y-103138000D01*
X119620000Y-96800000D02*
X119620000Y-106600000D01*
X119620000Y-106600000D02*
X109960000Y-106600000D01*
X113500000Y-102000000D02*
G75*
G02*
X110500000Y-102000000I-1500000J0D01*
G01*
X110500000Y-102000000D02*
G75*
G02*
X113500000Y-102000000I1500000J0D01*
G01*
X118580000Y-102000000D02*
G75*
G02*
X115580000Y-102000000I-1500000J0D01*
G01*
X115580000Y-102000000D02*
G75*
G02*
X118580000Y-102000000I1500000J0D01*
G01*
%TO.C,U1*%
X102850000Y-75600000D02*
X125150000Y-75600000D01*
X125150000Y-92400000D01*
X103850000Y-92400000D01*
X102850000Y-91400000D01*
X102850000Y-75600000D01*
%TO.C,R2*%
X154475000Y-96730000D02*
X155525000Y-96730000D01*
X155525000Y-97270000D01*
X154475000Y-97270000D01*
X154475000Y-96730000D01*
%TO.C,U2*%
X130200000Y-48150000D02*
X130200000Y-53360000D01*
X130200000Y-55360000D02*
X130200000Y-73450000D01*
X130200000Y-55360000D02*
X131200000Y-54360000D01*
X130200000Y-73450000D02*
X132740000Y-73450000D01*
X131200000Y-54360000D02*
X130200000Y-53360000D01*
X132740000Y-73450000D02*
X132740000Y-80350000D01*
X132740000Y-80350000D02*
X155800000Y-80350000D01*
X153800000Y-46150000D02*
X132200000Y-46150000D01*
X155800000Y-80350000D02*
X155800000Y-48150000D01*
X130200000Y-48150000D02*
G75*
G02*
X132200000Y-46150000I1999999J1D01*
G01*
X153820000Y-46150000D02*
G75*
G02*
X155800000Y-48170000I-20000J-2000000D01*
G01*
%TO.C,U3*%
X138730000Y-86730000D02*
X164130000Y-86730000D01*
X138730000Y-88635000D02*
X138730000Y-86730000D01*
X139365000Y-89270000D02*
X138730000Y-88635000D01*
X164130000Y-86730000D02*
X164130000Y-89270000D01*
X164130000Y-89270000D02*
X139365000Y-89270000D01*
%TO.C,J2*%
X127460000Y-96800000D02*
X137620000Y-96800000D01*
X127460000Y-99700000D02*
X137620000Y-99700000D01*
X127460000Y-104600000D02*
X137620000Y-104600000D01*
X127460000Y-106100000D02*
X127460000Y-96800000D01*
X127460000Y-106100000D02*
X137620000Y-106100000D01*
X127960000Y-106600000D02*
X127460000Y-106100000D01*
X130955000Y-100862000D02*
X128862000Y-102955000D01*
X131138000Y-101045000D02*
X129045000Y-103138000D01*
X136035000Y-100862000D02*
X133942000Y-102955000D01*
X136218000Y-101045000D02*
X134125000Y-103138000D01*
X137620000Y-96800000D02*
X137620000Y-106600000D01*
X137620000Y-106600000D02*
X127960000Y-106600000D01*
X131500000Y-102000000D02*
G75*
G02*
X128500000Y-102000000I-1500000J0D01*
G01*
X128500000Y-102000000D02*
G75*
G02*
X131500000Y-102000000I1500000J0D01*
G01*
X136580000Y-102000000D02*
G75*
G02*
X133580000Y-102000000I-1500000J0D01*
G01*
X133580000Y-102000000D02*
G75*
G02*
X136580000Y-102000000I1500000J0D01*
G01*
%TO.C,C3*%
X159000000Y-96375000D02*
X161000000Y-96375000D01*
X161000000Y-97625000D01*
X159000000Y-97625000D01*
X159000000Y-96375000D01*
%TD*%
M02*
