M48
; DRILL file KiCad 10.0.4 date 2026-08-18T22:25:37
; FORMAT={-:-/ absolute / metric / decimal}
; #@! TF.CreationDate,2026-08-18T22:25:37+02:00
; #@! TF.GenerationSoftware,Kicad,Pcbnew,10.0.4
; #@! TF.FileFunction,MixedPlating,1,2
FMAT,2
METRIC
; #@! TA.AperFunction,Plated,PTH,ViaDrill
T1C0.300
; #@! TA.AperFunction,Plated,PTH,ComponentDrill
T2C0.800
; #@! TA.AperFunction,Plated,PTH,ComponentDrill
T3C0.900
; #@! TA.AperFunction,Plated,PTH,ComponentDrill
T4C1.000
; #@! TA.AperFunction,Plated,PTH,ComponentDrill
T5C1.300
; #@! TA.AperFunction,NonPlated,NPTH,ComponentDrill
T6C3.200
%
G90
G05
T1
X117.1Y-98.7
X139.2Y-80.8
X144.2Y-77.2
X148.3Y-78.2
X148.5Y-75.5
X148.7Y-95.5
T2
X140.0Y-97.0
X150.16Y-97.0
T3
X131.57Y-54.36
X131.57Y-56.9
X131.57Y-59.44
X131.57Y-61.98
X131.57Y-64.52
X131.57Y-67.06
X131.57Y-69.6
X131.57Y-72.14
X154.43Y-54.36
X154.43Y-56.9
X154.43Y-59.44
X154.43Y-61.98
X154.43Y-64.52
X154.43Y-67.06
X154.43Y-69.6
X154.43Y-72.14
T4
X104.475Y-77.015
X104.475Y-79.555
X104.475Y-88.445
X104.475Y-90.985
X123.525Y-77.015
X123.525Y-79.555
X123.525Y-88.445
X123.525Y-90.985
X140.0Y-88.0
X142.54Y-88.0
X145.08Y-88.0
X147.62Y-88.0
X150.16Y-88.0
X152.7Y-88.0
X155.24Y-88.0
X157.78Y-88.0
X160.32Y-88.0
X162.86Y-88.0
T5
X112.0Y-102.0
X117.08Y-102.0
X130.0Y-102.0
X135.08Y-102.0
T6
X105.0Y-55.0
X105.0Y-105.0
X165.0Y-55.0
X165.0Y-105.0
M30
