%TF.GenerationSoftware,KiCad,Pcbnew,10.0.4*%
%TF.CreationDate,2026-08-18T22:25:36+02:00*%
%TF.ProjectId,cistern-level-interface,63697374-6572-46e2-9d6c-6576656c2d69,rev?*%
%TF.SameCoordinates,Original*%
%TF.FileFunction,Soldermask,Bot*%
%TF.FilePolarity,Negative*%
%FSLAX46Y46*%
G04 Gerber Fmt 4.6, Leading zero omitted, Abs format (unit mm)*
G04 Created by KiCad (PCBNEW 10.0.4) date 2026-08-18 22:25:36*
%MOMM*%
%LPD*%
G01*
G04 APERTURE LIST*
G04 Aperture macros list*
%AMRoundRect*
0 Rectangle with rounded corners*
0 $1 Rounding radius*
0 $2 $3 $4 $5 $6 $7 $8 $9 X,Y pos of 4 corners*
0 Add a 4 corners polygon primitive as box body*
4,1,4,$2,$3,$4,$5,$6,$7,$8,$9,$2,$3,0*
0 Add four circle primitives for the rounded corners*
1,1,$1+$1,$2,$3*
1,1,$1+$1,$4,$5*
1,1,$1+$1,$6,$7*
1,1,$1+$1,$8,$9*
0 Add four rect primitives between the rounded corners*
20,1,$1+$1,$2,$3,$4,$5,0*
20,1,$1+$1,$4,$5,$6,$7,0*
20,1,$1+$1,$6,$7,$8,$9,0*
20,1,$1+$1,$8,$9,$2,$3,0*%
G04 Aperture macros list end*
%ADD10C,3.800000*%
%ADD11C,1.700000*%
%ADD12RoundRect,0.300000X-1.050000X-1.050000X1.050000X-1.050000X1.050000X1.050000X-1.050000X1.050000X0*%
%ADD13C,2.700000*%
%ADD14C,1.900000*%
%ADD15RoundRect,0.050000X-0.900000X-0.900000X0.900000X-0.900000X0.900000X0.900000X-0.900000X0.900000X0*%
%ADD16RoundRect,0.050000X-1.000000X-1.000000X1.000000X-1.000000X1.000000X1.000000X-1.000000X1.000000X0*%
%ADD17O,2.100000X1.700000*%
%ADD18RoundRect,0.050000X0.850000X-0.850000X0.850000X0.850000X-0.850000X0.850000X-0.850000X-0.850000X0*%
%ADD19C,1.800000*%
G04 APERTURE END LIST*
D10*
%TO.C,H3*%
X105000000Y-105000000D03*
%TD*%
D11*
%TO.C,R1*%
X140000000Y-97000000D03*
X150160000Y-97000000D03*
%TD*%
D12*
%TO.C,J1*%
X112000000Y-102000000D03*
D13*
X117080000Y-102000000D03*
%TD*%
D14*
%TO.C,U1*%
X104475000Y-88445000D03*
D15*
X104475000Y-90985000D03*
D14*
X104475000Y-77015000D03*
X104475000Y-79555000D03*
X123525000Y-88445000D03*
X123525000Y-90985000D03*
X123525000Y-77015000D03*
X123525000Y-79555000D03*
%TD*%
D10*
%TO.C,H4*%
X165000000Y-105000000D03*
%TD*%
%TO.C,H1*%
X105000000Y-55000000D03*
%TD*%
D16*
%TO.C,U2*%
X131570000Y-54360000D03*
D17*
X131570000Y-56900000D03*
X131570000Y-59440000D03*
X131570000Y-61980000D03*
X131570000Y-64520000D03*
X131570000Y-67060000D03*
X131570000Y-69600000D03*
X131570000Y-72140000D03*
X154430000Y-72140000D03*
X154430000Y-69600000D03*
X154430000Y-67060000D03*
X154430000Y-64520000D03*
X154430000Y-61980000D03*
X154430000Y-59440000D03*
X154430000Y-56900000D03*
X154430000Y-54360000D03*
%TD*%
D18*
%TO.C,U3*%
X140000000Y-88000000D03*
D19*
X142540000Y-88000000D03*
X145080000Y-88000000D03*
X147620000Y-88000000D03*
X150160000Y-88000000D03*
X152700000Y-88000000D03*
X155240000Y-88000000D03*
X157780000Y-88000000D03*
X160320000Y-88000000D03*
X162860000Y-88000000D03*
%TD*%
D10*
%TO.C,H2*%
X165000000Y-55000000D03*
%TD*%
D12*
%TO.C,J2*%
X130000000Y-102000000D03*
D13*
X135080000Y-102000000D03*
%TD*%
M02*
