%TF.GenerationSoftware,KiCad,Pcbnew,10.0.4*%
%TF.CreationDate,2026-08-18T22:25:36+02:00*%
%TF.ProjectId,cistern-level-interface,63697374-6572-46e2-9d6c-6576656c2d69,rev?*%
%TF.SameCoordinates,Original*%
%TF.FileFunction,Other,User*%
%FSLAX46Y46*%
G04 Gerber Fmt 4.6, Leading zero omitted, Abs format (unit mm)*
G04 Created by KiCad (PCBNEW 10.0.4) date 2026-08-18 22:25:36*
%MOMM*%
%LPD*%
G01*
G04 APERTURE LIST*
%ADD10C,0.050000*%
G04 APERTURE END LIST*
%TO.C,R1*%
D10*
X138950000Y-95500000D02*
X151210000Y-95500000D01*
X151210000Y-98500000D01*
X138950000Y-98500000D01*
X138950000Y-95500000D01*
%TO.C,J1*%
X108960000Y-96290000D02*
X120130000Y-96290000D01*
X120130000Y-107100000D01*
X108960000Y-107100000D01*
X108960000Y-96290000D01*
%TO.C,U1*%
X103075000Y-75615000D02*
X124925000Y-75615000D01*
X124925000Y-92385000D01*
X103075000Y-92385000D01*
X103075000Y-75615000D01*
%TO.C,R2*%
X153890000Y-96530000D02*
X156110000Y-96530000D01*
X156110000Y-97470000D01*
X153890000Y-97470000D01*
X153890000Y-96530000D01*
%TO.C,U2*%
X129950000Y-45900000D02*
X156050000Y-45900000D01*
X129950000Y-80600000D02*
X129950000Y-45900000D01*
X156050000Y-45900000D02*
X156050000Y-80600000D01*
X156050000Y-80600000D02*
X129950000Y-80600000D01*
%TO.C,U3*%
X138230000Y-86230000D02*
X164630000Y-86230000D01*
X164630000Y-89770000D01*
X138230000Y-89770000D01*
X138230000Y-86230000D01*
%TO.C,J2*%
X126960000Y-96290000D02*
X138130000Y-96290000D01*
X138130000Y-107100000D01*
X126960000Y-107100000D01*
X126960000Y-96290000D01*
%TO.C,C3*%
X158120000Y-96020000D02*
X161880000Y-96020000D01*
X161880000Y-97980000D01*
X158120000Y-97980000D01*
X158120000Y-96020000D01*
%TD*%
M02*
